<?xml version="1.0" encoding="UTF-8"?>
<svg width="30px" height="30px" viewBox="0 0 30 30" version="1.1" xmlns="http://www.w3.org/2000/svg" xmlns:xlink="http://www.w3.org/1999/xlink">
    <!-- Generator: Sketch 60.1 (88133) - https://sketch.com -->
    <title>Group 6</title>
    <desc>Created with Sketch.</desc>
    <g id="Icons" stroke="none" stroke-width="1" fill="none" fill-rule="evenodd">
        <g id="icons" transform="translate(-1092.000000, -1678.000000)">
            <g id="Group-6" transform="translate(1092.000000, 1678.000000)">
                <g id="Group-5" fill="#005EB8">
                    <rect id="Rectangle" x="0" y="0" width="30" height="30"></rect>
                </g>
                <path d="M20.0468391,23.3284743 C20.3515261,23.3753491 20.6327754,23.3167558 20.8905871,23.1526935 C22.2499591,22.1917585 23.3163626,20.9788708 24.0897982,19.5140303 C24.8632339,18.0491899 25.2499517,16.4847405 25.2499517,14.8206821 C25.2499517,13.0394362 24.8104996,11.3812374 23.9315955,9.84608461 C23.0526913,8.31093185 21.8749598,7.08632557 20.3984008,6.17226525 C20.1405891,6.00820296 19.8593398,5.96132825 19.5546528,6.03164058 C19.2499658,6.10195292 19.0155918,6.27187421 18.8515295,6.54140499 C18.6874672,6.81093578 18.6405925,7.09804411 18.7109048,7.40273106 C18.7812171,7.70741802 18.956998,7.9417921 19.2382473,8.10585439 C20.3866822,8.80897771 21.3007426,9.75233466 21.9804283,10.9359258 C22.660114,12.1195169 22.9999571,13.4144355 22.9999571,14.8206821 C22.9999571,16.1097417 22.7011297,17.3284885 22.1034748,18.4769234 C21.50582,19.6253584 20.6679316,20.5628558 19.589809,21.2894167 C19.3554343,21.4769161 19.2089507,21.7230092 19.1503569,22.0276962 C19.0917631,22.3323831 19.1503569,22.6136325 19.3261377,22.8714442 C19.5019185,23.1292559 19.7421522,23.2815996 20.0468391,23.3284743 Z M12.1562306,21.570666 C12.3906052,21.570666 12.5898231,21.4886352 12.7538854,21.3245729 C12.9179477,21.1605106 12.9999785,20.9612927 12.9999785,20.726918 L12.9999785,20.726918 L12.9999785,8.91444621 C12.9999785,8.68007159 12.9179477,8.48085367 12.7538854,8.31679139 C12.5898231,8.1527291 12.3906052,8.07069822 12.1562306,8.07069822 C11.9218559,8.07069822 11.722638,8.1527291 11.5585757,8.31679139 L11.5585757,8.31679139 L8.42967694,11.4456902 L4.84374799,11.4456902 C4.60937337,11.4456902 4.41015545,11.5277211 4.24609316,11.6917833 C4.08203088,11.8558456 4,12.0550635 4,12.2894382 L4,12.2894382 L4,17.3519261 C4,17.5863007 4.08203088,17.7855186 4.24609316,17.9495809 C4.41015545,18.1136432 4.60937337,18.1956741 4.84374799,18.1956741 L4.84374799,18.1956741 L8.42967694,18.1956741 L11.5585757,21.3245729 C11.722638,21.4886352 11.9218559,21.570666 12.1562306,21.570666 Z M16.324187,20.5862934 C16.5585616,20.5862934 16.7694986,20.515981 16.956998,20.3753564 C17.8710583,19.7425454 18.5859002,18.9339536 19.1015241,17.9495809 C19.6171481,16.9652083 19.8749598,15.9222418 19.8749598,14.8206821 C19.8749598,13.6253725 19.5819919,12.5179532 18.9960556,11.4984244 C18.4101193,10.4788956 17.6249651,9.66444424 16.6405925,9.05507087 C16.3827808,8.89100859 16.1015314,8.84413388 15.7968445,8.91444621 C15.4921575,8.98475854 15.2577835,9.15467983 15.0937212,9.42421062 C14.9296589,9.69374141 14.8827842,9.98084974 14.9530965,10.2855367 C15.0234088,10.5902236 15.1991897,10.8245977 15.480439,10.98866 C16.1366876,11.3870964 16.6581706,11.926158 17.0448884,12.6058437 C17.4316062,13.2855294 17.6249651,14.0238088 17.6249651,14.8206821 C17.6249651,15.5472431 17.4550438,16.2386473 17.1152007,16.8948959 C16.7753576,17.5511445 16.3007494,18.0902056 15.691376,18.5120796 C15.4335643,18.699579 15.2753615,18.9456721 15.2167677,19.2503591 C15.158174,19.555046 15.2226273,19.8362953 15.4101267,20.0941071 C15.6210637,20.4222311 15.9257506,20.5862934 16.324187,20.5862934 Z" id="v" fill="#FFFFFF" fill-rule="nonzero"></path>
            </g>
        </g>
    </g>
</svg>