<?xml version="1.0" encoding="UTF-8"?>
<svg width="30px" height="30px" viewBox="0 0 30 30" version="1.1" xmlns="http://www.w3.org/2000/svg" xmlns:xlink="http://www.w3.org/1999/xlink">
    <!-- Generator: Sketch 60.1 (88133) - https://sketch.com -->
    <title>Group 7</title>
    <desc>Created with Sketch.</desc>
    <g id="Icons" stroke="none" stroke-width="1" fill="none" fill-rule="evenodd">
        <g id="icons" transform="translate(-39.000000, -1677.000000)">
            <g id="Group-7" transform="translate(39.000000, 1677.000000)">
                <rect id="Rectangle" fill="#005EB8" x="0" y="0" width="30" height="30"></rect>
                <path d="M20.2499732,22.9999952 C20.4583062,22.9999952 20.6353888,22.9270789 20.7812219,22.7812458 C20.9270551,22.6354126 20.9999714,22.45833 20.9999714,22.249997 L20.9999714,22.249997 L20.9999714,12.0000215 L16.7499815,12.0000215 C16.5416485,12.0000215 16.3645659,11.9271051 16.2187328,11.781272 C16.0728996,11.6354388 15.9999833,11.4583562 15.9999833,11.2500232 L15.9999833,11.2500232 L15.9999833,7.00003338 L9.74999821,7.00003338 C9.54166522,7.00003338 9.36458262,7.07294971 9.21874948,7.21878286 C9.07291633,7.364616 9,7.54169859 9,7.75003159 L9,7.75003159 L9,22.249997 C9,22.45833 9.07291633,22.6354126 9.21874948,22.7812458 C9.36458262,22.9270789 9.54166522,22.9999952 9.74999821,22.9999952 L9.74999821,22.9999952 L20.2499732,22.9999952 Z M20.9999809,11.0000334 L20.9999809,10.8125243 C20.9999809,10.6041913 20.9270551,10.4271087 20.7812219,10.2812756 L20.7812219,10.2812756 L17.7187292,7.21878286 C17.5728961,7.07294971 17.3958135,7.00003338 17.1874805,7.00003338 L17.1874805,7.00003338 L16.9999809,7.00003338 L16.9999809,11.0000334 L20.9999809,11.0000334 Z" id="f" fill="#FFFFFF" fill-rule="nonzero"></path>
            </g>
        </g>
    </g>
</svg>