<?xml version="1.0" encoding="UTF-8"?>
<svg width="30px" height="30px" viewBox="0 0 30 30" version="1.1" xmlns="http://www.w3.org/2000/svg" xmlns:xlink="http://www.w3.org/1999/xlink">
    <!-- Generator: Sketch 60.1 (88133) - https://sketch.com -->
    <title>Group 4</title>
    <desc>Created with Sketch.</desc>
    <g id="Icons" stroke="none" stroke-width="1" fill="none" fill-rule="evenodd">
        <g id="icons" transform="translate(-571.000000, -1678.000000)">
            <g id="Group-4" transform="translate(571.000000, 1678.000000)">
                <rect id="Rectangle" fill="#E03508" x="0" y="0" width="30" height="30"></rect>
                <path d="M13.2148438,24 L13.2148438,17.5195312 L15.4765625,17.5195312 C17.046875,17.5195312 18.2460938,17.4375 19.0742188,17.2734375 C19.6835938,17.140625 20.2832031,16.8691406 20.8730469,16.4589844 C21.4628906,16.0488281 21.9492188,15.484375 22.3320312,14.765625 C22.7148438,14.046875 22.90625,13.1601562 22.90625,12.1054688 C22.90625,10.7382812 22.5742188,9.62304688 21.9101562,8.75976562 C21.2460938,7.89648438 20.421875,7.3359375 19.4375,7.078125 C18.796875,6.90625 17.421875,6.8203125 15.3125,6.8203125 L15.3125,6.8203125 L9.74609375,6.8203125 L9.74609375,24 L13.2148438,24 Z M15.1132812,14.6015625 L13.2148438,14.6015625 L13.2148438,9.7265625 L14.890625,9.7265625 C16.140625,9.7265625 16.9726562,9.765625 17.3867188,9.84375 C17.9492188,9.9453125 18.4140625,10.1992188 18.78125,10.6054688 C19.1484375,11.0117188 19.3320312,11.5273438 19.3320312,12.1523438 C19.3320312,12.6601562 19.2011719,13.1054688 18.9394531,13.4882812 C18.6777344,13.8710938 18.3164062,14.1523438 17.8554688,14.3320312 C17.3945312,14.5117188 16.4804688,14.6015625 15.1132812,14.6015625 L15.1132812,14.6015625 Z" id="P" fill="#FFFFFF" fill-rule="nonzero"></path>
            </g>
        </g>
    </g>
</svg>