<?xml version="1.0" encoding="UTF-8"?>
<svg width="30px" height="30px" viewBox="0 0 30 30" version="1.1" xmlns="http://www.w3.org/2000/svg" xmlns:xlink="http://www.w3.org/1999/xlink">
    <!-- Generator: Sketch 60.1 (88133) - https://sketch.com -->
    <title>Icons/File types/pdf</title>
    <desc>Created with Sketch.</desc>
    <g id="Icons" stroke="none" stroke-width="1" fill="none" fill-rule="evenodd">
        <g id="icons" transform="translate(-39.000000, -1597.000000)">
            <g id="Icons/File-types/pdf" transform="translate(39.000000, 1597.000000)">
                <g id="Group-4">
                    <rect id="Rectangle" fill="#DA291C" x="0" y="0" width="30" height="30"></rect>
                    <path d="M15.4633809,6.14599434 C15.2590539,5.42080249 14.7644289,5.05820657 14.3450664,5.11152317 C13.8396464,5.1755031 13.301971,5.4741191 13.0868922,5.94339123 C12.4847061,7.28714171 13.742837,11.2437499 13.9364123,11.9050048 C12.7105801,15.5736603 8.51678151,22.8257078 6.46293267,23.3163066 C6.41992558,22.8364141 6.67801149,21.4500104 9.38780522,19.7222943 C9.52762162,19.5729648 9.68889822,19.3916884 9.76420399,19.2743488 C7.47377278,20.3835062 4.50584979,22.1645389 6.2909043,23.4976261 C6.38767026,23.5722693 6.53823844,23.6362922 6.71031017,23.7002722 C8.0759588,24.2014913 9.98999123,22.5591248 11.9148621,18.8371097 C14.0332216,18.1439078 15.7430137,17.621319 18.1624662,17.2587231 C20.8077493,19.0397558 22.5820087,19.4023087 23.7863807,18.9437429 C24.119729,18.81574 24.6466526,18.3998275 24.7971775,17.8559121 C23.818636,19.0503761 21.5282048,18.218551 19.7001866,17.0774036 C21.3883884,16.8960842 23.1304358,16.789494 23.8831467,17.024087 C24.8401846,17.322703 24.8079292,17.7919322 24.7971775,17.8559551 C24.8724399,17.6000354 24.980001,17.1840799 24.7756739,16.8534739 C23.9691609,15.5523767 20.2700739,16.3096015 18.9259288,16.4482247 C16.807526,15.1791175 15.345068,12.9181923 14.7536772,11.2864892 C15.3020609,9.1854709 15.8934952,7.66044396 15.4633809,6.14599434 M14.2131176,10.7109497 C13.8230143,9.40705861 13.2792051,6.50956287 14.1540183,5.5734302 C15.8681373,6.49842004 14.8042063,8.69382751 14.2131176,10.7109497 M17.4208614,16.4815307 C15.3080302,16.8610011 13.8735323,17.3922421 11.8162948,18.1837052 C12.4279156,17.0236125 13.5844,14.0636909 14.1404271,12.1120913 C14.9188291,13.6300167 15.8640125,15.115376 17.4208614,16.4815307" id="Shape" fill="#FFFFFF" fill-rule="nonzero"></path>
                </g>
            </g>
        </g>
    </g>
</svg>