<?xml version="1.0" encoding="UTF-8"?>
<svg width="30px" height="30px" viewBox="0 0 30 30" version="1.1" xmlns="http://www.w3.org/2000/svg" xmlns:xlink="http://www.w3.org/1999/xlink">
    <!-- Generator: Sketch 60.1 (88133) - https://sketch.com -->
    <title>Group 9</title>
    <desc>Created with Sketch.</desc>
    <g id="Icons" stroke="none" stroke-width="1" fill="none" fill-rule="evenodd">
        <g id="icons" transform="translate(-302.000000, -1759.000000)">
            <g id="Group-9" transform="translate(302.000000, 1759.000000)">
                <rect id="Rectangle" fill="#005EB8" x="0" y="0" width="30" height="30"></rect>
                <path d="M16.499975,20.9999714 C16.9166405,20.9999714 17.2708066,20.8541382 17.5624724,20.5624724 C17.8541382,20.2708066 17.9999714,19.9166405 17.9999714,19.499975 L17.9999714,19.499975 L17.9999714,17.4999797 L21.0624641,20.5624724 C21.3541299,20.8541382 21.708296,20.9999714 22.1249616,20.9999714 L22.1249616,20.9999714 L22.4999607,20.9999714 C22.9166262,20.9999714 23.2707923,20.8541382 23.5624581,20.5624724 C23.8541239,20.2708066 23.9999571,19.9166405 23.9999571,19.499975 L23.9999571,19.499975 L23.9999571,10.5 C23.9999571,10.0833309 23.8541239,9.72916477 23.5624581,9.43749896 C23.2707923,9.14583314 22.9166262,9 22.4999607,9 L22.4999607,9 L22.1249616,9 C21.708296,9 21.3541299,9.14583314 21.0624641,9.43749896 L21.0624641,9.43749896 L17.9999714,12.5 L17.9999714,10.5 C17.9999714,10.0833309 17.8541382,9.72916477 17.5624724,9.43749896 C17.2708066,9.14583314 16.9166405,9 16.499975,9 L16.499975,9 L7.5,9 C7.08333091,9 6.72916477,9.14583314 6.43749896,9.43749896 C6.14583314,9.72916477 6,10.0833309 6,10.5 L6,10.5 L6,19.499975 C6,19.9166405 6.14583314,20.2708066 6.43749896,20.5624724 C6.72916477,20.8541382 7.08333091,20.9999714 7.5,20.9999714 L7.5,20.9999714 L16.499975,20.9999714 Z" id="v" fill="#FFFFFF" fill-rule="nonzero"></path>
            </g>
        </g>
    </g>
</svg>