<?xml version="1.0" encoding="UTF-8"?>
<svg width="30px" height="30px" viewBox="0 0 30 30" version="1.1" xmlns="http://www.w3.org/2000/svg" xmlns:xlink="http://www.w3.org/1999/xlink">
    <!-- Generator: Sketch 60.1 (88133) - https://sketch.com -->
    <title>Group 8</title>
    <desc>Created with Sketch.</desc>
    <g id="Icons" stroke="none" stroke-width="1" fill="none" fill-rule="evenodd">
        <g id="icons" transform="translate(-39.000000, -1759.000000)">
            <g id="Group-8" transform="translate(39.000000, 1759.000000)">
                <rect id="Rectangle" fill="#425462" x="0" y="0" width="30" height="30"></rect>
                <path d="M22.0624665,24.9999523 C22.3228827,24.9999523 22.544236,24.9088069 22.7265274,24.7265155 C22.9088188,24.544224 22.9999642,24.3228708 22.9999642,24.0624546 L22.9999642,24.0624546 L22.9999642,11.2499851 L17.6874769,11.2499851 C17.4270607,11.2499851 17.2057074,11.1588397 17.023416,10.9765483 C16.8411246,10.7942568 16.7499791,10.5729036 16.7499791,10.3124873 L16.7499791,10.3124873 L16.7499791,5 L14.2499851,5 L14.2499851,6.24999702 L12.9999881,6.24999702 L12.9999881,5 L8.93749776,5 C8.67708152,5 8.45572828,5.09114542 8.27343685,5.27343685 C8.09114542,5.45572828 8,5.67708152 8,5.93749776 L8,5.93749776 L8,24.0624546 C8,24.3228708 8.09114542,24.544224 8.27343685,24.7265155 C8.45572828,24.9088069 8.67708152,24.9999523 8.93749776,24.9999523 L8.93749776,24.9999523 L22.0624665,24.9999523 Z M22.9999642,9.99998808 L22.9999642,9.76561364 C22.9999642,9.50519739 22.9088188,9.28384415 22.7265274,9.10155272 L22.7265274,9.10155272 L18.8984115,5.27343685 C18.7161201,5.09114542 18.4947668,5 18.2343506,5 L18.2343506,5 L17.9999762,5 L17.9999762,9.99998808 L22.9999642,9.99998808 Z M12.9999881,7.49999404 L11.7499911,7.49999404 L11.7499911,6.24999702 L12.9999881,6.24999702 L12.9999881,7.49999404 Z M12.9999881,8.74999106 L12.9999881,7.49999404 L14.2499851,7.49999404 L14.2499851,8.74999106 L12.9999881,8.74999106 Z M13.0195193,20.2343387 C13.3710809,20.2343387 13.6705596,20.1301721 13.9179546,19.9218394 C14.1653497,19.7135068 14.2890475,19.4661111 14.2890475,19.1796537 C14.2890475,18.8931962 14.1653497,18.6458006 13.9179546,18.437468 C13.6705596,18.2291353 13.3710809,18.1249687 13.0195193,18.1249687 C12.6679576,18.1249687 12.368479,18.2291353 12.1210839,18.437468 C11.8736889,18.6458006 11.7499911,18.8931962 11.7499911,19.1796537 C11.7499911,19.4661111 11.8736889,19.7135068 12.1210839,19.9218394 C12.368479,20.1301721 12.6679576,20.2343387 13.0195193,20.2343387 Z M12.9999881,13.7499791 L12.9999881,14.9999762 L13.8984234,14.9999762 C14.0025901,14.9999762 14.0937355,15.0390386 14.1718603,15.1171634 C14.2499851,15.1952882 14.3020681,15.2864336 14.3281099,15.3906002 L14.3281099,15.3906002 L15.0312332,18.7890296 C15.1353999,19.4400699 14.9856602,20.0129848 14.5820156,20.5077755 C14.1783709,21.0025662 13.6510284,21.2499613 12.9999881,21.2499613 C12.3489478,21.2499613 11.8216053,20.9960556 11.4179606,20.4882443 C11.0143159,19.980433 10.8775975,19.4140281 11.0078053,18.7890296 L11.0078053,18.7890296 L11.7499911,14.9999762 L11.7499911,13.7499791 L12.9999881,13.7499791 Z M12.9999881,12.4999821 L14.2499851,12.4999821 L14.2499851,13.7499791 L12.9999881,13.7499791 L12.9999881,12.4999821 Z M12.9999881,11.2499851 L12.9999881,12.4999821 L11.7499911,12.4999821 L11.7499911,11.2499851 L12.9999881,11.2499851 Z M12.9999881,9.99998808 L14.2499851,9.99998808 L14.2499851,11.2499851 L12.9999881,11.2499851 L12.9999881,9.99998808 Z M12.9999881,8.74999106 L12.9999881,9.99998808 L11.7499911,9.99998808 L11.7499911,8.74999106 L12.9999881,8.74999106 Z" id="f" fill="#FFFFFF" fill-rule="nonzero"></path>
            </g>
        </g>
    </g>
</svg>