<?xml version="1.0" encoding="UTF-8"?>
<svg width="65px" height="65px" viewBox="0 0 65 65" version="1.1" xmlns="http://www.w3.org/2000/svg" xmlns:xlink="http://www.w3.org/1999/xlink">
    <!-- Generator: sketchtool 60.1 (101010) - https://sketch.com -->
    <title>E36DDA14-DFBF-4EDD-903D-08E0C4E2B283</title>
    <desc>Created with sketchtool.</desc>
    <g id="Asset-Artboard-Page" stroke="none" stroke-width="1" fill="none" fill-rule="evenodd">
        <g id="Icons/Resource-type/file-lg">
            <g id="Group-4">
                <circle id="Oval" fill="#005EB8" cx="32.5" cy="32.5" r="32.5"></circle>
                <path d="M46.9427083,20.2734375 C47.6475691,20.9661455 48,21.807292 48,22.796875 L48,47.4375 C48,48.427083 47.6475691,49.2682295 46.9427083,49.9609375 C46.2378476,50.6536455 45.3819441,51 44.375,51 L22.625,51 C21.6180559,51 20.7621524,50.6536455 20.0572917,49.9609375 C19.3524309,49.2682295 19,48.427083 19,47.4375 L19,16.5625 C19,15.572917 19.3524309,14.7317705 20.0572917,14.0390625 C20.7621524,13.3463545 21.6180559,13 22.625,13 L38.03125,13 C39.0381941,13 39.8940976,13.3463545 40.5989583,14.0390625 L46.9427083,20.2734375 Z M45.2057292,21.9804688 L38.8619792,15.7460938 C38.7109375,15.5976562 38.5347226,15.473958 38.3333333,15.375 L38.3333333,22.5 L45.5833333,22.5 C45.4826393,22.302083 45.3567708,22.1289062 45.2057292,21.9804688 Z M44.375,48.625 C44.7274309,48.625 45.0169271,48.5136719 45.2434896,48.2910156 C45.4700521,48.0683594 45.5833333,47.7838545 45.5833333,47.4375 L45.5833333,24.875 L37.7291667,24.875 C37.2256941,24.875 36.7977434,24.7018233 36.4453125,24.3554688 C36.0928816,24.0091142 35.9166667,23.588542 35.9166667,23.09375 L35.9166667,15.375 L22.6250029,15.375 C22.2725691,15.375 21.9830729,15.4863281 21.7565104,15.7089844 C21.5299479,15.9316406 21.4166667,16.2161455 21.4166667,16.5625028 L21.4166667,47.4375 C21.4166667,47.7838545 21.5299479,48.0683594 21.7565104,48.2910156 C21.9830729,48.5136719 22.2725691,48.625 22.6250029,48.625 L44.375,48.625 Z" id="f" fill="#FFFFFF" fill-rule="nonzero"></path>
            </g>
        </g>
    </g>
</svg>