<?xml version="1.0" encoding="UTF-8"?>
<svg width="30px" height="30px" viewBox="0 0 30 30" version="1.1" xmlns="http://www.w3.org/2000/svg" xmlns:xlink="http://www.w3.org/1999/xlink">
    <!-- Generator: sketchtool 60.1 (101010) - https://sketch.com -->
    <title>B365F212-1E15-460B-B62C-80CD57C8DD4E</title>
    <desc>Created with sketchtool.</desc>
    <defs>
        <polygon id="path-1" points="0 0.0987522936 28.4047431 0.0987522936 28.4047431 17.6146239 0 17.6146239"></polygon>
    </defs>
    <g id="Asset-Artboard-Page" stroke="none" stroke-width="1" fill="none" fill-rule="evenodd">
        <g id="Icons/File-types/jpeg">
            <g id="Group-16">
                <polygon id="Fill-1" fill="#79D1F6" points="0 29.8725688 29.8722936 29.8725688 29.8722936 0.000275229358 0 0.000275229358"></polygon>
                <g id="Group-15" transform="translate(0.000000, 4.015321)">
                    <path d="M6.44493578,25.8571376 C6.44493578,25.8571376 10.4357615,19.7178716 17.6041101,15.9596147 C25.4162202,11.8633761 29.8724587,11.2325505 29.8724587,11.2325505 L29.8724587,25.8571376 L6.44493578,25.8571376 Z" id="Fill-2" fill="#64A242"></path>
                    <path d="M2.75229358e-05,9.02394495 C2.75229358e-05,9.02394495 7.07782569,10.7617431 13.7422294,14.636422 C23.2326881,20.153945 27.4844312,25.8572477 27.4844312,25.8572477 L2.75229358e-05,25.8572477 L2.75229358e-05,9.02394495 Z" id="Fill-4" fill="#A6CE38"></path>
                    <g id="Group-8" transform="translate(0.000000, 8.256881)">
                        <mask id="mask-2" fill="white">
                            <use xlink:href="#path-1"></use>
                        </mask>
                        <g id="Clip-7"></g>
                        <path d="M26.6135505,17.6146239 C26.5717156,17.5584771 22.6353853,12.3459083 13.3964862,6.97425688 C6.89281651,3.19343119 0.0698807339,1.61719266 -2.75229358e-05,1.59985321 L-2.75229358e-05,0.0987522936 C0.400431193,0.0987522936 7.41465138,1.90480734 14.0881376,5.7847156 C23.5909817,11.3096697 28.2274954,17.362789 28.4047431,17.6003119 L26.6135505,17.6146239 Z" id="Fill-6" fill="#FEFEFE" mask="url(#mask-2)"></path>
                    </g>
                    <path d="M16.7516422,16.4633119 C16.7516422,16.4633119 19.9924679,14.4780826 23.4622844,13.2274404 C26.9323761,11.9765229 29.8723761,11.232578 29.8723761,11.232578" id="Fill-9" fill="#A6CE38"></path>
                    <path d="M17.1110092,17.0500734 L16.3923853,15.8764954 C16.5269725,15.7942018 19.7331193,13.8400734 23.2290826,12.5800734 C26.6906422,11.3324587 29.842844,10.5166789 29.8725688,10.5092477 L29.8725688,11.9434679 C29.8433945,11.9508991 27.0908257,12.6510826 23.6955963,13.8747523 C20.3309174,15.0876881 17.1429358,17.0305321 17.1110092,17.0500734" id="Fill-11" fill="#FEFEFE"></path>
                    <path d="M23.9479266,3.81244954 C23.9479266,5.8989633 22.256367,7.59024771 20.1701284,7.59024771 C18.0836147,7.59024771 16.3923303,5.8989633 16.3923303,3.81244954 C16.3923303,1.72593578 18.0836147,0.0346513761 20.1701284,0.0346513761 C22.256367,0.0346513761 23.9479266,1.72593578 23.9479266,3.81244954" id="Fill-13" fill="#FFF100"></path>
                </g>
            </g>
        </g>
    </g>
</svg>