<svg width="30" height="21" viewBox="0 0 30 21" fill="none" xmlns="http://www.w3.org/2000/svg">
  <path fill-rule="evenodd" clip-rule="evenodd" d="M14.9985 2.91205H13.8219V19.6784C13.8219 20.1101 14.0583 20.507 14.4377 20.7128C14.8158 20.9177 15.2755 20.9001 15.6366 20.6669C15.6372 20.6665 15.6384 20.6658 15.6401 20.6647C15.6419 20.6636 15.6444 20.6621 15.6474 20.6602C15.6597 20.6526 15.6819 20.6391 15.7137 20.6206C15.7774 20.5835 15.8797 20.5262 16.0187 20.4552C16.2969 20.3132 16.7212 20.1172 17.2774 19.919C18.3897 19.5227 20.025 19.1195 22.0757 19.1195C24.1243 19.1195 25.6691 19.5219 26.6841 19.9097C27.1925 20.104 27.5693 20.2952 27.8106 20.4316C27.9312 20.4997 28.0178 20.5541 28.0699 20.5882C28.0959 20.6052 28.1133 20.6172 28.122 20.6232C28.1248 20.6252 28.1267 20.6266 28.1277 20.6273C28.4839 20.8885 28.9568 20.9282 29.3519 20.7296C29.7492 20.5298 30 20.1231 30 19.6784V2.91205C30 2.49677 29.781 2.11224 29.4239 1.90027L28.8234 2.91205C29.4239 1.90027 29.4236 1.90009 29.4233 1.89989L29.4226 1.89947L29.4209 1.89851L29.4169 1.89611L29.4055 1.88946C29.3964 1.88421 29.3845 1.87737 29.3698 1.86903C29.3404 1.85235 29.2997 1.82968 29.2482 1.8019C29.1452 1.74634 28.9986 1.6702 28.8119 1.58046C28.4389 1.40114 27.9037 1.16654 27.2337 0.933196C25.8968 0.467581 24.0034 0 21.7815 0C19.5571 0 17.723 0.468553 16.44 0.939902C15.7979 1.17579 15.2909 1.41344 14.9382 1.59608C14.7617 1.68746 14.6235 1.76529 14.5258 1.82256C14.477 1.85121 14.4382 1.87473 14.4099 1.89227C14.3958 1.90104 14.3842 1.90832 14.3753 1.91399L14.3639 1.92128L14.3596 1.92401L14.3571 1.92563C14.3568 1.92587 14.3564 1.9261 14.9985 2.91205ZM15.6366 3.90053C15.6366 3.90053 15.6368 3.90041 15.6372 3.90016L15.6366 3.90053ZM16.1751 3.60748C16.443 3.47533 16.8053 3.31263 17.2515 3.14874C18.3304 2.75235 19.8878 2.35317 21.7815 2.35317C23.6776 2.35317 25.3052 2.75332 26.4597 3.15544C26.9497 3.3261 27.3508 3.49584 27.6468 3.63266V17.7592C27.6065 17.7434 27.5656 17.7275 27.5241 17.7116C26.2682 17.2317 24.4392 16.7664 22.0757 16.7664C19.7141 16.7664 17.8108 17.2309 16.4876 17.7023C16.3796 17.7408 16.2754 17.7794 16.1751 17.8177V3.60748ZM28.1224 20.6234L28.1232 20.624L28.1245 20.625C28.1238 20.6244 28.1232 20.624 28.1224 20.6234Z" fill="#005EB8"/>
  <path fill-rule="evenodd" clip-rule="evenodd" d="M1.81475 3.90053C1.81475 3.90053 1.81495 3.90041 1.81534 3.90016L1.81475 3.90053ZM2.35317 3.60748C2.62111 3.47533 2.98343 3.31263 3.42956 3.14874C4.50853 2.75235 6.06593 2.35317 7.95961 2.35317C9.85575 2.35317 11.4833 2.75332 12.6378 3.15544C13.1278 3.3261 13.5289 3.49584 13.8249 3.63266V17.7592C13.7846 17.7434 13.7437 17.7275 13.7022 17.7116C12.4463 17.2317 10.6173 16.7664 8.25375 16.7664C5.89217 16.7664 3.98891 17.2309 2.66571 17.7023C2.55768 17.7408 2.45347 17.7794 2.35317 17.8177V3.60748ZM1.81468 20.6669C1.45356 20.9001 0.993909 20.9177 0.615824 20.7128C0.236356 20.507 0 20.1101 0 19.6784V2.91205C0 2.51416 0.201096 2.14323 0.534519 1.9261L1.17659 2.91205C0.534519 1.9261 0.53487 1.92587 0.535231 1.92563L0.53774 1.92401L0.541958 1.92128L0.553373 1.91399C0.562302 1.90832 0.573865 1.90104 0.588026 1.89227C0.616345 1.87473 0.655072 1.85121 0.70391 1.82256C0.801558 1.76529 0.939811 1.68746 1.11628 1.59608C1.46896 1.41344 1.97599 1.17579 2.61809 0.939902C3.90112 0.468553 5.73523 0 7.95961 0C10.1815 0 12.0749 0.467581 13.4118 0.933196C14.0818 1.16654 14.617 1.40114 14.99 1.58046C15.1767 1.6702 15.3233 1.74634 15.4263 1.80189C15.4778 1.82968 15.5185 1.85235 15.5479 1.86903C15.5626 1.87737 15.5745 1.88421 15.5836 1.88946L15.595 1.89611L15.599 1.8985L15.6007 1.89947L15.6014 1.89989C15.6017 1.90009 15.602 1.90027 15.0015 2.91205L15.602 1.90027C15.9591 2.11224 16.1781 2.49677 16.1781 2.91205V19.6784C16.1781 20.1231 15.9273 20.5298 15.53 20.7296C15.1349 20.9282 14.662 20.8885 14.3057 20.6273C14.3048 20.6266 14.3029 20.6252 14.3001 20.6232C14.2914 20.6172 14.274 20.6052 14.248 20.5882C14.1959 20.5541 14.1093 20.4997 13.9887 20.4316C13.7474 20.2952 13.3706 20.104 12.8622 19.9097C11.8472 19.5219 10.3024 19.1195 8.25375 19.1195C6.20314 19.1195 4.56782 19.5227 3.45548 19.919C2.89929 20.1172 2.47502 20.3132 2.1968 20.4552C2.05777 20.5262 1.95552 20.5835 1.89181 20.6206C1.85997 20.6391 1.8378 20.6526 1.82552 20.6602C1.81957 20.6638 1.81594 20.6661 1.81468 20.6669ZM14.3028 20.6251C14.302 20.6245 14.3013 20.624 14.3005 20.6234L14.3013 20.624L14.3028 20.6251Z" fill="#005EB8"/>
</svg>
