<svg width="20" height="13" viewBox="0 0 20 13" fill="none" xmlns="http://www.w3.org/2000/svg">
  <path d="M0 1.16832C0 1.16832 1.79406 0 4.56634 0C7.33861 0 9.30693 1.16832 9.30693 1.16832V12.4554C9.30693 12.4554 7.73465 11.2871 4.76436 11.2871C2.66139 11.2871 1.15446 11.8832 0.443564 12.2139C0.229703 12.3149 0 12.1188 0 11.8812C0 11.7208 0 1.16832 0 1.16832Z" fill="white"/>
  <path d="M20 1.16832C20 1.16832 18.206 0 15.4337 0C12.6614 0 10.6931 1.16832 10.6931 1.16832V12.4554C10.6931 12.4554 12.2654 11.2871 15.2357 11.2871C17.3387 11.2871 18.8456 11.8832 19.5565 12.2139C19.7703 12.3149 20 12.1188 20 11.8812C20 11.7208 20 1.16832 20 1.16832Z" fill="white"/>
</svg>