<svg width="30" height="21" viewBox="0 0 30 21" fill="none" xmlns="http://www.w3.org/2000/svg">
<g clip-path="url(#clip0_2331:6776)">
<path d="M0 1.95619C0 1.95619 2.69109 0 6.8495 0C11.0079 0 13.9604 1.95619 13.9604 1.95619V20.855C13.9604 20.855 11.602 18.8988 7.14653 18.8988C3.99208 18.8988 1.73168 19.8968 0.665347 20.4505C0.344554 20.6196 0 20.2914 0 19.8935C0 19.6249 0 1.95619 0 1.95619Z" fill="#005EB8"/>
<path d="M30 1.95619C30 1.95619 27.3089 0 23.1505 0C18.9921 0 16.0396 1.95619 16.0396 1.95619V20.855C16.0396 20.855 18.398 18.8988 22.8535 18.8988C26.0079 18.8988 28.2683 19.8968 29.3347 20.4505C29.6555 20.6196 30 20.2914 30 19.8935C30 19.6249 30 1.95619 30 1.95619Z" fill="#005EB8"/>
</g>
<defs>
<clipPath id="clip0_2331:6776">
<rect width="30" height="20.855" fill="white"/>
</clipPath>
</defs>
</svg>
