<svg width="50" height="35" viewBox="0 0 50 35" fill="none" xmlns="http://www.w3.org/2000/svg">
  <path fill-rule="evenodd" clip-rule="evenodd" d="M24.9976 4.85696H23.0366V32.8213C23.0366 33.5412 23.4305 34.2034 24.063 34.5465C24.6931 34.8884 25.4592 34.8589 26.0611 34.4701C26.0621 34.4694 26.064 34.4682 26.0669 34.4664C26.07 34.4645 26.074 34.4619 26.0792 34.4588C26.0996 34.4461 26.1366 34.4237 26.1896 34.3927C26.2958 34.3309 26.4662 34.2353 26.698 34.1169C27.1617 33.8801 27.8688 33.5531 28.7957 33.2226C30.6497 32.5616 33.3752 31.8892 36.7929 31.8892C40.2072 31.8892 42.782 32.5603 44.4736 33.2072C45.321 33.5312 45.949 33.8501 46.3512 34.0775C46.5522 34.1912 46.6965 34.2819 46.7833 34.3387C46.8267 34.3672 46.8556 34.3871 46.87 34.3972C46.8748 34.4005 46.878 34.4028 46.8795 34.4039C47.4733 34.8396 48.2615 34.9059 48.92 34.5746C49.5822 34.2414 50.0001 33.563 50.0001 32.8213V4.85696C50.0001 4.16432 49.6352 3.52298 49.04 3.16944L48.0391 4.85696C49.04 3.16944 49.0395 3.16912 49.0389 3.1688L49.0377 3.16809L49.035 3.16649L49.0282 3.16249L49.0092 3.15139C48.9942 3.14265 48.9743 3.13123 48.9498 3.11732C48.9008 3.0895 48.833 3.0517 48.7471 3.00535C48.5754 2.91269 48.3312 2.7857 48.02 2.63603C47.3983 2.33694 46.5062 1.94565 45.3896 1.55646C43.1615 0.779871 40.0058 0 36.3026 0C32.5953 0 29.5385 0.781492 27.4001 1.56765C26.3299 1.96109 25.4849 2.35746 24.8971 2.66207C24.603 2.81449 24.3726 2.94431 24.2098 3.03982C24.1284 3.0876 24.0639 3.12684 24.0167 3.15609C23.9931 3.17071 23.9738 3.18285 23.9589 3.19231L23.9399 3.20448L23.9329 3.20902L23.9287 3.21174C23.9281 3.21213 23.9275 3.21251 24.9976 4.85696ZM26.0612 6.50564C26.0612 6.50564 26.0615 6.50543 26.0622 6.50501L26.0612 6.50564ZM26.9586 6.01686C27.4051 5.79644 28.009 5.52509 28.7526 5.25173C30.5508 4.59061 33.1465 3.92482 36.3026 3.92482C39.4629 3.92482 42.1754 4.59223 44.0997 5.26291C44.9163 5.54755 45.5849 5.83066 46.0781 6.05886V29.6204C46.011 29.5939 45.9428 29.5674 45.8736 29.5409C43.7805 28.7405 40.7322 27.9643 36.7929 27.9643C32.8569 27.9643 29.6848 28.7392 27.4795 29.5254C27.2994 29.5896 27.1257 29.6539 26.9586 29.7179V6.01686ZM46.8708 34.3975L46.8721 34.3984L46.8744 34.4001C46.8731 34.3991 46.8721 34.3984 46.8708 34.3975Z" fill="#D8DDE0"/>
  <path fill-rule="evenodd" clip-rule="evenodd" d="M3.02458 6.50564C3.02458 6.50564 3.02491 6.50543 3.02557 6.50501L3.02458 6.50564ZM3.92195 6.01686C4.36852 5.79644 4.97238 5.52509 5.71593 5.25173C7.51421 4.59061 10.1099 3.92482 13.266 3.92482C16.4262 3.92482 19.1388 4.59223 21.063 5.26291C21.8797 5.54755 22.5482 5.83066 23.0415 6.05886V29.6204C22.9744 29.5939 22.9062 29.5674 22.837 29.5409C20.7439 28.7405 17.6956 27.9643 13.7563 27.9643C9.82029 27.9643 6.64818 28.7392 4.44286 29.5254C4.26279 29.5896 4.08913 29.6539 3.92195 29.7179V6.01686ZM3.02446 34.4701C2.42261 34.8589 1.65652 34.8884 1.02637 34.5465C0.393926 34.2034 0 33.5412 0 32.8213V4.85696C0 4.19333 0.33516 3.57465 0.890865 3.21251L1.96098 4.85696C0.890865 3.21251 0.89145 3.21213 0.892051 3.21174L0.896234 3.20902L0.903264 3.20448L0.922288 3.19231C0.93717 3.18285 0.956442 3.17071 0.980043 3.15609C1.02724 3.12684 1.09179 3.0876 1.17318 3.03982C1.33593 2.94431 1.56635 2.81449 1.86047 2.66207C2.44827 2.35746 3.29331 1.96109 4.36349 1.56765C6.50187 0.781492 9.55872 0 13.266 0C16.9692 0 20.1249 0.779871 22.353 1.55646C23.4696 1.94565 24.3617 2.33694 24.9834 2.63603C25.2945 2.7857 25.5388 2.91269 25.7105 3.00535C25.7964 3.0517 25.8642 3.0895 25.9132 3.11732C25.9377 3.13123 25.9575 3.14265 25.9726 3.15139L25.9916 3.16249L25.9984 3.16649L26.0011 3.16809L26.0023 3.1688C26.0028 3.16912 26.0034 3.16944 25.0025 4.85696L26.0034 3.16944C26.5986 3.52298 26.9634 4.16432 26.9634 4.85696V32.8213C26.9634 33.563 26.5455 34.2414 25.8833 34.5746C25.2248 34.9059 24.4367 34.8396 23.8429 34.4039C23.8413 34.4027 23.8382 34.4005 23.8334 34.3972C23.819 34.3871 23.7901 34.3672 23.7467 34.3387C23.6599 34.2819 23.5156 34.1912 23.3145 34.0775C22.9124 33.8501 22.2843 33.5312 21.437 33.2072C19.7454 32.5603 17.1706 31.8892 13.7563 31.8892C10.3386 31.8892 7.61303 32.5616 5.75913 33.2226C4.83214 33.5531 4.12504 33.8801 3.66133 34.1169C3.42962 34.2353 3.25919 34.3309 3.15302 34.3927C3.09995 34.4237 3.063 34.4461 3.04254 34.4588C3.03261 34.4649 3.02657 34.4687 3.02446 34.4701ZM23.838 34.4003C23.8367 34.3993 23.8355 34.3984 23.8342 34.3975L23.8355 34.3984L23.838 34.4003Z" fill="#D8DDE0"/>
</svg>
