<svg width="21" height="21" viewBox="0 0 28 21" fill="none" xmlns="http://www.w3.org/2000/svg">
  <path d="M11.2778 0.773926H2.33339L0.777832 2.32195V18.5762L2.33339 20.1242H25.6667L26.8334 18.5762V7.35303V5.418L25.6667 4.25698H14.7778L11.2778 0.773926Z" fill="white" stroke="black"/>
  <path d="M25.375 3.48306C26.0859 3.48306 26.6875 3.75517 27.2344 4.24498C27.7266 4.7892 28 5.38785 28 6.09535V18.286C28 19.048 27.7266 19.6466 27.2344 20.1364C26.6875 20.6807 26.0859 20.8983 25.375 20.8983H2.625C1.85938 20.8983 1.25781 20.6807 0.765625 20.1364C0.21875 19.6466 0 19.048 0 18.286V2.61229C0 1.9048 0.21875 1.30615 0.765625 0.761919C1.25781 0.272114 1.85938 0 2.625 0H11.375L14.875 3.48306H25.375ZM26.25 18.286V6.09535C26.25 5.87766 26.1406 5.65997 25.9766 5.4967C25.8125 5.33343 25.5938 5.22459 25.375 5.22459H14.1641L10.6641 1.74153H2.625C2.35156 1.74153 2.13281 1.85037 1.96875 2.01364C1.80469 2.17691 1.75 2.3946 1.75 2.61229V18.286C1.75 18.5582 1.80469 18.7759 1.96875 18.9391C2.13281 19.1024 2.35156 19.1568 2.625 19.1568H25.375C25.5938 19.1568 25.8125 19.1024 25.9766 18.9391C26.1406 18.7759 26.25 18.5582 26.25 18.286Z" fill="#007F3B"/>
  <g opacity="0.2">
    <path d="M10.875 0.777832H2.25L0.75 2.33339V18.6667L2.25 20.2223H24.75L25.875 18.6667V7.38894V5.4445L24.75 4.27783H14.25L10.875 0.777832Z" fill="#007F3B" stroke="black"/>
    <path d="M24.4688 3.5C25.1543 3.5 25.7344 3.77344 26.2617 4.26562C26.7363 4.8125 27 5.41406 27 6.125V18.375C27 19.1406 26.7363 19.7422 26.2617 20.2344C25.7344 20.7812 25.1543 21 24.4688 21H2.53125C1.79297 21 1.21289 20.7812 0.738281 20.2344C0.210938 19.7422 0 19.1406 0 18.375V2.625C0 1.91406 0.210938 1.3125 0.738281 0.765625C1.21289 0.273438 1.79297 0 2.53125 0H10.9688L14.3438 3.5H24.4688ZM25.3125 18.375V6.125C25.3125 5.90625 25.207 5.6875 25.0488 5.52344C24.8906 5.35938 24.6797 5.25 24.4688 5.25H13.6582L10.2832 1.75H2.53125C2.26758 1.75 2.05664 1.85938 1.89844 2.02344C1.74023 2.1875 1.6875 2.40625 1.6875 2.625V18.375C1.6875 18.6484 1.74023 18.8672 1.89844 19.0312C2.05664 19.1953 2.26758 19.25 2.53125 19.25H24.4688C24.6797 19.25 24.8906 19.1953 25.0488 19.0312C25.207 18.8672 25.3125 18.6484 25.3125 18.375Z" fill="#007F3B"/>
  </g>
</svg>
