<svg width="30" height="26" viewBox="0 0 30 26" fill="none" xmlns="http://www.w3.org/2000/svg">
<g clip-path="url(#clip0_384_3106)">
<path d="M2.28 24.45C1.09 24.45 0.119995 23.46 0.119995 22.25V2.83C0.129995 1.61 1.09 0.630005 2.28 0.630005H10.03L12.62 3.37L27.71 3.41001C28.9 3.41001 29.87 4.4 29.87 5.61V22.25C29.87 23.46 28.9 24.45 27.71 24.45H2.28Z" fill="#259BE1"/>
<path d="M9.93 0.75L12.54 3.45L12.61 3.53H27.71C28.83 3.53 29.74 4.46 29.74 5.61V22.25C29.74 23.39 28.83 24.33 27.71 24.33H2.28C1.16 24.33 0.25 23.4 0.25 22.25V2.83C0.25 1.68 1.16 0.75 2.28 0.75H9.93ZM10.04 0.5H2.28C1.02 0.5 0 1.54 0 2.83V22.25C0 23.53 1.02 24.57 2.28 24.57H27.72C28.98 24.57 30 23.53 30 22.24V5.6C30 4.32 28.98 3.27 27.72 3.27H12.72L10.04 0.5Z" fill="#005EB8"/>
<path d="M27.7 4.64999H2.3C1.02974 4.64999 0 5.67974 0 6.94999V23.2C0 24.4702 1.02974 25.5 2.3 25.5H27.7C28.9703 25.5 30 24.4702 30 23.2V6.94999C30 5.67974 28.9703 4.64999 27.7 4.64999Z" fill="#005EB8"/>
</g>
<defs>
<clipPath id="clip0_384_3106">
<rect width="30" height="25" fill="white" transform="translate(0 0.5)"/>
</clipPath>
</defs>
</svg>
