<svg width="21" height="21" viewBox="0 0 28 21" fill="none" xmlns="http://www.w3.org/2000/svg">
  <path d="M25.375 3.49845C26.0859 3.49845 26.6875 3.77177 27.2344 4.26374C27.7266 4.81037 28 5.41167 28 6.12229V18.3669C28 19.1322 27.7266 19.7335 27.2344 20.2254C26.6875 20.7721 26.0859 20.9907 25.375 20.9907H2.625C1.85938 20.9907 1.25781 20.7721 0.765625 20.2254C0.21875 19.7335 0 19.1322 0 18.3669V2.62384C0 1.91322 0.21875 1.31192 0.765625 0.765287C1.25781 0.273317 1.85938 0 2.625 0H11.375L14.875 3.49845H25.375ZM26.25 18.3669V6.12229C26.25 5.90364 26.1406 5.68499 25.9766 5.521C25.8125 5.35701 25.5938 5.24768 25.375 5.24768H14.1641L10.6641 1.74923H2.625C2.35156 1.74923 2.13281 1.85855 1.96875 2.02254C1.80469 2.18653 1.75 2.40519 1.75 2.62384V18.3669C1.75 18.6402 1.80469 18.8588 1.96875 19.0228C2.13281 19.1868 2.35156 19.2415 2.625 19.2415H25.375C25.5938 19.2415 25.8125 19.1868 25.9766 19.0228C26.1406 18.8588 26.25 18.6402 26.25 18.3669Z" fill="#AEB7BD"/>
</svg>
