<svg width="44" height="57" viewBox="0 0 44 57" fill="none" xmlns="http://www.w3.org/2000/svg">
<mask id="path-1-outside-1" maskUnits="userSpaceOnUse" x="0" y="0" width="44" height="57" fill="black">
<rect fill="white" width="44" height="57"/>
<path fill-rule="evenodd" clip-rule="evenodd" d="M40.75 24.1091C41.5312 23.0288 42 21.8046 42 20.4362C42 19.1399 41.5312 17.9157 40.75 16.8354C39.8906 15.7552 38.7969 14.963 37.5469 14.5309C38.0938 13.3786 38.25 12.0823 38.0156 10.786C37.7812 9.48973 37.1562 8.40948 36.1406 7.40125C35.0469 6.46503 33.875 5.8889 32.4688 5.67285C31.0625 5.4568 29.6563 5.60083 28.4063 6.10495C27.9375 4.95268 27.0781 3.94445 25.9063 3.15227C24.7344 2.4321 23.4063 2 22 2C20.5156 2 19.1875 2.4321 18.0156 3.15227C16.8438 3.94445 16.0625 4.95268 15.5938 6.10495C14.2656 5.60083 12.9375 5.4568 11.5312 5.67285C10.125 5.8889 8.875 6.46503 7.85938 7.40125C6.76562 8.40948 6.14062 9.48973 5.90625 10.786C5.67188 12.0823 5.82813 13.3786 6.45312 14.5309C5.125 14.963 4.03125 15.7552 3.25 16.8354C2.39063 17.9157 2 19.1399 2 20.4362C2 21.8046 2.39063 23.0288 3.25 24.1091C4.03125 25.1893 5.125 25.9095 6.45312 26.3416C5.82813 27.5659 5.67188 28.7902 5.90625 30.0865C6.14062 31.3828 6.76562 32.535 7.85938 33.4713C8.875 34.4795 10.125 35.0556 11.5312 35.2717C11.8771 35.3248 12.2181 35.3561 12.5557 35.3647V51.1634L21.4446 41.4332L30.889 50.6513V35.3587C31.41 35.3833 31.9394 35.353 32.4688 35.2717C33.875 35.0556 35.0469 34.4795 36.1406 33.4713C37.1562 32.535 37.7812 31.3828 38.0156 30.0865C38.25 28.7902 38.0938 27.5659 37.5469 26.3416C38.7969 25.9095 39.8906 25.1893 40.75 24.1091Z"/>
</mask>
<path fill-rule="evenodd" clip-rule="evenodd" d="M40.75 24.1091C41.5312 23.0288 42 21.8046 42 20.4362C42 19.1399 41.5312 17.9157 40.75 16.8354C39.8906 15.7552 38.7969 14.963 37.5469 14.5309C38.0938 13.3786 38.25 12.0823 38.0156 10.786C37.7812 9.48973 37.1562 8.40948 36.1406 7.40125C35.0469 6.46503 33.875 5.8889 32.4688 5.67285C31.0625 5.4568 29.6563 5.60083 28.4063 6.10495C27.9375 4.95268 27.0781 3.94445 25.9063 3.15227C24.7344 2.4321 23.4063 2 22 2C20.5156 2 19.1875 2.4321 18.0156 3.15227C16.8438 3.94445 16.0625 4.95268 15.5938 6.10495C14.2656 5.60083 12.9375 5.4568 11.5312 5.67285C10.125 5.8889 8.875 6.46503 7.85938 7.40125C6.76562 8.40948 6.14062 9.48973 5.90625 10.786C5.67188 12.0823 5.82813 13.3786 6.45312 14.5309C5.125 14.963 4.03125 15.7552 3.25 16.8354C2.39063 17.9157 2 19.1399 2 20.4362C2 21.8046 2.39063 23.0288 3.25 24.1091C4.03125 25.1893 5.125 25.9095 6.45312 26.3416C5.82813 27.5659 5.67188 28.7902 5.90625 30.0865C6.14062 31.3828 6.76562 32.535 7.85938 33.4713C8.875 34.4795 10.125 35.0556 11.5312 35.2717C11.8771 35.3248 12.2181 35.3561 12.5557 35.3647V51.1634L21.4446 41.4332L30.889 50.6513V35.3587C31.41 35.3833 31.9394 35.353 32.4688 35.2717C33.875 35.0556 35.0469 34.4795 36.1406 33.4713C37.1562 32.535 37.7812 31.3828 38.0156 30.0865C38.25 28.7902 38.0938 27.5659 37.5469 26.3416C38.7969 25.9095 39.8906 25.1893 40.75 24.1091Z" fill="#FFB81C"/>
<path d="M40.75 24.1091L42.3151 25.3542L42.3437 25.3183L42.3706 25.2811L40.75 24.1091ZM40.75 16.8354L42.3706 15.6634L42.3437 15.6262L42.3151 15.5903L40.75 16.8354ZM37.5469 14.5309L35.74 13.6734L34.7823 15.6913L36.8935 16.4211L37.5469 14.5309ZM38.0156 10.786L39.9837 10.4302L38.0156 10.786ZM36.1406 7.40125L37.5497 5.98188L37.4973 5.92986L37.4412 5.88185L36.1406 7.40125ZM32.4688 5.67285L32.7725 3.69604V3.69604L32.4688 5.67285ZM28.4063 6.10495L26.5537 6.85859L27.305 8.70557L29.1543 7.95979L28.4063 6.10495ZM25.9063 3.15227L27.0263 1.49533L26.9904 1.47103L26.9534 1.44831L25.9063 3.15227ZM18.0156 3.15227L16.9685 1.44831L16.9315 1.47103L16.8955 1.49533L18.0156 3.15227ZM15.5938 6.10495L14.884 7.97478L16.7103 8.66796L17.4463 6.85859L15.5938 6.10495ZM11.5312 5.67285L11.2275 3.69604V3.69604L11.5312 5.67285ZM7.85938 7.40125L9.21493 8.87178L9.21493 8.87178L7.85938 7.40125ZM5.90625 10.786L7.87434 11.1419L5.90625 10.786ZM6.45312 14.5309L7.07189 16.4328L9.35677 15.6894L8.21116 13.5773L6.45312 14.5309ZM3.25 16.8354L4.81514 18.0805L4.84371 18.0446L4.8706 18.0075L3.25 16.8354ZM3.25 24.1091L4.8706 22.9371L4.84371 22.8999L4.81514 22.864L3.25 24.1091ZM6.45312 26.3416L8.23443 27.251L9.29958 25.1645L7.07189 24.4397L6.45312 26.3416ZM5.90625 30.0865L7.87434 29.7306L5.90625 30.0865ZM7.85938 33.4713L9.26841 32.0519L9.21602 31.9999L9.15993 31.9519L7.85938 33.4713ZM11.5312 35.2717L11.835 33.2949L11.835 33.2949L11.5312 35.2717ZM12.5557 35.3647H14.5557V33.4145L12.6061 33.3653L12.5557 35.3647ZM12.5557 51.1634H10.5557V56.318L14.0323 52.5124L12.5557 51.1634ZM21.4446 41.4332L22.8415 40.0019L21.3622 38.558L19.9679 40.0843L21.4446 41.4332ZM30.889 50.6513L29.492 52.0826L32.889 55.3981V50.6513H30.889ZM30.889 35.3587L30.9832 33.361L28.889 33.2622V35.3587H30.889ZM32.4688 35.2717L32.165 33.2949H32.165L32.4688 35.2717ZM36.1406 33.4713L37.4962 34.9418H37.4962L36.1406 33.4713ZM37.5469 26.3416L36.8935 24.4514L34.8306 25.1644L35.7208 27.1573L37.5469 26.3416ZM40 20.4362C40 21.3177 39.7057 22.1402 39.1294 22.9371L42.3706 25.2811C43.3568 23.9175 44 22.2914 44 20.4362H40ZM39.1294 18.0075C39.714 18.8158 40 19.6388 40 20.4362H44C44 18.6411 43.3485 17.0155 42.3706 15.6634L39.1294 18.0075ZM36.8935 16.4211C37.762 16.7214 38.5467 17.2784 39.1849 18.0805L42.3151 15.5903C41.2345 14.2319 39.8317 13.2046 38.2003 12.6406L36.8935 16.4211ZM36.0475 11.1419C36.212 12.0513 36.0973 12.9207 35.74 13.6734L39.3537 15.3884C40.0902 13.8366 40.288 12.1133 39.9837 10.4302L36.0475 11.1419ZM34.7316 8.82062C35.511 9.59431 35.8987 10.3187 36.0475 11.1419L39.9837 10.4302C39.6638 8.66074 38.8015 7.22465 37.5497 5.98188L34.7316 8.82062ZM32.165 7.64965C33.1658 7.8034 33.9995 8.20116 34.8401 8.92064L37.4412 5.88185C36.0942 4.7289 34.5842 3.9744 32.7725 3.69604L32.165 7.64965ZM29.1543 7.95979C30.0447 7.60071 31.0848 7.48368 32.165 7.64965L32.7725 3.69604C31.0402 3.42991 29.2678 3.60095 27.6582 4.25011L29.1543 7.95979ZM24.7862 4.8092C25.6825 5.41514 26.2565 6.12817 26.5537 6.85859L30.2588 5.35131C29.6185 3.77719 28.4737 2.47375 27.0263 1.49533L24.7862 4.8092ZM22 4C22.9872 4 23.9574 4.30207 24.8591 4.85622L26.9534 1.44831C25.5114 0.562132 23.8253 0 22 0V4ZM19.0628 4.85622C19.9543 4.30833 20.924 4 22 4V0C20.1073 0 18.4207 0.555867 16.9685 1.44831L19.0628 4.85622ZM17.4463 6.85859C17.7672 6.06984 18.2952 5.37739 19.1357 4.8092L16.8955 1.49533C15.3923 2.51151 14.3578 3.83552 13.7412 5.35131L17.4463 6.85859ZM11.835 7.64965C12.8963 7.4866 13.8754 7.59195 14.884 7.97478L16.3035 4.23511C14.6558 3.60971 12.9787 3.427 11.2275 3.69604L11.835 7.64965ZM9.21493 8.87178C9.91656 8.225 10.7919 7.8099 11.835 7.64965L11.2275 3.69604C9.4581 3.96789 7.83344 4.70505 6.50382 5.93071L9.21493 8.87178ZM7.87434 11.1419C8.02101 10.3306 8.39605 9.62663 9.21493 8.87178L6.50382 5.93071C5.1352 7.19232 4.26024 8.64882 3.93816 10.4302L7.87434 11.1419ZM8.21116 13.5773C7.82985 12.8743 7.7103 12.0491 7.87434 11.1419L3.93816 10.4302C3.63345 12.1155 3.8264 13.8829 4.69509 15.4845L8.21116 13.5773ZM4.8706 18.0075C5.39526 17.282 6.13279 16.7383 7.07189 16.4328L5.83436 12.629C4.11721 13.1877 2.66724 14.2283 1.6294 15.6634L4.8706 18.0075ZM4 20.4362C4 19.5686 4.25167 18.7888 4.81514 18.0805L1.68486 15.5903C0.529579 17.0425 0 18.7113 0 20.4362H4ZM4.81514 22.864C4.25933 22.1653 4 21.3889 4 20.4362H0C0 22.2202 0.521923 23.8924 1.68486 25.3542L4.81514 22.864ZM7.07189 24.4397C6.07003 24.1138 5.36027 23.6141 4.8706 22.9371L1.6294 25.2811C2.70223 26.7645 4.17997 27.7052 5.83436 28.2435L7.07189 24.4397ZM7.87434 29.7306C7.71482 28.8484 7.81611 28.0704 8.23443 27.251L4.67182 25.4322C3.84014 27.0614 3.62893 28.732 3.93816 30.4423L7.87434 29.7306ZM9.15993 31.9519C8.42482 31.3226 8.02887 30.5853 7.87434 29.7306L3.93816 30.4423C4.25238 32.1802 5.10643 33.7474 6.55882 34.9907L9.15993 31.9519ZM11.835 33.2949C10.7977 33.1355 9.95039 32.7289 9.26841 32.0519L6.45034 34.8906C7.79961 36.2301 9.45227 36.9757 11.2275 37.2485L11.835 33.2949ZM12.6061 33.3653C12.3586 33.3591 12.1022 33.3359 11.835 33.2949L11.2275 37.2485C11.6519 37.3137 12.0777 37.3532 12.5053 37.364L12.6061 33.3653ZM14.5557 51.1634V35.3647H10.5557V51.1634H14.5557ZM19.9679 40.0843L11.0791 49.8145L14.0323 52.5124L22.9212 42.7821L19.9679 40.0843ZM32.286 49.22L22.8415 40.0019L20.0476 42.8644L29.492 52.0826L32.286 49.22ZM28.889 35.3587V50.6513H32.889V35.3587H28.889ZM32.165 33.2949C31.7594 33.3572 31.3635 33.3789 30.9832 33.361L30.7948 37.3565C31.4566 37.3877 32.1194 37.3488 32.7725 37.2485L32.165 33.2949ZM34.7851 32.0007C33.9681 32.7538 33.1576 33.1424 32.165 33.2949L32.7725 37.2485C34.5924 36.9689 36.1256 36.2052 37.4962 34.9418L34.7851 32.0007ZM36.0475 29.7306C35.8912 30.5954 35.4831 31.3573 34.7851 32.0007L37.4962 34.9418C38.8294 33.7128 39.6713 32.1701 39.9837 30.4423L36.0475 29.7306ZM35.7208 27.1573C36.1087 28.0258 36.2081 28.8425 36.0475 29.7306L39.9837 30.4423C40.2919 28.7378 40.0788 27.106 39.373 25.5259L35.7208 27.1573ZM39.1849 22.864C38.5852 23.6178 37.8214 24.1306 36.8935 24.4514L38.2003 28.2319C39.7724 27.6884 41.1961 26.7609 42.3151 25.3542L39.1849 22.864Z" fill="#425563" mask="url(#path-1-outside-1)"/>
<path d="M12.5547 51.1648V30.168H30.888V50.6527L21.4436 41.4346L12.5547 51.1648Z" fill="#007F3B"/>
<path d="M42 20.4362C42 21.8046 41.5312 23.0288 40.75 24.1091C39.8906 25.1893 38.7969 25.9095 37.5469 26.3416C38.0938 27.5659 38.25 28.7902 38.0156 30.0865C37.7812 31.3828 37.1562 32.535 36.1406 33.4713C35.0469 34.4795 33.875 35.0556 32.4688 35.2717C31.0625 35.4877 29.6563 35.3437 28.4063 34.7676C27.9375 35.9918 27.0781 37.0001 25.9063 37.7202C24.7344 38.5124 23.4063 38.8725 22 38.8725C20.5156 38.8725 19.1875 38.5124 18.0156 37.7202C16.8438 37.0001 16.0625 35.9918 15.5938 34.7676C14.2656 35.3437 12.9375 35.4877 11.5312 35.2717C10.125 35.0556 8.875 34.4795 7.85938 33.4713C6.76562 32.535 6.14062 31.3828 5.90625 30.0865C5.67188 28.7902 5.82813 27.5659 6.45312 26.3416C5.125 25.9095 4.03125 25.1893 3.25 24.1091C2.39063 23.0288 2 21.8046 2 20.4362C2 19.1399 2.39063 17.9157 3.25 16.8354C4.03125 15.7552 5.125 14.963 6.45312 14.5309C5.82813 13.3786 5.67188 12.0823 5.90625 10.786C6.14062 9.48973 6.76562 8.40948 7.85938 7.40125C8.875 6.46503 10.125 5.8889 11.5312 5.67285C12.9375 5.4568 14.2656 5.60083 15.5938 6.10495C16.0625 4.95268 16.8438 3.94445 18.0156 3.15227C19.1875 2.4321 20.5156 2 22 2C23.4063 2 24.7344 2.4321 25.9063 3.15227C27.0781 3.94445 27.9375 4.95268 28.4063 6.10495C29.6563 5.60083 31.0625 5.4568 32.4688 5.67285C33.875 5.8889 35.0469 6.46503 36.1406 7.40125C37.1562 8.40948 37.7812 9.48973 38.0156 10.786C38.25 12.0823 38.0938 13.3786 37.5469 14.5309C38.7969 14.963 39.8906 15.7552 40.75 16.8354C41.5312 17.9157 42 19.1399 42 20.4362Z" fill="#FFB81C"/>
<mask id="mask0" mask-type="alpha" maskUnits="userSpaceOnUse" x="2" y="2" width="40" height="37">
<path d="M42 20.4362C42 21.8046 41.5312 23.0288 40.75 24.1091C39.8906 25.1893 38.7969 25.9095 37.5469 26.3416C38.0938 27.5659 38.25 28.7902 38.0156 30.0865C37.7812 31.3828 37.1562 32.535 36.1406 33.4713C35.0469 34.4795 33.875 35.0556 32.4688 35.2717C31.0625 35.4877 29.6563 35.3437 28.4063 34.7676C27.9375 35.9918 27.0781 37.0001 25.9063 37.7202C24.7344 38.5124 23.4063 38.8725 22 38.8725C20.5156 38.8725 19.1875 38.5124 18.0156 37.7202C16.8438 37.0001 16.0625 35.9918 15.5938 34.7676C14.2656 35.3437 12.9375 35.4877 11.5312 35.2717C10.125 35.0556 8.875 34.4795 7.85938 33.4713C6.76562 32.535 6.14062 31.3828 5.90625 30.0865C5.67188 28.7902 5.82813 27.5659 6.45312 26.3416C5.125 25.9095 4.03125 25.1893 3.25 24.1091C2.39063 23.0288 2 21.8046 2 20.4362C2 19.1399 2.39063 17.9157 3.25 16.8354C4.03125 15.7552 5.125 14.963 6.45312 14.5309C5.82813 13.3786 5.67188 12.0823 5.90625 10.786C6.14062 9.48973 6.76562 8.40948 7.85938 7.40125C8.875 6.46503 10.125 5.8889 11.5312 5.67285C12.9375 5.4568 14.2656 5.60083 15.5938 6.10495C16.0625 4.95268 16.8438 3.94445 18.0156 3.15227C19.1875 2.4321 20.5156 2 22 2C23.4063 2 24.7344 2.4321 25.9063 3.15227C27.0781 3.94445 27.9375 4.95268 28.4063 6.10495C29.6563 5.60083 31.0625 5.4568 32.4688 5.67285C33.875 5.8889 35.0469 6.46503 36.1406 7.40125C37.1562 8.40948 37.7812 9.48973 38.0156 10.786C38.25 12.0823 38.0938 13.3786 37.5469 14.5309C38.7969 14.963 39.8906 15.7552 40.75 16.8354C41.5312 17.9157 42 19.1399 42 20.4362Z" fill="#FFB81C"/>
</mask>
<g mask="url(#mask0)">
<path d="M39.2513 39.3846L3.14019 2C0.084636 10.706 -8.52663 26.5817 2.30686 36.824C9.34114 43.4745 29.7143 41.4331 39.2513 39.3846Z" fill="#FFED00"/>
<ellipse cx="22.0002" cy="20.9475" rx="13.8889" ry="12.8029" fill="#E9A40C"/>
<mask id="mask1" mask-type="alpha" maskUnits="userSpaceOnUse" x="8" y="8" width="28" height="26">
<ellipse cx="22.0002" cy="20.9475" rx="13.8889" ry="12.8029" fill="#C4C4C4"/>
</mask>
<g mask="url(#mask1)">
<path d="M37.5853 37.3338L1.47418 -0.0507812C-1.58138 8.65523 -10.1927 24.5309 0.640842 34.7733C7.67513 41.4237 28.0483 39.3823 37.5853 37.3338Z" fill="#FFB81C"/>
</g>
</g>
<path d="M20.816 11.3771C20.9821 11.0708 21.1898 10.8793 21.5221 10.7645C21.8544 10.6879 22.1452 10.6879 22.4775 10.7645C22.8098 10.8793 23.059 11.0708 23.2251 11.3771L25.925 16.4313L31.9894 17.2353C32.3217 17.3119 32.6125 17.4651 32.8201 17.6948C33.0278 17.9628 33.1109 18.2309 33.1109 18.5372C33.1109 18.8435 32.9863 19.1115 32.7371 19.3412L28.3342 23.285L29.3726 28.8753C29.4141 29.1816 29.331 29.4879 29.1649 29.7559C28.9987 30.0239 28.7495 30.1771 28.4172 30.2537C28.0849 30.3302 27.7526 30.292 27.4619 30.1388L22.0206 27.5351L16.5792 30.1388C16.2469 30.292 15.9562 30.3302 15.6239 30.2537C15.2916 30.1771 15.0008 30.0239 14.8347 29.7559C14.6685 29.4879 14.5855 29.1816 14.6685 28.8753L15.7069 23.285L11.304 19.3412C11.0548 19.1115 10.8887 18.8435 10.8887 18.5372C10.8887 18.2309 10.9717 17.9628 11.1794 17.6948C11.3871 17.4651 11.6779 17.3119 12.0517 17.2353L18.1161 16.4313L20.816 11.3771Z" fill="#FFED00"/>
<mask id="mask2" mask-type="alpha" maskUnits="userSpaceOnUse" x="10" y="10" width="24" height="21">
<path d="M20.816 11.3771C20.9821 11.0708 21.1898 10.8793 21.5221 10.7645C21.8544 10.6879 22.1452 10.6879 22.4775 10.7645C22.8098 10.8793 23.059 11.0708 23.2251 11.3771L25.925 16.4313L31.9894 17.2353C32.3217 17.3119 32.6125 17.4651 32.8201 17.6948C33.0278 17.9628 33.1109 18.2309 33.1109 18.5372C33.1109 18.8435 32.9863 19.1115 32.7371 19.3412L28.3342 23.285L29.3726 28.8753C29.4141 29.1816 29.331 29.4879 29.1649 29.7559C28.9987 30.0239 28.7495 30.1771 28.4172 30.2537C28.0849 30.3302 27.7526 30.292 27.4619 30.1388L22.0206 27.5351L16.5792 30.1388C16.2469 30.292 15.9562 30.3302 15.6239 30.2537C15.2916 30.1771 15.0008 30.0239 14.8347 29.7559C14.6685 29.4879 14.5855 29.1816 14.6685 28.8753L15.7069 23.285L11.304 19.3412C11.0548 19.1115 10.8887 18.8435 10.8887 18.5372C10.8887 18.2309 10.9717 17.9628 11.1794 17.6948C11.3871 17.4651 11.6779 17.3119 12.0517 17.2353L18.1161 16.4313L20.816 11.3771Z" fill="#FCF37F"/>
</mask>
<g mask="url(#mask2)">
<rect x="22" y="0.464844" width="16.1111" height="36.8725" fill="#FFFBC1"/>
</g>
</svg>
