<svg width="56" height="56" viewBox="0 0 56 56" fill="none" xmlns="http://www.w3.org/2000/svg">
<path d="M28 28C28 43.464 28 56 28 56C12.536 56 0 43.464 0 28C0 12.536 12.536 0 28 0C28 0 28 12.536 28 28Z" fill="#007F3B"/>
<path d="M54.5 28C54.5 42.1321 43.4377 53.6805 29.5 54.4583L29.5 53.5371L29.5 46.959L29.5 26.32L29.5 7.36101L29.5 1.93788L29.5 1.54174C43.4377 2.31945 54.5 13.8679 54.5 28Z" stroke="#007F3B" stroke-width="3"/>
<path d="M42.0473 14.7655L21.4513 35.3616L12.8341 26.6195L12.821 26.6062L12.8061 26.595C12.4229 26.3077 11.988 26.1627 11.509 26.1627C11.0334 26.1627 10.6275 26.3065 10.3181 26.6128L9.17634 27.6278L9.15753 27.6445L9.14243 27.6646C8.85508 28.0477 8.71008 28.4827 8.71008 28.9616C8.71008 29.4398 8.85542 29.8475 9.16518 30.1575C9.16534 30.1577 9.16549 30.1578 9.16565 30.158L20.1252 41.245L20.1262 41.246C20.5062 41.626 20.95 41.829 21.45 41.829C21.9471 41.829 22.357 41.6273 22.658 41.2345L45.7135 18.4337L45.7145 18.4328C46.0246 18.1227 46.1701 17.7148 46.1701 17.2364C46.1701 16.7575 46.0251 16.3225 45.7377 15.9394L45.7226 15.9192L45.7038 15.9025L44.5749 14.899C44.2742 14.5099 43.8659 14.31 43.3711 14.31C42.8922 14.31 42.4572 14.455 42.0741 14.7423L42.0599 14.753L42.0473 14.7655Z" fill="white" stroke="#007F3B" stroke-width="0.5"/>
<path d="M29 27L42.5 14.5H44L45.5 15.5L46 16.5V18L29 35V27Z" fill="#007F3B"/>
</svg>
