<svg width="28" height="28" viewBox="0 0 28 28" fill="none" xmlns="http://www.w3.org/2000/svg">
<path d="M14 27.5C21.4558 27.5 27.5 21.4558 27.5 14C27.5 6.54416 21.4558 0.5 14 0.5C6.54416 0.5 0.5 6.54416 0.5 14C0.5 21.4558 6.54416 27.5 14 27.5Z" stroke="white"/>
<path d="M27 14C27 21.1797 21.1797 27 14 27C6.8203 27 1 21.1797 1 14C1 6.8203 6.8203 1 14 1C21.1797 1 27 6.8203 27 14Z" fill="#005EB8"/>
<path d="M12.7717 12.748H8V15.2047H12.7717V19.9528H15.2283V15.2047H20V12.748H15.2283V8H12.7717V12.748Z" fill="white"/>
</svg>
