<svg width="50" height="49" viewBox="0 0 50 49" fill="none" xmlns="http://www.w3.org/2000/svg">
<path d="M37.2416 47.8376C37.9268 48.2143 38.6433 48.3085 39.3908 48.1201C40.1384 47.9318 40.7147 47.508 41.1196 46.8488C41.5246 46.1897 41.6647 45.4834 41.5401 44.7301L39.2039 30.9814L49.1093 21.2821C49.67 20.7171 49.9659 20.0579 49.9971 19.3045C50.0282 18.5512 49.8102 17.8606 49.3429 17.2328C48.8757 16.6051 48.2372 16.2284 47.4273 16.1028L33.784 14.1253L27.71 1.69503C27.3362 0.941686 26.7911 0.439454 26.0746 0.188337C25.3582 -0.0627791 24.6418 -0.0627791 23.9254 0.188337C23.2089 0.439454 22.6638 0.941686 22.29 1.69503L16.216 14.1253L2.57271 16.1028C1.76284 16.2284 1.12428 16.6051 0.657049 17.2328C0.189814 17.8606 -0.0282284 18.5512 0.00292014 19.3045C0.0340687 20.0579 0.329985 20.7171 0.890667 21.2821L10.7961 30.9814L8.45988 44.7301C8.33528 45.4834 8.47545 46.1897 8.88039 46.8488C9.28532 47.508 9.86158 47.9318 10.6092 48.1201C11.3567 48.3085 12.0732 48.2143 12.7584 47.8376L25 41.4342L37.2416 47.8376Z" fill="#FFB81C"/>
</svg>
