<svg width="56" height="51" viewBox="0 0 56 51" fill="none" xmlns="http://www.w3.org/2000/svg">
<path d="M1 1H51V51H1V1Z" fill="white"/>
<path d="M38.2416 48.8376C38.9268 49.2143 39.6433 49.3085 40.3908 49.1201C41.1384 48.9318 41.7147 48.508 42.1196 47.8488C42.5246 47.1897 42.6647 46.4834 42.5401 45.7301L40.2039 31.9814L50.1093 22.2821C50.67 21.7171 50.9659 21.0579 50.9971 20.3045C51.0282 19.5512 50.8102 18.8606 50.3429 18.2328C49.8757 17.6051 49.2372 17.2284 48.4273 17.1028L34.784 15.1253L28.71 2.69503C28.3362 1.94169 27.7911 1.43945 27.0746 1.18834C26.3582 0.937221 25.6418 0.937221 24.9254 1.18834C24.2089 1.43945 23.6638 1.94169 23.29 2.69503L17.216 15.1253L3.57271 17.1028C2.76284 17.2284 2.12428 17.6051 1.65705 18.2328C1.18981 18.8606 0.971772 19.5512 1.00292 20.3045C1.03407 21.0579 1.32998 21.7171 1.89067 22.2821L11.7961 31.9814L9.45988 45.7301C9.33528 46.4834 9.47545 47.1897 9.88039 47.8488C10.2853 48.508 10.8616 48.9318 11.6092 49.1201C12.3567 49.3085 13.0732 49.2143 13.7584 48.8376L26 42.4342L38.2416 48.8376Z" fill="white" stroke="#768692"/>
</svg>
