<svg width="24" height="24" viewBox="0 0 24 24" fill="none" xmlns="http://www.w3.org/2000/svg">
<path d="M17.8759 22.9621C18.2049 23.1429 18.5488 23.1881 18.9076 23.0977C19.2664 23.0073 19.543 22.8039 19.7374 22.4874C19.9318 22.171 19.9991 21.832 19.9393 21.4704L18.8179 14.8711L23.5725 10.2154C23.8416 9.9442 23.9836 9.62779 23.9986 9.26618C24.0135 8.90458 23.9089 8.5731 23.6846 8.27176C23.4603 7.97042 23.1538 7.78962 22.7651 7.72935L16.2163 6.78013L13.3008 0.813616C13.1214 0.452009 12.8597 0.210938 12.5158 0.090402C12.1719 -0.030134 11.8281 -0.030134 11.4842 0.090402C11.1403 0.210938 10.8786 0.452009 10.6992 0.813616L7.78367 6.78013L1.2349 7.72935C0.846163 7.78962 0.539657 7.97042 0.315384 8.27176C0.0911108 8.5731 -0.0135496 8.90458 0.00140167 9.26618C0.016353 9.62779 0.158393 9.9442 0.42752 10.2154L5.18211 14.8711L4.06074 21.4704C4.00094 21.832 4.06822 22.171 4.26259 22.4874C4.45696 22.8039 4.73356 23.0073 5.0924 23.0977C5.45123 23.1881 5.79512 23.1429 6.12405 22.9621L12 19.8884L17.8759 22.9621Z" fill="#D8DDE0"/>
</svg>
