<?xml version="1.0" encoding="UTF-8"?>
<svg width="58px" height="47px" viewBox="0 0 58 47" version="1.1" xmlns="http://www.w3.org/2000/svg" xmlns:xlink="http://www.w3.org/1999/xlink">
    <!-- Generator: sketchtool 55 (78076) - https://sketchapp.com -->
    <title>ADFE7278-9EC2-4426-BA39-600D6E07603F</title>
    <desc>Created with sketchtool.</desc>
    <defs>
        <polygon id="path-1" points="0 0 58 0 58 47 0 47"></polygon>
    </defs>
    <g id="00-BRAND-BOOK" stroke="none" stroke-width="1" fill="none" fill-rule="evenodd">
        <g id="Logos" transform="translate(-48.000000, -707.000000)">
            <g id="Logo's/Twitter" transform="translate(48.000000, 707.000000)">
                <mask id="mask-2" fill="white">
                    <use xlink:href="#path-1"></use>
                </mask>
                <g id="Clip-2"></g>
                <path d="M52.0382309,11.7131806 C52.0750609,12.2272424 52.0750609,12.7414013 52.0750609,13.2554631 C52.0750609,28.9342489 40.1144005,47 18.2538986,47 C11.5190911,47 5.26278018,45.0538952 0,41.6759419 C0.956798264,41.7859869 1.87686405,41.8227333 2.87058966,41.8227333 C8.42752198,41.8227333 13.5431774,39.9501215 17.6282773,36.7556089 C12.402327,36.6453695 8.0228801,33.2305724 6.51392545,28.5305238 C7.25003654,28.6405688 7.98605019,28.7140617 8.75899119,28.7140617 C9.82618176,28.7140617 10.8935672,28.5670759 11.8870979,28.3102394 C6.44046049,27.2085258 2.35526318,22.4351787 2.35526318,16.6702601 L2.35526318,16.5233714 C3.93768279,17.4047034 5.7779118,17.9555117 7.7282408,18.0289074 C4.52647423,15.8991675 2.42892301,12.2639888 2.42892301,8.15139769 C2.42892301,5.94835927 3.01761701,3.92885878 4.0480751,2.16629195 C9.89974415,9.36315632 18.6954678,14.0631077 28.5583821,14.5772667 C28.3743299,13.6959346 28.2639376,12.7781478 28.2639376,11.8601665 C28.2639376,5.32405812 33.5634503,0 40.1510356,0 C43.5735868,0 46.6650585,1.43194581 48.8363669,3.74522364 C51.522807,3.23125911 54.0989523,2.23978489 56.3807505,0.88123481 C55.4974172,3.63517865 53.6205531,5.94845649 51.1548976,7.41714877 C53.5469907,7.16021511 55.8656189,6.49907027 58,5.58128342 C56.3810428,7.93121051 54.3567616,10.0240095 52.0382309,11.7131806" id="Fill-1" fill="#29A3EF" fill-rule="evenodd" mask="url(#mask-2)"></path>
            </g>
        </g>
    </g>
</svg>