<?xml version="1.0" encoding="utf-8"?>
<!-- Generator: Adobe Illustrator 26.0.1, SVG Export Plug-In . SVG Version: 6.00 Build 0)  -->
<svg version="1.1" id="Layer_1" xmlns="http://www.w3.org/2000/svg" xmlns:xlink="http://www.w3.org/1999/xlink" x="0px" y="0px"
	 viewBox="0 0 100 100" style="enable-background:new 0 0 100 100;" xml:space="preserve">
<style type="text/css">
	.st0{fill:#6800D7;}
	.st1{fill:#9E23FF;}
	.st2{fill:#390077;}
	.st3{fill:#2B0058;}
	.st4{fill:#D2D8D8;}
	.st5{fill:#FFFFFF;}
	.st6{fill:#EFF4F5;}
	.st7{fill-rule:evenodd;clip-rule:evenodd;fill:#728693;}
</style>
<g>
	<path class="st0" d="M50,100c27.61,0,50-22.39,50-50S77.61,0,50,0S0,22.39,0,50S22.38,100,50,100z"/>
	<path class="st1" d="M97.25,66.39l-51.33-21L19.53,63.06l36.56,36.56c9.28-1.14,18.05-4.86,25.33-10.73
		C88.69,83.01,94.18,75.22,97.25,66.39L97.25,66.39z"/>
	<path class="st2" d="M50,0C37.37-0.02,25.2,4.77,15.96,13.39l70.66,70.65C93.25,76.91,97.65,68,99.28,58.4
		c1.64-9.59,0.44-19.46-3.45-28.38c-3.89-8.92-10.3-16.52-18.44-21.85C69.25,2.84,59.73,0,50,0L50,0z"/>
	<path class="st3" d="M82.3,39.77l-12.83,2.26l-8.26,16.62l25.4,25.4l0.44-0.5l0.35-0.39c0.14-0.17,0.28-0.33,0.43-0.5l0.35-0.4
		l0.41-0.5c0.11-0.14,0.24-0.28,0.35-0.43l0.39-0.5l0.35-0.44l0.38-0.5l0.33-0.45c0.12-0.17,0.25-0.33,0.36-0.5l0.33-0.47
		c0.12-0.17,0.23-0.33,0.34-0.5c0.11-0.17,0.22-0.33,0.33-0.5c0.1-0.18,0.22-0.33,0.32-0.5l0.33-0.5l0.3-0.5
		c0.11-0.18,0.22-0.36,0.33-0.55l0.28-0.47l0.33-0.58l0.26-0.46l0.35-0.65l0.21-0.4c0.14-0.28,0.28-0.55,0.42-0.83l0.12-0.23
		c0.36-0.73,0.69-1.47,1-2.22l0.09-0.22c0.13-0.31,0.25-0.61,0.38-0.9c0.04-0.1,0.08-0.2,0.12-0.3c0.11-0.28,0.21-0.56,0.32-0.85
		l0.12-0.32c0.1-0.28,0.19-0.56,0.29-0.83c0.04-0.11,0.08-0.22,0.11-0.34c0.1-0.28,0.18-0.56,0.27-0.83l0.11-0.35
		c0.09-0.28,0.17-0.57,0.25-0.85c0.03-0.11,0.06-0.22,0.09-0.33c0.08-0.29,0.16-0.58,0.24-0.88c0.03-0.1,0.06-0.2,0.08-0.31
		l0.26-0.85c0-0.09,0.04-0.19,0.07-0.28c0.07-0.33,0.14-0.66,0.21-1l0.05-0.22c0.08-0.36,0.15-0.73,0.21-1.09c0-0.05,0-0.09,0-0.13
		c0.08-0.41,0.14-0.83,0.2-1.24L82.3,39.77z"/>
	<path class="st4" d="M48.68,36.65H21.31c-2,0-3.61,1.62-3.61,3.62v19.58c0,2,1.62,3.61,3.61,3.61h27.38c2,0,3.61-1.62,3.61-3.61
		V40.26C52.3,38.27,50.68,36.65,48.68,36.65z"/>
	<path class="st4" d="M78.68,36.65H51.31c-2,0-3.62,1.62-3.62,3.62v19.58c0,2,1.62,3.61,3.62,3.61h27.37c2,0,3.62-1.62,3.62-3.61
		V40.26C82.3,38.27,80.68,36.65,78.68,36.65z"/>
	<path class="st5" d="M68.76,31.63H31.24c-2.74,0-4.95,2.22-4.95,4.95v26.83c0,2.74,2.22,4.96,4.95,4.96h37.53
		c2.74,0,4.96-2.22,4.96-4.96V36.58C73.72,33.85,71.5,31.63,68.76,31.63z"/>
	<path class="st6" d="M26.28,36.58v26.84c0,1.31,0.52,2.57,1.45,3.5c0.93,0.93,2.18,1.45,3.5,1.46h37.53c0.63,0,1.25-0.12,1.83-0.36
		L34.21,31.63h-3c-1.31,0.01-2.56,0.54-3.48,1.46C26.81,34.02,26.29,35.27,26.28,36.58L26.28,36.58z"/>
	<path class="st7" d="M63.67,59.38c-0.52,0.49-1.21,0.76-1.92,0.74h-23.5c-0.71,0.02-1.4-0.25-1.92-0.74
		c-0.25-0.22-0.45-0.5-0.59-0.81c-0.14-0.31-0.2-0.64-0.2-0.98V42.41c0-0.34,0.06-0.67,0.2-0.98s0.34-0.58,0.59-0.81
		c0.52-0.49,1.21-0.76,1.92-0.74h23.5c0.71-0.02,1.4,0.25,1.92,0.74c0.25,0.22,0.45,0.5,0.59,0.81c0.14,0.31,0.2,0.64,0.2,0.98V57.6
		c0,0.34-0.07,0.67-0.2,0.98C64.12,58.88,63.92,59.16,63.67,59.38L63.67,59.38z M38.25,58.44h23.5c0.24,0.01,0.47-0.07,0.65-0.24
		c0.08-0.08,0.15-0.17,0.19-0.28c0.04-0.1,0.06-0.22,0.06-0.33V42.41c0-0.11-0.02-0.22-0.06-0.33c-0.04-0.1-0.11-0.2-0.19-0.28
		c-0.18-0.16-0.41-0.25-0.65-0.24h-23.5c-0.24-0.01-0.47,0.08-0.65,0.24c-0.08,0.08-0.15,0.17-0.19,0.28
		c-0.04,0.1-0.07,0.22-0.06,0.33V57.6c0,0.11,0.02,0.23,0.06,0.33c0.04,0.1,0.11,0.2,0.19,0.28C37.78,58.36,38.01,58.44,38.25,58.44
		z M41.65,48.74c0.69,0,1.36-0.23,1.89-0.66c0.53-0.43,0.9-1.04,1.04-1.71c0.14-0.67,0.04-1.38-0.28-1.98
		c-0.32-0.61-0.84-1.09-1.48-1.35s-1.34-0.3-2-0.1c-0.66,0.2-1.23,0.62-1.61,1.19c-0.38,0.57-0.56,1.26-0.49,1.94
		c0.07,0.68,0.37,1.33,0.86,1.81c0.27,0.28,0.59,0.5,0.95,0.65C40.88,48.66,41.27,48.74,41.65,48.74L41.65,48.74z M40.75,46.68
		c0.24,0.24,0.56,0.37,0.9,0.37c0.34,0,0.66-0.13,0.89-0.37c0.24-0.24,0.37-0.56,0.37-0.9s-0.13-0.66-0.37-0.9
		c-0.24-0.24-0.56-0.37-0.89-0.37c-0.34,0-0.66,0.13-0.9,0.37c-0.24,0.24-0.37,0.56-0.37,0.9S40.52,46.44,40.75,46.68L40.75,46.68z
		 M60.16,56.75c0.09,0.01,0.18-0.01,0.27-0.04c0.09-0.03,0.16-0.08,0.23-0.14c0.06-0.06,0.12-0.12,0.15-0.2
		c0.03-0.08,0.05-0.16,0.05-0.25v-4.85c0-0.17-0.03-0.34-0.1-0.49c-0.07-0.15-0.17-0.29-0.29-0.4l-4.97-4.64
		c-0.26-0.24-0.6-0.37-0.96-0.36c-0.36-0.01-0.7,0.12-0.96,0.36l-5.37,5l-1.75-1.63c-0.26-0.25-0.6-0.38-0.96-0.37
		c-0.36-0.01-0.7,0.13-0.96,0.37l-4.97,4.64c-0.13,0.11-0.23,0.25-0.3,0.4c-0.07,0.15-0.1,0.32-0.1,0.49v1.47
		c0,0.08,0.02,0.17,0.05,0.25c0.03,0.08,0.08,0.15,0.15,0.2c0.07,0.06,0.15,0.11,0.23,0.14c0.09,0.03,0.18,0.05,0.27,0.04
		L60.16,56.75z M40.96,55.06h18.08v-3.64l-4.5-4.22l-6.33,5.9l-2.71-2.53L41,54.8L40.96,55.06z"/>
	<path class="st5" d="M14.78,55.78c-0.04,0-0.08,0-0.11-0.02c-0.04-0.01-0.07-0.03-0.1-0.06l-5.5-5.45
		c-0.05-0.06-0.08-0.13-0.08-0.21c0-0.08,0.03-0.15,0.08-0.2l5.5-5.44c0.03-0.03,0.06-0.05,0.1-0.06c0.04-0.01,0.07-0.02,0.11-0.02
		c0.04,0,0.08,0,0.11,0.02c0.04,0.01,0.07,0.04,0.09,0.06l0.21,0.2c0.03,0.03,0.05,0.06,0.06,0.09c0.01,0.04,0.02,0.07,0.02,0.11
		c0,0.08-0.03,0.16-0.07,0.23l-5.09,5l5.09,5c0.05,0.07,0.08,0.15,0.07,0.24c0,0.08-0.02,0.15-0.07,0.2l-0.21,0.21
		c-0.03,0.03-0.06,0.05-0.09,0.07C14.86,55.78,14.82,55.78,14.78,55.78L14.78,55.78z"/>
	<path class="st5" d="M85.28,55.71l-0.2-0.21c-0.03-0.03-0.05-0.06-0.06-0.09C85,55.38,85,55.34,85,55.3c0-0.09,0.03-0.17,0.08-0.24
		l5.08-5l-5.08-5C85.03,45,85,44.92,85,44.83c0-0.04,0-0.08,0.02-0.11c0.01-0.04,0.04-0.07,0.06-0.09l0.2-0.2
		c0.03-0.03,0.06-0.05,0.1-0.06c0.04-0.01,0.07-0.02,0.11-0.02c0.04,0,0.08,0,0.11,0.02c0.04,0.01,0.07,0.04,0.09,0.06l5.5,5.44
		c0.05,0.06,0.07,0.13,0.07,0.2c0,0.07-0.03,0.15-0.07,0.21l-5.5,5.45c-0.03,0.03-0.06,0.05-0.09,0.06
		c-0.04,0.01-0.07,0.02-0.11,0.02c-0.04,0-0.08-0.01-0.12-0.03C85.34,55.76,85.31,55.74,85.28,55.71L85.28,55.71z"/>
</g>
</svg>
