<svg width="100" height="100" viewBox="0 0 100 100" fill="none" xmlns="http://www.w3.org/2000/svg">
    <mask id="mask0" mask-type="alpha" maskUnits="userSpaceOnUse" x="0" y="0" width="100" height="100">
        <circle cx="50" cy="50" r="50" fill="#C4C4C4"/>
    </mask>
    <g mask="url(#mask0)">
        <mask id="mask1" mask-type="alpha" maskUnits="userSpaceOnUse" x="-4" y="-4" width="109" height="109">
            <rect x="-4" y="-4" width="108.333" height="108.333" fill="#005EB8"/>
        </mask>
        <g mask="url(#mask1)">
            <rect x="-4" y="-4" width="108.333" height="108.333" fill="#330072"/>
            <rect x="-72.7499" y="51.4166" width="88.9775" height="173.241" transform="rotate(-45 -72.7499 51.4166)" fill="#5E03CE"/>
            <path d="M70.0834 109.333L20 61.4999L67.5 56.4999L107.667 76V106.833L70.0834 109.333Z" fill="#9137FF"/>
            <path d="M109.333 66.3333V109.333L45.1667 47.0417L79.5 36.0001L109.333 66.3333Z" fill="#260154"/>
        </g>
        <rect x="18" y="36" width="65" height="28" rx="6" fill="white"/>
        <rect x="26" y="44" width="49" height="3" fill="#768692"/>
        <rect x="26" y="52" width="35" height="3" fill="#768692"/>
    </g>
</svg>
