<svg width="100" height="100" viewBox="0 0 100 100" fill="none" xmlns="http://www.w3.org/2000/svg">
    <mask id="mask0" mask-type="alpha" maskUnits="userSpaceOnUse" x="0" y="0" width="100" height="100">
        <circle cx="50" cy="50" r="50" fill="#C4C4C4"/>
    </mask>
    <g mask="url(#mask0)">
        <mask id="mask1" mask-type="alpha" maskUnits="userSpaceOnUse" x="-4" y="-4" width="109" height="109">
            <rect x="-4" y="-4" width="108.333" height="108.333" fill="#005EB8"/>
        </mask>
        <g mask="url(#mask1)">
            <rect x="-4" y="-4" width="108.333" height="108.333" fill="#330072"/>
            <rect x="-72.7499" y="51.4166" width="88.9775" height="173.241" transform="rotate(-45 -72.7499 51.4166)" fill="#5E03CE"/>
            <path d="M78 106.833L28 56.4999H67.5L107.667 76V106.833H78Z" fill="#9137FF"/>
            <path d="M109.333 79.0001V109.333L45.1667 47.0417L60 31.5001L109.333 79.0001Z" fill="#260154"/>
        </g>
        <circle cx="45.5" cy="45.5" r="17.5" fill="white"/>
        <path d="M74.707 70.8008C74.9023 70.9961 75 71.2891 75 71.582C75 71.9727 74.9023 72.2656 74.707 72.4609L72.4609 74.6094C72.168 74.9023 71.875 75 71.582 75C71.1914 75 70.9961 74.9023 70.8008 74.6094L58.8867 62.793C58.6914 62.5977 58.5938 62.3047 58.5938 62.0117V60.6445C56.7383 62.207 54.6875 63.4766 52.4414 64.3555C50.0977 65.2344 47.7539 65.625 45.3125 65.625C41.6016 65.625 38.1836 64.7461 35.0586 62.8906C31.9336 61.1328 29.4922 58.6914 27.7344 55.5664C25.8789 52.4414 25 49.0234 25 45.3125C25 41.6016 25.8789 38.2813 27.7344 35.1563C29.4922 32.0313 31.9336 29.5898 35.0586 27.7344C38.1836 25.9766 41.6016 25 45.3125 25C49.0234 25 52.3438 25.9766 55.4688 27.7344C58.5938 29.5898 61.0352 32.0313 62.8906 35.1563C64.6484 38.2813 65.625 41.6016 65.625 45.3125C65.625 47.8516 65.1367 50.1953 64.2578 52.4414C63.3789 54.7852 62.207 56.8359 60.6445 58.5938H62.0117C62.3047 58.5938 62.5977 58.6914 62.793 58.8867L74.707 70.8008ZM45.3125 60.9375C48.0469 60.9375 50.6836 60.2539 53.125 58.8867C55.4688 57.5195 57.4219 55.5664 58.7891 53.125C60.1562 50.7813 60.9375 48.1445 60.9375 45.3125C60.9375 42.5781 60.1562 39.9414 58.7891 37.5C57.4219 35.1563 55.4688 33.2031 53.125 31.8359C50.6836 30.4688 48.0469 29.6875 45.3125 29.6875C42.4805 29.6875 39.8438 30.4688 37.5 31.8359C35.0586 33.2031 33.1055 35.1563 31.7383 37.5C30.3711 39.9414 29.6875 42.5781 29.6875 45.3125C29.6875 48.1445 30.3711 50.7813 31.7383 53.125C33.1055 55.5664 35.0586 57.5195 37.5 58.8867C39.8438 60.2539 42.4805 60.9375 45.3125 60.9375Z" fill="#0483FD"/>
        <circle cx="42" cy="40" r="3" fill="#FE5347"/>
        <circle cx="52" cy="46" r="3" fill="#01B655"/>
        <circle cx="42" cy="51" r="3" fill="#FFB81C"/>
    </g>
</svg>
