<?xml version="1.0" standalone="no"?>
<!DOCTYPE svg PUBLIC "-//W3C//DTD SVG 20010904//EN"
 "http://www.w3.org/TR/2001/REC-SVG-20010904/DTD/svg10.dtd">
<svg version="1.0" xmlns="http://www.w3.org/2000/svg"
 width="1024.000000pt" height="1024.000000pt" viewBox="0 0 1024.000000 1024.000000"
 preserveAspectRatio="xMidYMid meet">
<metadata>
Created by potrace 1.11, written by Peter Selinger 2001-2013
</metadata>
<g transform="translate(0.000000,1024.000000) scale(0.100000,-0.100000)"
fill="#000000" stroke="none">
<path d="M0 5120 l0 -5120 5120 0 5120 0 0 5120 0 5120 -5120 0 -5120 0 0
-5120z m8790 1499 c210 -19 451 -71 509 -108 11 -7 -4 -62 -79 -292 -50 -156
-94 -286 -95 -287 -2 -2 -40 10 -85 27 -243 94 -589 125 -847 76 -177 -34
-272 -120 -273 -248 0 -137 84 -209 395 -335 241 -99 296 -125 393 -188 190
-124 297 -279 332 -481 20 -113 8 -327 -24 -437 -77 -260 -234 -436 -500 -561
-363 -172 -897 -213 -1422 -110 -144 28 -355 82 -365 93 -4 4 34 138 83 299
l91 292 56 -29 c31 -15 101 -42 156 -59 348 -106 756 -102 968 11 180 96 221
305 88 438 -63 63 -141 104 -372 199 -313 127 -413 184 -517 295 -122 130
-166 253 -165 456 1 138 19 246 60 350 127 318 433 520 893 589 146 22 531 28
720 10z m-5966 -1047 c203 -685 303 -1008 308 -995 4 10 98 463 208 1006 110
544 202 993 206 998 6 11 721 12 728 1 3 -5 -577 -2760 -609 -2889 l-5 -23
-488 0 -487 0 -299 993 c-165 545 -303 999 -307 1007 -7 13 -8 13 -13 0 -3 -8
-94 -454 -201 -990 -108 -536 -198 -983 -201 -992 -5 -17 -31 -18 -373 -18
l-367 0 307 1437 c169 790 310 1447 314 1460 l5 23 487 -2 487 -3 300 -1013z
m2526 1006 c0 -7 -51 -258 -113 -558 l-113 -545 460 -3 c252 -1 461 -1 463 1
2 2 48 222 103 488 55 266 107 517 116 557 l15 72 390 0 c214 0 389 -3 389 -7
0 -5 -136 -662 -302 -1460 l-302 -1453 -392 0 c-368 0 -392 1 -388 18 8 31
254 1222 254 1227 0 8 -918 6 -923 -2 -3 -5 -63 -286 -133 -625 l-128 -618
-392 0 c-368 0 -392 1 -388 18 2 9 137 656 300 1437 162 781 297 1430 301
1443 l5 22 389 0 c305 0 389 -3 389 -12z"/>
</g>
</svg>
