<svg width="40" height="40" viewBox="0 0 40 40" fill="none" xmlns="http://www.w3.org/2000/svg">
<circle cx="20" cy="20" r="20" fill="#007F3B"/>
<path d="M17.7148 17.7148C18.1445 17.3242 18.6133 16.9727 19.1211 16.6992C19.3164 16.6211 19.5117 16.6211 19.668 16.7773L19.8242 16.9336C20.1758 17.2852 20.3711 17.6758 20.4102 18.1445C20.4492 18.3789 20.3711 18.5352 20.1367 18.6133C19.8242 18.7695 19.5117 19.0039 19.2383 19.2383C18.6133 19.9023 18.3008 20.6836 18.3008 21.582C18.3008 22.5195 18.6133 23.2617 19.2383 23.8867L22.207 26.8164C22.832 27.4805 23.6133 27.793 24.5117 27.793C25.4492 27.793 26.2305 27.4805 26.8555 26.8555C27.4805 26.2305 27.793 25.4492 27.793 24.5117C27.793 23.6133 27.4805 22.832 26.8164 22.207L25.0586 20.4102C24.9414 20.293 24.9023 20.1367 24.9023 19.9805C25.0586 19.5117 25.0977 19.0039 25.0977 18.4961C25.0977 18.3008 25.2148 18.1445 25.4102 18.0664C25.6055 17.9883 25.7617 18.0273 25.918 18.1836L28.3789 20.6445C29.082 21.3477 29.5898 22.168 29.8242 23.1055C30.0586 24.043 30.0586 24.9805 29.8242 25.918C29.5898 26.8555 29.082 27.6758 28.3789 28.3789C27.6758 29.082 26.8555 29.5898 25.918 29.8242C24.9805 30.0586 24.043 30.0586 23.1055 29.8242C22.168 29.5898 21.3477 29.082 20.6445 28.3789L19.0039 26.7383C18.0273 25.7617 17.4805 25.1758 17.3242 25.0195C16.7773 24.3164 16.3867 23.5352 16.2305 22.6367C16.0742 21.7773 16.1133 20.8789 16.3477 20.0195C16.6211 19.1602 17.0898 18.3789 17.7148 17.7148ZM11.582 11.582C10.8789 12.2852 10.4102 13.1055 10.1758 14.043C9.94141 14.9805 9.94141 15.918 10.1758 16.8555C10.4102 17.793 10.8789 18.6133 11.582 19.3164L14.043 21.7773C14.1992 21.9336 14.3945 21.9727 14.5898 21.8945C14.7852 21.8164 14.8633 21.6992 14.8633 21.4648C14.8633 20.9961 14.9414 20.4883 15.0586 19.9805C15.0977 19.8242 15.0586 19.707 14.9023 19.5508L13.1445 17.7539C12.5195 17.1289 12.168 16.3867 12.168 15.4492C12.168 14.5508 12.5195 13.7695 13.1445 13.1445C13.7695 12.5195 14.5508 12.168 15.4492 12.168C16.3867 12.168 17.1289 12.5195 17.7539 13.1445L20.7227 16.0742C21.3477 16.6992 21.6602 17.4805 21.6602 18.3789C21.6602 19.3164 21.3477 20.0977 20.7227 20.7227C20.4883 20.9961 20.1758 21.1914 19.8242 21.3477C19.6289 21.4648 19.5508 21.6211 19.5508 21.8164C19.6289 22.2852 19.8242 22.7148 20.1367 23.0273L20.293 23.1836C20.4883 23.3398 20.6836 23.3789 20.8398 23.2617C21.3867 23.0273 21.8555 22.6758 22.2461 22.2461C22.9102 21.6211 23.3789 20.8398 23.6133 19.9805C23.8867 19.1211 23.9258 18.2227 23.7695 17.3242C23.6133 16.4648 23.2227 15.6445 22.6367 14.9414C22.5195 14.7852 21.9727 14.2383 20.957 13.2227L19.3164 11.582C18.6133 10.8789 17.793 10.4102 16.8555 10.1758C15.918 9.94141 14.9805 9.94141 14.043 10.1758C13.1055 10.4102 12.2852 10.8789 11.582 11.582Z" fill="white"/>
</svg>
