<svg width="40" height="40" viewBox="0 0 40 40" fill="none" xmlns="http://www.w3.org/2000/svg">
<circle cx="20" cy="20" r="20" fill="#0077B5"/>
<path fill-rule="evenodd" clip-rule="evenodd" d="M11.0993 29H14.8759V15.0484H11.0993V29ZM15 11.1682C15 12.3661 14.2297 13.3365 12.9626 13.3365C11.7703 13.3365 11 12.3661 11 11.1682C11 9.94151 11.7949 9 13.0122 9C14.2297 9 14.9753 9.94151 15 11.1682Z" fill="white"/>
<path fill-rule="evenodd" clip-rule="evenodd" d="M18.1108 19.676C18.1108 17.9682 18.0553 16.5405 18 15.3082H21.6664L21.8611 17.2122H21.9443C22.4998 16.316 23.8611 15 26.1389 15C28.9169 15 31 16.8763 31 20.9081V29H26.7778V21.4121C26.7778 19.6482 26.1665 18.4444 24.6387 18.4444C23.472 18.4444 22.7778 19.2563 22.4722 20.0401C22.3611 20.3199 22.333 20.712 22.333 21.1043V29H18.1108V19.676Z" fill="white"/>
</svg>
