<svg width="40" height="40" viewBox="0 0 40 40" fill="none" xmlns="http://www.w3.org/2000/svg">
<circle cx="20" cy="20" r="20" fill="#1DA1F2"/>
<path fill-rule="evenodd" clip-rule="evenodd" d="M17.6044 29C25.5292 29 29.863 22.4602 29.863 16.7895C29.863 16.6036 29.8592 16.4186 29.8507 16.2346C30.6919 15.629 31.4231 14.8732 32 14.0126C31.228 14.3542 30.3972 14.5844 29.5258 14.6882C30.4153 14.157 31.0983 13.3163 31.4203 12.3143C30.5876 12.8058 29.666 13.1634 28.6846 13.3559C27.8984 12.5218 26.7786 12 25.5396 12C23.1601 12 21.2305 13.922 21.2305 16.2913C21.2305 16.6281 21.2684 16.9556 21.3423 17.2698C17.7617 17.0905 14.5864 15.3827 12.4617 12.786C12.0913 13.4201 11.8781 14.157 11.8781 14.943C11.8781 16.4319 12.6388 17.7463 13.7954 18.5153C13.0887 18.4936 12.4247 18.3001 11.844 17.9783C11.8431 17.9962 11.8431 18.0142 11.8431 18.0331C11.8431 20.1118 13.3284 21.8469 15.2997 22.2404C14.9378 22.3385 14.5571 22.3915 14.1639 22.3915C13.8863 22.3915 13.6163 22.364 13.354 22.314C13.9025 24.019 15.4929 25.2598 17.379 25.2947C15.904 26.4459 14.0464 27.1318 12.0278 27.1318C11.6801 27.1318 11.3373 27.112 11 27.0723C12.9069 28.2896 15.1709 29 17.6044 29Z" fill="white"/>
</svg>
