<svg width="32" height="32" viewBox="0 0 32 32" fill="none" xmlns="http://www.w3.org/2000/svg">
    <path d="M16 32C24.9086 32 32 24.7313 32 16C32 7.2687 24.9086 0 16 0C7.04709 0 0 7.31302 0 16C0 24.8643 7.2687 32 16 32ZM16 28.8975C9.3518 28.8975 3.90028 23.5789 3.90028 16C3.90028 8.68698 9.17451 3.10249 15.9557 3.10249C23.0028 3.10249 28.0997 8.81995 28.0997 16C28.0997 23.5346 22.6482 28.8975 16 28.8975ZM20.831 18.8366C20.4765 21.4072 18.615 22.6482 16.3989 22.6482C12.8532 22.6482 10.6814 19.8116 10.6814 15.9114C10.6814 12.144 12.6759 9.44044 16.3102 9.44044C18.615 9.44044 20.3878 10.8144 20.831 12.9861H24.0665C23.5346 8.90859 20.3878 6.33795 16.2659 6.33795C10.5042 6.33795 7.31302 10.5928 7.31302 16C7.31302 21.6288 10.9474 25.7507 16.3989 25.7507C20.2992 25.7507 23.4017 23.0914 24.0665 18.8366H20.831Z" fill="black"/>
</svg>