<svg width="32" height="32" viewBox="0 0 32 32" fill="none" xmlns="http://www.w3.org/2000/svg">
    <path d="M15.95 0C20.45 0 24.25 1.55 27.3 4.65C30.45 7.75 32 11.5 32 16C32 20.5 30.5 24.25 27.45 27.25C24.2 30.4 20.35 32 15.95 32C11.65 32 7.85 30.45 4.7 27.3C1.55 24.15 0 20.4 0 16C0 11.6 1.55 7.85 4.7 4.65C7.8 1.55 11.55 0 15.95 0ZM16.05 2.9C12.4 2.9 9.35 4.2 6.8 6.75C4.2 9.4 2.9 12.5 2.9 16C2.9 19.55 4.2 22.6 6.8 25.2C9.4 27.8 12.5 29.1 16.05 29.1C19.6 29.1 22.7 27.8 25.35 25.2C27.85 22.8 29.1 19.7 29.1 16.05C29.1 12.4 27.8 9.3 25.25 6.75C22.75 4.15 19.65 2.9 16.05 2.9ZM20.3 12.05V18.6H18.5V26.35H13.5V18.55H11.65V12.05C11.65 11.75 11.75 11.5 11.95 11.3C12.15 11.1 12.4 11 12.7 11H19.25C19.5 11 19.75 11.1 19.95 11.3C20.2 11.5 20.3 11.75 20.3 12.05ZM13.75 7.9C13.75 6.4 14.5 5.65 16 5.65C17.5 5.65 18.25 6.4 18.25 7.9C18.25 9.4 17.5 10.15 16 10.15C14.5 10.15 13.75 9.4 13.75 7.9Z" fill="black"/>
</svg>