<svg width="64" height="64" viewBox="0 0 64 64" fill="none" xmlns="http://www.w3.org/2000/svg">
    <path d="M32.3 60.7999C48.2058 60.7999 61.1 47.9058 61.1 32C61.1 16.0941 48.2058 3.19995 32.3 3.19995C16.3942 3.19995 3.5 16.0941 3.5 32C3.5 47.9058 16.3942 60.7999 32.3 60.7999Z" fill="white"/>
    <path d="M31.9 0C40.9 0 48.5 3.1 54.8 9.4C57.8 12.4 60.1 15.8 61.7 19.7C63.3 23.6 64 27.7 64 32C64 36.4 63.2 40.5 61.7 44.3C60.2 48.1 57.9 51.5 54.9 54.4C51.8 57.5 48.2 59.8 44.3 61.5C40.3 63.1 36.2 64 32 64C27.8 64 23.7 63.2 19.9 61.6C16 60 12.6 57.6 9.5 54.6C6.4 51.6 4 48 2.4 44.2C0.8 40.4 0 36.3 0 32C0 27.8 0.8 23.7 2.4 19.8C4 15.9 6.4 12.4 9.5 9.3C15.6 3.1 23.1 0 31.9 0ZM32.1 5.8C24.8 5.8 18.6 8.4 13.6 13.5C11.1 16 9.2 18.8 7.8 22C6.4 25.2 5.8 28.5 5.8 32C5.8 35.4 6.5 38.7 7.8 41.9C9.2 45.1 11.1 47.9 13.6 50.4C16.1 52.9 19 54.8 22.1 56.1C25.3 57.4 28.6 58.1 32 58.1C35.4 58.1 38.8 57.4 42 56.1C45.2 54.8 48.1 52.8 50.7 50.3C55.7 45.4 58.2 39.3 58.2 32C58.2 28.5 57.6 25.1 56.3 21.9C55 18.7 53.1 15.9 50.6 13.4C45.5 8.3 39.3 5.8 32.1 5.8ZM31.7 26.7L27.4 28.9C26.9 27.9 26.4 27.3 25.7 26.9C25 26.5 24.4 26.3 23.8 26.3C20.9 26.3 19.5 28.2 19.5 32C19.5 33.7 19.9 35.1 20.6 36.1C21.3 37.1 22.4 37.6 23.8 37.6C25.7 37.6 27 36.7 27.7 34.9L31.6 36.9C30.8 38.5 29.6 39.7 28.1 40.6C26.6 41.5 25 41.9 23.2 41.9C20.3 41.9 18 41 16.3 39.3C14.5 37.5 13.7 35.1 13.7 32C13.7 29 14.6 26.5 16.4 24.7C18.2 22.9 20.4 22 23.1 22C27.1 22.1 29.9 23.6 31.7 26.7ZM50.1 26.7L45.9 28.9C45.4 27.9 44.9 27.3 44.2 26.9C43.5 26.5 42.9 26.3 42.3 26.3C39.4 26.3 38 28.2 38 32C38 33.7 38.4 35.1 39.1 36.1C39.8 37.1 40.9 37.6 42.3 37.6C44.2 37.6 45.5 36.7 46.2 34.9L50.2 36.9C49.3 38.5 48.1 39.7 46.7 40.6C45.2 41.5 43.6 41.9 41.8 41.9C38.9 41.9 36.6 41 34.9 39.3C33.2 37.5 32.3 35.1 32.3 32C32.3 29 33.2 26.5 35 24.7C36.8 22.9 39 22 41.7 22C45.6 22.1 48.4 23.6 50.1 26.7Z" fill="black"/>
</svg>