<svg width="32" height="32" viewBox="0 0 32 32" fill="none" xmlns="http://www.w3.org/2000/svg">
    <path d="M15.95 0C20.45 0 24.2 1.55 27.3 4.65C30.45 7.75 32 11.5 32 16C32 20.5 30.5 24.25 27.45 27.25C24.2 30.4 20.4 32 15.95 32C11.65 32 7.85 30.45 4.7 27.3C1.55 24.15 0 20.4 0 16C0 11.65 1.55 7.85 4.7 4.65C7.8 1.55 11.55 0 15.95 0ZM16.05 2.9C12.4 2.9 9.35 4.2 6.8 6.75C4.2 9.4 2.9 12.5 2.9 16C2.9 19.55 4.2 22.65 6.8 25.2C9.4 27.8 12.5 29.1 16.05 29.1C19.6 29.1 22.7 27.8 25.35 25.2C27.85 22.75 29.1 19.7 29.1 16.05C29.1 12.4 27.8 9.3 25.25 6.8C22.75 4.15 19.65 2.9 16.05 2.9ZM22.05 12.25V15H10.45V12.25H22.05ZM22.05 17.35V20.1H10.45V17.35H22.05Z" fill="black"/>
</svg>