<svg width="32" height="32" viewBox="0 0 32 32" fill="none" xmlns="http://www.w3.org/2000/svg">
    <path d="M27.35 4.65C24.25 1.55 20.45 0 16 0C11.55 0 7.8 1.55 4.75 4.65C1.55 7.85 0 11.65 0 16C0 20.35 1.55 24.15 4.75 27.3C7.9 30.45 11.65 32 16 32C20.4 32 24.2 30.4 27.45 27.25C30.5 24.25 32 20.5 32 16C32 11.5 30.45 7.75 27.35 4.65ZM25.35 25.15C22.7 27.75 19.6 29.05 16 29.05C12.4 29.05 9.35 27.75 6.75 25.15C4.15 22.55 2.9 19.55 2.9 16C2.9 14.5 3.15 13.1 3.6 11.75L7.85 13.65H7.5V15.5H9C9 15.75 8.95 16.05 8.95 16.3V16.75H7.5V18.65H9.25C9.5 20.05 10.05 21.2 10.75 22.15C12.25 24.15 14.65 25.2 17.3 25.2C19 25.2 20.55 24.7 21.5 24.2L20.85 21.25C20.3 21.55 19.05 21.95 17.8 21.95C16.45 21.95 15.2 21.55 14.35 20.6C13.95 20.15 13.65 19.55 13.45 18.7H19.25L27.5 22.35C26.95 23.35 26.25 24.3 25.35 25.15ZM19.95 15.5H20.2V13.6H15.65L13.8 12.8C13.95 12.45 14.15 12.1 14.35 11.85C15.2 10.85 16.35 10.4 17.65 10.4C18.85 10.4 19.95 10.75 20.6 11.05L21.35 8C20.4 7.55 18.95 7.2 17.35 7.2C14.85 7.2 12.7 8.2 11.15 9.95C10.8 10.35 10.5 10.8 10.25 11.25L5 8.9C5.5 8.15 6.1 7.4 6.8 6.7C9.3 4.15 12.4 2.85 16 2.85C19.65 2.85 22.7 4.15 25.25 6.7C27.8 9.25 29.1 12.35 29.1 16C29.1 17.2 28.95 18.35 28.7 19.4L19.95 15.5Z" fill="black"/>
</svg>