<svg width="32" height="32" viewBox="0 0 32 32" fill="none" xmlns="http://www.w3.org/2000/svg">
    <path d="M15.95 0C20.45 0 24.2 1.55 27.3 4.65C30.45 7.75 32 11.5 32 16C32 20.5 30.5 24.25 27.45 27.25C24.2 30.4 20.4 32 15.95 32C11.65 32 7.85 30.45 4.7 27.3C1.55 24.15 0 20.4 0 16C0 11.65 1.55 7.85 4.7 4.65C7.8 1.55 11.55 0 15.95 0ZM16.05 2.9C12.4 2.9 9.35 4.2 6.8 6.75C4.2 9.4 2.9 12.5 2.9 16C2.9 19.55 4.2 22.65 6.8 25.2C9.4 27.8 12.5 29.1 16.05 29.1C19.6 29.1 22.7 27.8 25.35 25.2C27.85 22.75 29.1 19.7 29.1 16.05C29.1 12.4 27.8 9.3 25.25 6.8C22.75 4.15 19.65 2.9 16.05 2.9ZM8.9 13.75C9.2 11.8 10 10.25 11.25 9.2C12.55 8.1 14.1 7.6 15.9 7.6C18.4 7.6 20.4 8.4 21.9 10.05C23.4 11.65 24.15 13.75 24.15 16.3C24.15 18.75 23.4 20.8 21.85 22.45C20.3 24.1 18.3 24.9 15.85 24.9C14.05 24.9 12.5 24.35 11.15 23.25C9.85 22.15 9.05 20.6 8.8 18.6H12.85C12.95 20.55 14.1 21.5 16.35 21.5C17.45 21.5 18.4 21 19.05 20.05C19.75 19.1 20.1 17.8 20.1 16.15C20.1 14.45 19.8 13.15 19.15 12.3C18.5 11.4 17.6 10.95 16.45 10.95C14.3 10.95 13.1 11.9 12.85 13.8H14L10.85 16.95L7.7 13.8L8.9 13.75Z" fill="black"/>
</svg>