<?xml version="1.0" encoding="UTF-8"?>
<svg width="45px" height="27px" viewBox="0 0 45 27" version="1.1" xmlns="http://www.w3.org/2000/svg" xmlns:xlink="http://www.w3.org/1999/xlink">
    <!-- Generator: Sketch 60 (88103) - https://sketch.com -->
    <title>Icons/System/community-resource</title>
    <desc>Created with Sketch.</desc>
    <g id="11-Expanded-cards" stroke="none" stroke-width="1" fill="none" fill-rule="evenodd">
        <g id="image-(1440)" transform="translate(-61.000000, -339.000000)">
            <g id="Group-2" transform="translate(44.000000, 322.000000)">
                <g id="Icons/System/community-resource" transform="translate(17.000000, 17.000000)">
                    <g id="community-resource">
                        <path d="M9.42185254,24.749941 L4.35936461,24.749941 C3.14061787,24.749941 2.10936997,24.328067 1.26562198,23.484319 C0.421873994,22.640571 -1.77635684e-15,21.6093231 -1.77635684e-15,20.3905764 L-1.77635684e-15,18.1405817 C-1.77635684e-15,16.921835 0.328124575,15.7733995 0.984372653,14.6952775 C1.73437122,13.4765307 2.78905621,12.6093446 4.14842761,12.0937212 C3.6328042,11.1562238 3.37499195,10.1249759 3.37499195,8.99997854 C3.37499195,7.12498266 4.03124003,5.53123717 5.34373726,4.21873994 C6.65623449,2.90624271 8.24997997,2.24999464 10.1249759,2.24999464 C11.5312225,2.24999464 12.8202816,2.64843154 13.9921541,3.44530429 C13.3827802,4.61717685 13.0312186,5.85936067 12.9374692,7.1718579 C12.6562198,6.70310866 12.2577829,6.32810991 11.7421595,6.04686058 C11.2265361,5.76561125 10.6874745,5.62498659 10.1249759,5.62498659 C9.18747845,5.62498659 8.39060464,5.95311116 7.73435656,6.60935924 C7.07810848,7.26560732 6.74998391,8.06248114 6.74998391,8.99997854 C6.74998391,9.93747595 7.07810848,10.7343498 7.73435656,11.3905978 C8.39060464,12.0468459 9.18747845,12.3749705 10.1249759,12.3749705 C10.5468499,12.3749705 10.9452868,12.3046582 11.3202855,12.1640335 C10.9921609,12.5390322 10.6874745,12.9374692 10.4062252,13.3593431 C9.93747595,14.0624665 9.58591429,14.8359021 9.3515402,15.6796501 C8.4140428,15.5859007 7.54685665,15.3046514 6.74998391,14.8359021 L5.62498659,15.1874638 C4.96873851,15.3749637 4.42967694,15.7382434 4.00780294,16.2773049 C3.58592895,16.8163665 3.37499195,17.4374584 3.37499195,18.1405817 L3.37499195,20.3905764 C3.37499195,20.6718257 3.46874137,20.9061998 3.65624128,21.0936997 C3.84374119,21.2811996 4.07811528,21.374949 4.35936461,21.374949 L8.99997854,21.374949 L8.99997854,22.429634 C8.99997854,23.2265068 9.14060321,23.9999424 9.42185254,24.749941 Z" id="Path" fill="#007F3B" fill-rule="nonzero"></path>
                        <path d="M40.8514651,12.0937212 C42.2108365,12.6093446 43.2655215,13.4765307 44.0155201,14.6952775 C44.6717681,15.7733995 44.9998927,16.921835 44.9998927,18.1405817 L44.9998927,20.3905764 C44.9998927,21.6093231 44.5780187,22.640571 43.7342707,23.484319 C42.8905227,24.328067 41.8592748,24.749941 40.6405281,24.749941 L35.5780402,24.749941 C35.8592895,23.9999424 35.9999142,23.2265068 35.9999142,22.429634 L35.9999142,21.374949 L40.6405281,21.374949 C40.9217774,21.374949 41.1561515,21.2811996 41.3436514,21.0936997 C41.5311513,20.9061998 41.6249008,20.6718257 41.6249008,20.3905764 L41.6249008,18.1405817 C41.6249008,17.4374584 41.4139638,16.8163665 40.9920898,16.2773049 C40.5702158,15.7382434 40.0311542,15.3749637 39.3749061,15.1874638 L38.2499088,14.8359021 C37.4530361,15.3046514 36.5858499,15.5859007 35.6483525,15.6796501 C35.4139784,14.8827774 35.0624168,14.1093417 34.5936675,13.3593431 C34.3124182,12.9374692 34.0077386,12.5390322 33.6796072,12.1640335 C34.0546059,12.3046582 34.4530429,12.3749705 34.8749169,12.3749705 C35.8124143,12.3749705 36.6092881,12.0468459 37.2655362,11.3905978 C37.9217842,10.7343498 38.2499088,9.93747595 38.2499088,8.99997854 C38.2499088,8.06248114 37.9217842,7.26560732 37.2655362,6.60935924 C36.6092881,5.95311116 35.8124143,5.62498659 34.8749169,5.62498659 C34.3124182,5.62498659 33.7733566,5.76561125 33.2577332,6.04686058 C32.7421098,6.32810991 32.3436729,6.70310866 32.0624236,7.1718579 C31.9686741,5.85936067 31.6171125,4.61717685 31.0077386,3.44530429 C32.1796111,2.64843154 33.4686702,2.24999464 34.8749169,2.24999464 C36.7499127,2.24999464 38.3436582,2.90624271 39.6561555,4.21873994 C40.9686527,5.53123717 41.6249008,7.12498266 41.6249008,8.99997854 C41.6249008,10.1249759 41.3670885,11.1562238 40.8514651,12.0937212 Z" id="Path" fill="#FFB81C" fill-rule="nonzero"></path>
                        <path d="M34.3124182,18.1405817 L34.3124182,22.429634 C34.3124182,23.695256 33.8671071,24.7733781 32.9764839,25.6640013 C32.0858606,26.5546245 31.0077386,26.9999356 29.7421166,26.9999356 L15.2577761,26.9999356 C13.9921541,26.9999356 12.9140321,26.5546245 12.0234088,25.6640013 C11.1327856,24.7733781 10.6874745,23.695256 10.6874745,22.429634 L10.6874745,18.1405817 C10.6874745,16.7812103 11.0624733,15.4921502 11.8124718,14.2734035 C12.7030951,12.9140321 13.9218418,11.9530965 15.4687131,11.3905978 C14.9062145,10.2656005 14.6249651,9.09372796 14.6249651,7.87498122 C14.6249651,6.46873458 14.9765268,5.15623735 15.6796501,3.93749061 C16.3827734,2.71874388 17.343709,1.75780831 18.5624557,1.05468499 C19.7812025,0.351561662 21.0936997,1.77635684e-15 22.4999464,1.77635684e-15 C23.906193,1.77635684e-15 25.2186902,0.351561662 26.437437,1.05468499 C27.6561837,1.75780831 28.6171193,2.71874388 29.3202426,3.93749061 C30.0233659,5.15623735 30.3749276,6.46873458 30.3749276,7.87498122 C30.3749276,9.09372796 30.0936783,10.2656005 29.5311796,11.3905978 C31.0780509,11.9530965 32.2967976,12.9140321 33.1874209,14.2734035 C33.9374194,15.4921502 34.3124182,16.7812103 34.3124182,18.1405817 Z" id="Path" fill="#005EB8" fill-rule="nonzero"></path>
                        <path d="M17.9999571,7.87498122 C17.9999571,9.14060321 18.4335502,10.2070073 19.3007352,11.0741923 C20.1679203,11.9413774 21.2343244,12.3749705 22.4999464,12.3749705 C23.7655683,12.3749705 24.8319724,11.9413774 25.6991575,11.0741923 C26.5663426,10.2070073 26.9999356,9.14060321 26.9999356,7.87498122 C26.9999356,6.60935924 26.5663426,5.54295518 25.6991575,4.6757701 C24.8319724,3.80858503 23.7655683,3.37499195 22.4999464,3.37499195 C21.2343244,3.37499195 20.1679203,3.80858503 19.3007352,4.6757701 C18.4335502,5.54295518 17.9999571,6.60935924 17.9999571,7.87498122 Z" id="Path" fill="#F0F4F5" fill-rule="nonzero"></path>
                        <path d="M30.9374262,18.1405817 C30.9374262,17.2968338 30.679614,16.5351172 30.1639906,15.8554309 C29.6483672,15.1757447 28.9686809,14.7187146 28.1249329,14.4843405 L27.2108726,14.2030911 C25.804626,15.234339 24.2343176,15.7499624 22.4999464,15.7499624 C20.7655751,15.7499624 19.1952667,15.234339 17.7890201,14.2030911 L16.8749598,14.4843405 C16.0312118,14.7187146 15.3515255,15.1757447 14.8359021,15.8554309 C14.3202787,16.5351172 14.0624665,17.2968338 14.0624665,18.1405817 L14.0624665,22.429634 C14.0624665,22.7577586 14.1796541,23.0390079 14.4140281,23.273382 C14.6484022,23.5077561 14.9296515,23.6249437 15.2577761,23.6249437 L29.7421166,23.6249437 C30.0702412,23.6249437 30.3514905,23.5077561 30.5858646,23.273382 C30.8202387,23.0390079 30.9374262,22.7577586 30.9374262,22.429634 L30.9374262,18.1405817 Z" id="Path" fill="#F0F4F5" fill-rule="nonzero"></path>
                    </g>
                </g>
            </g>
        </g>
    </g>
</svg>