<svg width="100" height="100" viewBox="0 0 100 100" fill="none" xmlns="http://www.w3.org/2000/svg">
    <mask id="mask0" mask-type="alpha" maskUnits="userSpaceOnUse" x="0" y="0" width="100" height="100">
        <circle cx="50" cy="50" r="50" fill="#C4C4C4"/>
    </mask>
    <g mask="url(#mask0)">
        <mask id="mask1" mask-type="alpha" maskUnits="userSpaceOnUse" x="-5" y="-4" width="109" height="109">
            <rect x="-5" y="-4" width="108.333" height="108.333" fill="#005EB8"/>
        </mask>
        <g mask="url(#mask1)">
            <rect x="-5" y="-4" width="108.333" height="108.333" fill="#005EB8"/>
            <rect x="-73.7499" y="51.4166" width="88.9775" height="173.241" transform="rotate(-45 -73.7499 51.4166)" fill="#0271DC"/>
            <path d="M69.0834 109.333L30.1667 75.4167L52.5001 25.1667L106.667 76V106.833L69.0834 109.333Z" fill="#01498D"/>
            <path d="M108.333 66.3334V109.333L44.1667 47.0417L67.5834 24.3334L108.333 66.3334Z" fill="#013669"/>
        </g>
        <path d="M64.9336 76.7182L33.0791 76.6727C30.8973 76.6727 29.0063 74.7818 29.0063 72.4546V27.0727C29.0063 24.8909 30.8973 23 33.0791 23L64.9336 23.0454C67.2609 23.0454 69.0063 24.9364 69.0063 27.1182V72.5C69.0063 74.8273 67.2609 76.7182 64.9336 76.7182Z" fill="white"/>
        <path d="M69.0063 67.9455V73.1818C69.0063 75.5091 67.1154 77.2546 64.9336 77.2546H33.3699C31.0427 77.2546 29.2972 75.3636 29.2972 73.1818V32.7455" fill="#F0F4F5"/>
        <rect x="35.0063" y="32" width="29" height="3" fill="#768692"/>
        <rect x="35.0063" y="39" width="19" height="3" fill="#768692"/>
        <rect x="35.0063" y="46" width="24" height="3" fill="#768692"/>
        <rect x="42.0063" y="60" width="22" height="2" fill="#768692"/>
        <rect x="35.0063" y="59" width="4" height="4" fill="#DC9F18"/>
        <rect x="42.0063" y="68" width="22" height="2" fill="#768692"/>
        <rect x="35.0063" y="67" width="4" height="4" fill="#9137FF"/>
        <line x1="29" y1="55" x2="69.0125" y2="55" stroke="#AEB7BD"/>
    </g>
</svg>