<svg width="101" height="101" viewBox="0 0 101 101" fill="none" xmlns="http://www.w3.org/2000/svg">
    <mask id="mask0" mask-type="alpha" maskUnits="userSpaceOnUse" x="0" y="0" width="101" height="101">
        <circle cx="50.1667" cy="50.1667" r="50" fill="#C4C4C4"/>
    </mask>
    <g mask="url(#mask0)">
        <mask id="mask1" mask-type="alpha" maskUnits="userSpaceOnUse" x="-4" y="-4" width="109" height="109">
            <rect x="-3.99991" y="-3.99997" width="108.333" height="108.333" fill="#005EB8"/>
        </mask>
        <g mask="url(#mask1)">
            <rect x="-3.99991" y="-3.99997" width="108.333" height="108.333" fill="#005EB8"/>
            <rect x="-72.7498" y="51.4167" width="88.9775" height="173.241" transform="rotate(-45 -72.7498 51.4167)" fill="#0271DC"/>
            <path d="M68.0835 109.333L30.1668 76.4167L53.5002 25.1667L107.667 76V106.833L68.0835 109.333Z" fill="#01498D"/>
            <path d="M109.334 69.3334V109.333L45.1668 47.0417L70.5835 34.3334L109.334 69.3334Z" fill="#013669"/>
        </g>
        <g clip-path="url(#clip0)">
            <path d="M66.7267 78.1521H33.607C31.3176 78.1521 29.3335 76.1679 29.3335 73.7259V26.1069C29.3335 23.8175 31.3176 21.8334 33.607 21.8334H54.9745L71.0002 34.3486V73.7259C71.0002 76.1679 69.1687 78.1521 66.7267 78.1521Z" fill="white"/>
            <path d="M71.0002 68.384V73.7259C71.0002 76.1679 69.016 77.9994 66.7267 77.9994H33.607C31.3176 78.1521 29.3335 76.1679 29.3335 73.7259V28.1711" fill="#F0F4F5"/>
            <path fill-rule="evenodd" clip-rule="evenodd" d="M53.5306 21.8334H55.1973V34.2784H71.0001V35.9451H53.5306V21.8334Z" fill="#C1BFBF"/>
        </g>
    </g>
    <defs>
        <clipPath id="clip0">
            <rect width="41.6667" height="56.3187" fill="white" transform="translate(29.3335 21.8334)"/>
        </clipPath>
    </defs>
</svg>
