<svg width="100" height="100" viewBox="0 0 100 100" fill="none" xmlns="http://www.w3.org/2000/svg">
<mask id="mask0_178_571" style="mask-type:alpha" maskUnits="userSpaceOnUse" x="0" y="0" width="100" height="100">
<circle cx="50" cy="50" r="50" fill="#C4C4C4"/>
</mask>
<g mask="url(#mask0_178_571)">
<mask id="mask1_178_571" style="mask-type:alpha" maskUnits="userSpaceOnUse" x="-6" y="-4" width="110" height="109">
<rect x="-5.00012" y="-4" width="108.333" height="108.333" fill="#005EB8"/>
</mask>
<g mask="url(#mask1_178_571)">
<rect x="-5.00012" y="-4" width="108.333" height="108.333" fill="#005EB8"/>
<rect x="-73.75" y="51.4167" width="88.9775" height="173.241" transform="rotate(-45 -73.75 51.4167)" fill="#0271DC"/>
<path d="M61.0833 109.333L24.1666 75.4167L52.5 25.1667L106.667 76V106.833L61.0833 109.333Z" fill="#01498D"/>
<path d="M108.333 56.3333V109.333L44.1666 47.0416L74.5833 24.3333L108.333 56.3333Z" fill="#013669"/>
</g>
<path d="M71.9334 76.7182L27.0788 76.6727C24.897 76.6727 23.0061 74.7818 23.0061 72.4546V27.0727C23.0061 24.8909 24.897 23 27.0788 23L71.9334 23.0454C74.2607 23.0454 76.0061 24.9364 76.0061 27.1182V72.5C76.0061 74.8273 74.2607 76.7182 71.9334 76.7182Z" fill="white"/>
<mask id="mask2_178_571" style="mask-type:alpha" maskUnits="userSpaceOnUse" x="-23" y="22" width="104" height="104">
<rect x="-23" y="67.9619" width="65" height="81" transform="rotate(-45 -23 67.9619)" fill="#C4C4C4"/>
</mask>
<g mask="url(#mask2_178_571)">
<path d="M71.9334 76.7181L27.0788 76.6727C24.897 76.6727 23.0061 74.7818 23.0061 72.4545V27.0727C23.0061 24.8908 24.897 22.9999 27.0788 22.9999L71.9334 23.0454C74.2607 23.0454 76.0061 24.9363 76.0061 27.1181V72.4999C76.0061 74.8272 74.2607 76.7181 71.9334 76.7181Z" fill="#F0F4F5"/>
</g>
<path d="M71.4525 23H27.6124C25.065 23 23 25.065 23 27.6124V72.3873C23 74.9347 25.065 76.9997 27.6124 76.9997H71.4525C73.9999 76.9997 76.0649 74.9347 76.0649 72.3873V27.6124C76.0649 25.065 73.9999 23 71.4525 23ZM41.4649 27.68C42.4091 27.68 43.1748 28.4456 43.1748 29.3899C43.1748 30.3341 42.4091 31.0998 41.4649 31.0998C40.5206 31.0998 39.755 30.3341 39.755 29.3899C39.755 28.4456 40.5206 27.68 41.4649 27.68ZM35.4648 27.68C36.4093 27.68 37.1747 28.4456 37.1747 29.3899C37.1747 30.3341 36.409 31.0998 35.4648 31.0998C34.5205 31.0998 33.7549 30.3341 33.7549 29.3899C33.7549 28.4456 34.5205 27.68 35.4648 27.68ZM29.4647 27.68C30.4089 27.68 31.1746 28.4456 31.1746 29.3899C31.1746 30.3341 30.4089 31.0998 29.4647 31.0998C28.5204 31.0998 27.7548 30.3341 27.7548 29.3899C27.7548 28.4456 28.5204 27.68 29.4647 27.68ZM72.7124 71.3263C72.7124 72.4386 71.8106 73.34 70.6987 73.34H28.3663C27.254 73.34 26.3526 72.4383 26.3526 71.3263V34.4002H72.7127L72.7124 71.3263Z" fill="#D8DDE0"/>
<path d="M40.3743 48.0217C40.6959 47.7001 41.0172 47.3788 41.3388 47.0572C41.5958 46.8002 41.7539 46.4183 41.7539 46.055C41.7539 45.6918 41.5995 45.2921 41.3388 45.0529C40.7729 44.5334 39.8944 44.4926 39.3342 45.0529C38.4536 45.9335 37.5733 46.8138 36.6927 47.6944C35.2895 49.0975 33.8867 50.5003 32.4836 51.9034C32.162 52.225 31.8407 52.5463 31.5192 52.8679C30.9779 53.4091 30.9767 54.3301 31.5192 54.8725C32.3998 55.7531 33.2801 56.6334 34.1607 57.514C35.5638 58.9171 36.9666 60.3199 38.3697 61.7231C38.6913 62.0446 39.0126 62.3659 39.3342 62.6875C39.5912 62.9446 39.9731 63.1026 40.3366 63.1026C40.7002 63.1026 41.0996 62.9482 41.3388 62.6875C41.8583 62.1216 41.899 61.2431 41.3388 60.6829C40.4582 59.8023 39.5779 58.922 38.6973 58.0414C37.3069 56.6509 35.9164 55.2605 34.5263 53.8703C35.0726 53.324 35.619 52.7777 36.1656 52.231C37.5687 50.8279 38.9715 49.4251 40.3747 48.022L40.3743 48.0217Z" fill="#0483FD"/>
<path d="M69.5462 52.8673C68.6656 51.9867 67.7853 51.1064 66.9047 50.2258C65.5016 48.8227 64.0988 47.4199 62.6957 46.0168C62.3741 45.6952 62.0528 45.3739 61.7312 45.0523C61.4742 44.7953 61.0923 44.6372 60.7291 44.6372C60.3658 44.6372 59.9661 44.7917 59.7269 45.0523C59.2074 45.6183 59.1667 46.4968 59.7269 47.057C60.6075 47.9376 61.4878 48.8179 62.3684 49.6985C63.7588 51.0889 65.1493 52.4794 66.5394 53.8695C65.9931 54.4158 65.4467 54.9622 64.9001 55.5088C63.497 56.9119 62.0942 58.3147 60.691 59.7179C60.3695 60.0394 60.0482 60.3607 59.7266 60.6823C59.4695 60.9394 59.3115 61.3213 59.3115 61.6848C59.3115 62.0483 59.4659 62.4478 59.7266 62.687C60.2925 63.2065 61.171 63.2472 61.7312 62.687C62.6118 61.8064 63.4921 60.9261 64.3727 60.0455C65.7758 58.6424 67.1787 57.2396 68.5818 55.8364C68.9034 55.5149 69.2246 55.1936 69.5462 54.872C70.0874 54.3308 70.0887 53.4097 69.5462 52.8673Z" fill="#0483FD"/>
<path d="M56.6481 40.6759C56.3193 40.5021 55.9204 40.4149 55.5557 40.5329C55.2284 40.6388 54.8522 40.8545 54.7086 41.1842C54.6121 41.4056 54.5155 41.6271 54.4193 41.8482C54.1568 42.4506 53.8944 43.0528 53.6316 43.6553C53.2452 44.5419 52.859 45.4282 52.4726 46.3149C51.9992 47.4009 51.5259 48.4866 51.0525 49.5727C50.534 50.7622 50.0157 51.9517 49.4971 53.1413C48.9761 54.3368 48.4548 55.5324 47.9338 56.7279C47.446 57.8475 46.9579 58.967 46.47 60.0865C46.0595 61.029 45.6486 61.9711 45.238 62.9136C44.9411 63.5944 44.6446 64.2753 44.3477 64.9559C44.2071 65.2781 44.0666 65.6003 43.9263 65.9228C43.9202 65.9367 43.9142 65.9503 43.9085 65.9638C43.805 66.1264 43.7489 66.3023 43.7401 66.4909C43.6979 66.6794 43.7064 66.8677 43.7655 67.0562C43.856 67.385 44.1103 67.7413 44.4168 67.9033C44.7456 68.0771 45.1445 68.1643 45.5092 68.0463C45.8365 67.9404 46.2124 67.7247 46.3563 67.395C46.4528 67.1736 46.5494 66.9521 46.6456 66.731C46.9081 66.1286 47.1705 65.5264 47.4333 64.9239C47.8198 64.0376 48.2059 63.151 48.5924 62.2643C49.0657 61.1783 49.539 60.0926 50.0124 59.0065C50.5309 57.817 51.0492 56.6275 51.5678 55.4379C52.0888 54.2424 52.6101 53.0468 53.1311 51.8513C53.6189 50.7317 54.1071 49.6122 54.5949 48.4924C55.0055 47.5499 55.4163 46.6078 55.8269 45.6653C56.1238 44.9845 56.4203 44.3036 56.7172 43.623C56.8578 43.3008 56.9983 42.9786 57.1386 42.6561C57.1447 42.6425 57.1507 42.6286 57.1564 42.6151C57.2599 42.4525 57.316 42.2766 57.3248 42.088C57.367 41.8995 57.3586 41.7112 57.2994 41.5227C57.2089 41.1938 56.9546 40.8376 56.6481 40.6756V40.6759Z" fill="#0483FD"/>
</g>
</svg>
