<svg width="100" height="100" viewBox="0 0 100 100" fill="none" xmlns="http://www.w3.org/2000/svg">
    <mask id="mask0" mask-type="alpha" maskUnits="userSpaceOnUse" x="0" y="0" width="100" height="100">
        <circle cx="50" cy="50" r="50" fill="#C4C4C4"/>
    </mask>
    <g mask="url(#mask0)">
        <mask id="mask1" mask-type="alpha" maskUnits="userSpaceOnUse" x="-6" y="-4" width="110" height="109">
            <rect x="-5.00012" y="-4" width="108.333" height="108.333" fill="#005EB8"/>
        </mask>
        <g mask="url(#mask1)">
            <rect x="-5.00012" y="-4" width="108.333" height="108.333" fill="#005EB8"/>
            <rect x="-73.75" y="51.4166" width="88.9775" height="173.241" transform="rotate(-45 -73.75 51.4166)" fill="#0271DC"/>
            <path d="M61.0833 109.333L24.1666 75.4167L52.5 25.1667L106.667 76V106.833L61.0833 109.333Z" fill="#01498D"/>
            <path d="M108.333 56.3334V109.333L44.1666 47.0417L74.5833 24.3334L108.333 56.3334Z" fill="#013669"/>
        </g>
        <path d="M71.9334 76.7182L27.0788 76.6727C24.897 76.6727 23.0061 74.7818 23.0061 72.4545V27.0727C23.0061 24.8909 24.897 23 27.0788 23L71.9334 23.0454C74.2607 23.0454 76.0061 24.9363 76.0061 27.1182V72.5C76.0061 74.8273 74.2607 76.7182 71.9334 76.7182Z" fill="white"/>
        <mask id="mask2" mask-type="alpha" maskUnits="userSpaceOnUse" x="-23" y="22" width="104" height="104">
            <rect x="-23" y="67.9618" width="65" height="81" transform="rotate(-45 -23 67.9618)" fill="#C4C4C4"/>
        </mask>
        <g mask="url(#mask2)">
            <path d="M71.9334 76.7182L27.0788 76.6728C24.897 76.6728 23.0061 74.7819 23.0061 72.4546V27.0728C23.0061 24.891 24.897 23 27.0788 23L71.9334 23.0455C74.2607 23.0455 76.0061 24.9364 76.0061 27.1182V72.5C76.0061 74.8273 74.2607 76.7182 71.9334 76.7182Z" fill="#F0F4F5"/>
        </g>
        <path d="M38.8929 34.9958C38.0063 34.4748 37.0421 34.2143 36 34.2143C34.958 34.2143 33.9937 34.4748 33.1072 34.9958C32.2206 35.5169 31.5169 36.2206 30.9958 37.1071C30.4748 37.9937 30.2143 38.958 30.2143 40C30.2143 41.0421 30.4748 42.0063 30.9958 42.8929C31.5169 43.7794 32.2206 44.4832 33.1072 45.0042C33.9937 45.5252 34.958 45.7857 36 45.7857C37.0421 45.7857 38.0063 45.5252 38.8929 45.0042C39.7794 44.4832 40.4832 43.7794 41.0042 42.8929C41.5252 42.0063 41.7857 41.0421 41.7857 40C41.7857 38.958 41.5252 37.9937 41.0042 37.1071C40.4832 36.2206 39.7794 35.5169 38.8929 34.9958Z" fill="#007F3B"/>
        <path d="M34.9036 42.4643C34.9813 42.4643 35.0435 42.4332 35.0902 42.371L39.3128 38.195C39.3595 38.1483 39.3828 38.0861 39.3828 38.0084C39.3828 37.9306 39.3595 37.8606 39.3128 37.7984L39.1029 37.6118C39.0562 37.5496 38.994 37.5184 38.9162 37.5184C38.8385 37.5184 38.7685 37.5418 38.7063 37.5884L34.9036 41.3911L33.2938 39.7581C33.2316 39.7114 33.1616 39.6881 33.0839 39.6881C33.0061 39.6881 32.9439 39.7114 32.8972 39.7581L32.6873 39.9447C32.6406 40.0069 32.6173 40.0769 32.6173 40.1547C32.6173 40.2324 32.6406 40.2947 32.6873 40.3413L34.6936 42.371C34.7558 42.4332 34.8258 42.4643 34.9036 42.4643Z" fill="white"/>
        <path d="M38.8929 54.9958C38.0063 54.4748 37.0421 54.2143 36 54.2143C34.958 54.2143 33.9937 54.4748 33.1072 54.9958C32.2206 55.5169 31.5169 56.2206 30.9958 57.1071C30.4748 57.9937 30.2143 58.958 30.2143 60C30.2143 61.0421 30.4748 62.0063 30.9958 62.8929C31.5169 63.7794 32.2206 64.4832 33.1072 65.0042C33.9937 65.5252 34.958 65.7857 36 65.7857C37.0421 65.7857 38.0063 65.5252 38.8929 65.0042C39.7794 64.4832 40.4832 63.7794 41.0042 62.8929C41.5252 62.0063 41.7857 61.0421 41.7857 60C41.7857 58.958 41.5252 57.9937 41.0042 57.1071C40.4832 56.2206 39.7794 55.5169 38.8929 54.9958Z" fill="#007F3B"/>
        <path d="M34.9036 62.4643C34.9813 62.4643 35.0435 62.4332 35.0902 62.371L39.3128 58.195C39.3595 58.1483 39.3828 58.0861 39.3828 58.0084C39.3828 57.9306 39.3595 57.8606 39.3128 57.7984L39.1029 57.6118C39.0562 57.5496 38.994 57.5184 38.9162 57.5184C38.8385 57.5184 38.7685 57.5418 38.7063 57.5884L34.9036 61.3911L33.2938 59.7581C33.2316 59.7114 33.1616 59.6881 33.0839 59.6881C33.0061 59.6881 32.9439 59.7114 32.8972 59.7581L32.6873 59.9447C32.6406 60.0069 32.6173 60.0769 32.6173 60.1547C32.6173 60.2324 32.6406 60.2947 32.6873 60.3413L34.6936 62.371C34.7558 62.4332 34.8258 62.4643 34.9036 62.4643Z" fill="white"/>
        <rect x="45" y="37" width="23" height="2" fill="#768692"/>
        <rect x="45" y="41" width="16" height="2" fill="#768692"/>
        <rect x="45" y="57" width="23" height="2" fill="#768692"/>
        <rect x="45" y="61" width="16" height="2" fill="#768692"/>
    </g>
</svg>
