<svg width="100" height="100" viewBox="0 0 100 100" fill="none" xmlns="http://www.w3.org/2000/svg">
    <mask id="mask0" mask-type="alpha" maskUnits="userSpaceOnUse" x="0" y="0" width="100" height="100">
        <circle cx="50" cy="50" r="50" fill="#C4C4C4"/>
    </mask>
    <g mask="url(#mask0)">
        <mask id="mask1" mask-type="alpha" maskUnits="userSpaceOnUse" x="-4" y="-4" width="109" height="109">
            <rect x="-4" y="-4" width="108.333" height="108.333" fill="#005EB8"/>
        </mask>
        <g mask="url(#mask1)">
            <rect x="-4" y="-4" width="108.333" height="108.333" fill="#005EB8"/>
            <rect x="-72.7499" y="51.4166" width="88.9775" height="173.241" transform="rotate(-45 -72.7499 51.4166)" fill="#0271DC"/>
            <path d="M80 106.833L34 62.5L53.5001 35.1667L107.667 86V106.833H80Z" fill="#01498D"/>
            <path d="M109.333 79V109.333L45.1667 47.0417L61 34L109.333 79Z" fill="#013669"/>
        </g>
        <path d="M49.6206 68.1572C59.7982 68.1572 68.0487 59.9066 68.0487 49.729C68.0487 39.5514 59.7982 31.3008 49.6206 31.3008C39.443 31.3008 31.1924 39.5514 31.1924 49.729C31.1924 59.9066 39.443 68.1572 49.6206 68.1572Z" fill="white"/>
        <mask id="mask2" mask-type="alpha" maskUnits="userSpaceOnUse" x="31" y="31" width="38" height="38">
            <path d="M49.6206 68.1572C59.7982 68.1572 68.0487 59.9066 68.0487 49.729C68.0487 39.5514 59.7982 31.3008 49.6206 31.3008C39.443 31.3008 31.1924 39.5514 31.1924 49.729C31.1924 59.9066 39.443 68.1572 49.6206 68.1572Z" fill="white"/>
        </mask>
        <g mask="url(#mask2)">
            <rect x="11.3333" y="54.4321" width="32.6667" height="60" transform="rotate(-45 11.3333 54.4321)" fill="#F0F4F5"/>
        </g>
        <path d="M70 49.9458C70 53.523 69.1328 56.8835 67.29 59.9187C65.4472 62.9539 63.0623 65.4472 60.0271 67.1816C56.9919 69.0244 53.6314 69.8916 50.0542 69.8916C46.477 69.8916 43.0081 69.0244 39.9729 67.29C36.9377 65.4472 34.4444 63.0623 32.71 60.0271C30.9756 56.9919 30 53.523 30 49.9458C30 46.3686 30.8672 43.0081 32.71 39.9729C34.5528 36.9377 36.9377 34.4444 39.9729 32.71C43.0081 30.9756 46.3686 30 49.9458 30C53.523 30 56.8835 30.8672 59.9187 32.71C62.9539 34.5528 65.4472 36.9377 67.1816 39.9729C69.0244 43.0081 70 46.3686 70 49.9458ZM33.3604 44.8509C32.2764 48.3198 32.2764 51.6802 33.3604 55.1491H41.3821C40.8401 51.6802 40.8401 48.3198 41.3821 44.8509H33.3604ZM46.1518 32.9268C43.5501 33.4688 41.2737 34.6612 39.2141 36.1789C37.1545 37.6965 35.5285 39.8645 34.336 42.2493H41.8157C42.7913 38.5637 44.2005 35.5285 46.1518 32.9268ZM34.336 57.7507C35.5285 60.1355 37.1545 62.0867 39.2141 63.7127C41.2737 65.3388 43.5501 66.4228 46.1518 66.9648C44.2005 64.4715 42.7913 61.3279 41.9241 57.7507H34.336ZM43.9837 55.1491H56.0163C56.5583 51.6802 56.5583 48.3198 56.0163 44.8509H43.9837C43.3333 48.2114 43.3333 51.6802 43.9837 55.1491ZM49.9458 32.71C47.4526 34.9864 45.6098 38.1301 44.5257 42.2493H55.3659C54.2818 38.1301 52.5474 34.9864 49.9458 32.71ZM49.9458 67.1816C52.439 64.9051 54.2818 61.7615 55.3659 57.6423H44.5257C45.6098 61.7615 47.4526 64.9051 49.9458 67.1816ZM65.5556 42.2493C64.3631 39.8645 62.7371 37.9133 60.6775 36.2873C58.6179 34.6612 56.3415 33.5772 53.7398 33.0352C55.6911 35.5285 57.2087 38.6721 58.0759 42.2493H65.5556ZM53.7398 66.9648C56.3415 66.4228 58.6179 65.2304 60.6775 63.7127C62.7371 62.1951 64.3631 60.1355 65.5556 57.7507H57.9675C57.2087 61.3279 55.6911 64.4715 53.7398 66.9648ZM66.5312 55.1491C67.6152 51.6802 67.6152 48.3198 66.5312 44.8509H58.5095C59.0515 48.3198 59.0515 51.6802 58.5095 55.1491H66.5312Z" fill="#0483FD"/>
    </g>
</svg>
