<svg width="46" height="29" viewBox="0 0 46 29" fill="none" xmlns="http://www.w3.org/2000/svg">
<path d="M12.5257 21.1334C11.5064 21.4935 10.3428 22.0459 7.97099 22.0459C2.85193 22.0459 0.5 18.9994 0.5 14.4005C0.5 10.2152 3.18508 7.25391 7.26492 7.25391C12.0782 7.25391 13.6296 10.6873 13.6296 15.2327H3.3268C3.3268 18.0285 5.56436 19.9435 8.0779 19.9435C9.83315 19.9435 11.8718 19.0578 12.5182 18.5322L12.5257 21.1334ZM10.7978 13.2958C10.7978 11.1326 9.5 9.36357 7.20028 9.36357C4.59724 9.36357 3.5232 11.4659 3.32431 13.2958H10.7953H10.7978Z" fill="black"/>
<path d="M15.8348 0.944092H18.4925V21.7195H15.8348V0.944092Z" fill="black"/>
<path d="M23.9522 9.69431H20.5585V7.59195H23.9572V6.28771C23.9572 2.85433 24.8621 0.61084 28.7978 0.61084C29.4765 0.61084 30.0409 0.691138 30.5779 0.776304L30.4635 2.87867C30.1502 2.76673 29.6406 2.7132 29.1931 2.7132C26.9008 2.7132 26.6174 4.15128 26.6174 6.06628V7.58952H30.4386V9.69188H26.6174V21.7099H23.9596L23.9522 9.69188V9.69431Z" fill="black"/>
<path d="M32.6688 0.944092H35.3265V9.6139H35.3812C36.3458 8.11743 38.0116 7.25848 40.0254 7.25848C43.7572 7.25848 45.4304 9.52631 45.4304 13.3198V21.7098H42.7726V14.4026C42.7726 11.1079 42.0392 9.49954 39.7121 9.35841C36.6864 9.35841 35.3265 11.7406 35.3265 15.174V21.7074H32.6688V0.944092Z" fill="black"/>
<path d="M13.9043 25.569H0.5V28.4413H13.9043V25.569Z" fill="#C10071"/>
<path d="M25.3936 25.569H13.9042V28.4413H25.3936V25.569Z" fill="#003087"/>
<path d="M32.0957 25.569H25.3936V28.4413H32.0957V25.569Z" fill="#0069B3"/>
<path d="M38.7979 25.569H32.0957V28.4413H38.7979V25.569Z" fill="#00A7D6"/>
<path d="M43.5851 25.569H38.7979V28.4413H43.5851V25.569Z" fill="#35BBED"/>
<path d="M45.5 25.569H43.5851V28.4413H45.5V25.569Z" fill="#5DC9F1"/>
</svg>
