<?xml version="1.0" encoding="UTF-8"?>
<svg width="36" height="36" viewBox="0 0 36 36" fill="none" xmlns="http://www.w3.org/2000/svg">
  <path d="M26.6786 2.98719C24.019 1.42412 21.1262 0.642578 18 0.642578C14.8739 0.642578 11.981 1.42412 9.32146 2.98719C6.66189 4.55027 4.55057 6.66159 2.9875 9.32115C1.42442 11.9807 0.642883 14.8736 0.642883 17.9997C0.642883 21.1259 1.42442 24.0187 2.9875 26.6783C4.55057 29.3379 6.66189 31.4492 9.32146 33.0123C11.981 34.5753 14.8739 35.3569 18 35.3569C21.1262 35.3569 24.019 34.5753 26.6786 33.0123C29.3382 31.4492 31.4495 29.3379 33.0126 26.6783C34.5756 24.0187 35.3572 21.1259 35.3572 17.9997C35.3572 14.8736 34.5756 11.9807 33.0126 9.32115C31.4495 6.66159 29.3382 4.55027 26.6786 2.98719Z" fill="#007F3B"/>
  <path d="M14.7107 25.3922C14.944 25.3922 15.1306 25.2989 15.2706 25.1123L27.9385 12.5844C28.0785 12.4444 28.1485 12.2577 28.1485 12.0244C28.1485 11.7912 28.0785 11.5812 27.9385 11.3945L27.3086 10.8346C27.1686 10.648 26.982 10.5547 26.7487 10.5547C26.5154 10.5547 26.3054 10.6247 26.1188 10.7647L14.7107 22.1728L9.88147 17.2736C9.69484 17.1336 9.48487 17.0636 9.25158 17.0636C9.01828 17.0636 8.83165 17.1336 8.69167 17.2736L8.06177 17.8335C7.9218 18.0201 7.85181 18.2301 7.85181 18.4634C7.85181 18.6967 7.9218 18.8833 8.06177 19.0233L14.0808 25.1123C14.2674 25.2989 14.4774 25.3922 14.7107 25.3922Z" fill="white"/>
</svg>
