<?xml version="1.0" encoding="UTF-8"?>
<svg width="140" height="140" viewBox="0 0 140 140" fill="none" xmlns="http://www.w3.org/2000/svg">
  <rect x="0.5" y="0.5" width="139" height="139" rx="9.5" fill="#F0F4F5" stroke="#007F3B"/>
  <path d="M59.115 111V101.24H62.587V99.832H54.043V101.24H57.515V111H59.115zM66.45 111.192C68.962 111.192 70.61 109.208 70.61 106.92C70.61 104.344 68.85 102.648 66.466 102.648C63.97 102.648 62.306 104.424 62.306 106.92C62.306 109.288 64.05 111.192 66.45 111.192zM66.466 109.976C64.77 109.976 63.906 108.488 63.906 106.92C63.906 105.352 64.882 103.864 66.45 103.864C68.034 103.864 69.01 105.304 69.01 106.92C69.01 108.504 68.146 109.976 66.466 109.976zM74.136 114.36V109.88H74.168C74.728 110.776 75.64 111.192 76.888 111.192C79.304 111.192 80.392 109.08 80.392 106.776C80.392 104.488 79.16 102.648 76.872 102.648C75.704 102.648 74.68 103.16 74.104 103.992H74.072V102.84H72.632V114.36H74.136zM76.536 109.976C74.888 109.976 74.136 108.376 74.136 106.936C74.136 105.384 74.952 103.88 76.536 103.864C77.752 103.848 78.792 104.776 78.792 106.872C78.792 108.504 77.976 109.976 76.536 109.976z" fill="#007F3B"/>
  <path d="M93.6 79.01H45.6V81.01H93.6V79.01z" fill="#007F3B"/>
  <path d="M93.6 23.31H45.6V25.31H93.6V23.31z" fill="#007F3B"/>
  <rect x="50" y="24.11" width="39" height="28" stroke="#007F3B" stroke-width="2"/>
  <circle cx="60" cy="31.11" r="3" stroke="#007F3B" stroke-width="2"/>
  <path d="M50 41.61C51.667 40.443 56.237 38.515 61 39.11C73 40.61 78 48.61 79.5 51.61" stroke="#007F3B" stroke-width="2"/>
  <path d="M71 41.61C72.5 40.444 76.5 37.91 80.5 37.11C84.5 36.31 87.833 36.777 89 37.11" stroke="#007F3B" stroke-width="2"/>
</svg>