<?xml version="1.0" encoding="UTF-8"?>
<svg width="140" height="140" viewBox="0 0 140 140" fill="none" xmlns="http://www.w3.org/2000/svg">
  <rect x="0.5" y="0.5" width="139" height="139" rx="9.5" fill="#F0F4F5" stroke="#007F3B"/>
  <path d="M58.293 112.24C57.749 112.56 56.725 112.784 55.861 112.784C53.477 112.784 51.653 110.976 51.653 108.416C51.653 105.888 53.397 104.048 55.941 104.048C56.757 104.048 57.541 104.256 58.245 104.672L58.373 103.12C57.573 102.768 56.741 102.64 55.861 102.64C52.421 102.64 49.957 104.976 49.957 108.368C49.957 111.888 52.277 114.192 55.845 114.192C56.933 114.192 57.765 114.048 58.389 113.792L58.293 112.24zM66.427 112.16C65.915 112.56 64.779 112.976 63.915 112.976C62.491 112.976 61.243 111.888 61.227 110.256H67.051C67.051 107.152 65.819 105.648 63.451 105.648C61.179 105.648 59.627 107.312 59.627 109.776C59.627 112.592 61.099 114.192 63.867 114.192C64.539 114.192 65.243 114.144 66.427 113.664V112.16zM61.227 109.136C61.387 107.728 62.203 106.864 63.403 106.864C64.683 106.864 65.435 107.824 65.451 109.136H61.227zM76.277 114V109.12C76.277 106.896 75.269 105.648 73.221 105.648C72.085 105.648 71.045 106.176 70.549 107.136H70.517V105.84H69.061V114H70.565V110.208C70.565 108.16 71.413 106.864 72.981 106.864C73.989 106.864 74.773 107.44 74.773 109.584V114H76.277zM83.307 112.688C83.099 112.816 82.779 112.976 82.283 112.976C81.467 112.976 81.019 112.304 81.019 111.552V107.056H83.179V105.84H81.019V103.472L79.515 103.952V105.84H77.675V107.056H79.515V111.84C79.515 113.312 80.331 114.192 82.011 114.192C82.491 114.192 82.907 114.08 83.307 113.968V112.688zM91.317 112.16C90.805 112.56 89.669 112.976 88.805 112.976C87.381 112.976 86.133 111.888 86.117 110.256H91.941C91.941 107.152 90.709 105.648 88.341 105.648C86.069 105.648 84.517 107.312 84.517 109.776C84.517 112.592 85.989 114.192 88.757 114.192C89.429 114.192 90.133 114.144 91.317 113.664V112.16zM86.117 109.136C86.277 107.728 87.093 106.864 88.293 106.864C89.573 106.864 90.325 107.824 90.341 109.136H86.117zM95.456 114V110.288C95.456 108.288 96.304 106.96 97.68 106.96C97.936 106.96 98.24 106.992 98.512 107.104V105.76C98.144 105.68 97.856 105.648 97.536 105.648C96.672 105.648 95.808 106.224 95.392 107.104H95.36V105.84H93.952V114H95.456z" fill="#007F3B"/>
  <path d="M97.6 79.01H49.6V81.01H97.6V79.01z" fill="#007F3B"/>
  <path d="M97.6 23.31H49.6V25.31H97.6V23.31z" fill="#007F3B"/>
  <rect x="54" y="37.11" width="39" height="28" stroke="#007F3B" stroke-width="2"/>
  <circle cx="64" cy="44.11" r="3" stroke="#007F3B" stroke-width="2"/>
  <path d="M54 54.61C55.667 53.443 60.237 51.515 65 52.11C77 53.61 82 61.61 83.5 64.61" stroke="#007F3B" stroke-width="2"/>
  <path d="M75 54.61C76.5 53.444 80.5 50.91 84.5 50.11C88.5 49.31 91.833 49.777 93 50.11" stroke="#007F3B" stroke-width="2"/>
</svg>