<?xml version="1.0" encoding="UTF-8"?>
<svg width="140" height="140" viewBox="0 0 140 140" fill="none" xmlns="http://www.w3.org/2000/svg">
  <rect width="140" height="140" rx="10" fill="#F0F4F5"/>
  <path d="M50.352 114C53.168 114 54.56 113.04 54.56 111.024C54.56 109.616 53.68 108.496 51.968 108.336V108.304C53.696 107.872 54.272 106.896 54.272 105.648C54.272 103.712 52.864 102.832 50.352 102.832H47.328V114H50.352zM48.928 107.6V104.144H50.576C51.824 104.144 52.672 104.672 52.672 105.808C52.672 107.264 51.664 107.6 49.984 107.6H48.928zM48.928 112.688V108.912H50.032C52.08 108.912 52.864 109.616 52.864 110.88C52.864 112.144 51.968 112.688 50.192 112.688H48.928zM60.661 114.192C63.173 114.192 64.821 112.208 64.821 109.92C64.821 107.344 63.061 105.648 60.677 105.648C58.181 105.648 56.517 107.424 56.517 109.92C56.517 112.288 58.261 114.192 60.661 114.192zM60.677 112.976C58.981 112.976 58.117 111.488 58.117 109.92C58.117 108.352 59.093 106.864 60.661 106.864C62.245 106.864 63.221 108.304 63.221 109.92C63.221 111.504 62.357 112.976 60.677 112.976zM71.307 112.688C71.099 112.816 70.779 112.976 70.283 112.976C69.467 112.976 69.019 112.304 69.019 111.552V107.056H71.179V105.84H69.019V103.472L67.515 103.952V105.84H65.675V107.056H67.515V111.84C67.515 113.312 68.331 114.192 70.011 114.192C70.491 114.192 70.907 114.08 71.307 113.968V112.688zM77.525 112.688C77.317 112.816 76.997 112.976 76.501 112.976C75.685 112.976 75.237 112.304 75.237 111.552V107.056H77.397V105.84H75.237V103.472L73.733 103.952V105.84H71.893V107.056H73.733V111.84C73.733 113.312 74.549 114.192 76.229 114.192C76.709 114.192 77.125 114.08 77.525 113.968V112.688zM82.88 114.192C85.392 114.192 87.04 112.208 87.04 109.92C87.04 107.344 85.28 105.648 82.896 105.648C80.4 105.648 78.736 107.424 78.736 109.92C78.736 112.288 80.48 114.192 82.88 114.192zM82.896 112.976C81.2 112.976 80.336 111.488 80.336 109.92C80.336 108.352 81.312 106.864 82.88 106.864C84.464 106.864 85.44 108.304 85.44 109.92C85.44 111.504 84.576 112.976 82.896 112.976zM100.757 114V108.768C100.757 106.752 99.781 105.648 97.941 105.648C96.949 105.648 95.861 106.256 95.397 107.232C94.997 106.208 94.101 105.648 93.077 105.648C91.877 105.648 91.077 106.064 90.485 107.024H90.453V105.84H89.045V114H90.549V109.888C90.549 108.192 91.269 106.864 92.693 106.864C93.717 106.864 94.149 107.776 94.149 109.104V114H95.653V109.904C95.653 108.208 96.357 106.864 97.797 106.864C98.789 106.864 99.253 107.728 99.253 109.104V114H100.757z" fill="#212B32"/>
  <path d="M97.6 79.01H49.6V81.01H97.6V79.01z" fill="black"/>
  <path d="M97.6 23.31H49.6V25.31H97.6V23.31z" fill="black"/>
  <rect x="54" y="52.11" width="39" height="28" stroke="#212B32" stroke-width="2"/>
  <circle cx="64" cy="59.11" r="3" stroke="#212B32" stroke-width="2"/>
  <path d="M54 69.61C55.667 68.443 60.237 66.515 65 67.11C77 68.61 82 76.61 83.5 79.61" stroke="#212B32" stroke-width="2"/>
  <path d="M75 69.61C76.5 68.444 80.5 65.91 84.5 65.11C88.5 64.31 91.833 64.777 93 65.11" stroke="#212B32" stroke-width="2"/>
</svg>