<?xml version="1.0" encoding="UTF-8"?>
<svg width="100" height="100" viewBox="0 0 100 100" fill="none" xmlns="http://www.w3.org/2000/svg">
  <mask id="mask0" mask-type="alpha" maskUnits="userSpaceOnUse" x="0" y="0" width="100" height="100">
    <circle cx="50" cy="50" r="50" fill="#C4C4C4" />
  </mask>
  <g mask="url(#mask0)">
    <mask id="mask1" mask-type="alpha" maskUnits="userSpaceOnUse" x="-4" y="-4" width="109" height="109">
      <rect x="-4" y="-4" width="108.333" height="108.333" fill="#005EB8" />
    </mask>
    <g mask="url(#mask1)">
      <rect x="-4" y="-4" width="108.333" height="108.333" fill="#005EB8" />
      <rect x="-72.75" y="51.417" width="88.9775" height="173.241" transform="rotate(-45 -72.75 51.417)" fill="#0271DC" />
      <path d="M133 76.9529L106.5 105L54.5 53.5L84.7351 31L133 76.9529Z" fill="#013669" />
      <path d="M57.5 108L13 69.4996L65.5 63L91 89L82 97L78 100L57.5 108Z" fill="#01498D" />
    </g>
    <path d="M12 32.6415L12 67.3585C12 68.8174 13.6218 70 15.6224 70L82.3776 70C84.3782 70 86 68.8174 86 67.3585L86 32.6415C86 31.1826 84.3782 30 82.3776 30L15.6224 30C13.6218 30 12 31.1826 12 32.6415Z" fill="white" />
    <mask id="mask2" mask-type="alpha" maskUnits="userSpaceOnUse" x="12" y="30" width="74" height="40">
      <path d="M12 32.6415L12 67.3585C12 68.8174 13.6218 70 15.6224 70L82.3776 70C84.3782 70 86 68.8174 86 67.3585L86 32.6415C86 31.1826 84.3782 30 82.3776 30L15.6224 30C13.6218 30 12 31.1826 12 32.6415Z" fill="white" />
    </mask>
    <g mask="url(#mask2)">
      <g opacity="0.3" filter="url(#filter0_d)">
        <path d="M88.5 69.5L12.5 30H7L5 44.5L9.5 71L72 75.5L88.5 69.5Z" fill="#D8DDE0" />
      </g>
    </g>
    <rect x="17.5" y="37.5" width="31" height="26" stroke="#D8DDE0" />
    <mask id="mask3" mask-type="alpha" maskUnits="userSpaceOnUse" x="18" y="38" width="30" height="25">
      <rect x="18" y="38" width="30" height="25" fill="#C4C4C4" />
    </mask>
    <g mask="url(#mask3)">
      <path fill-rule="evenodd" clip-rule="evenodd" d="M27.9436 44.0039C27.9436 45.9368 26.3765 47.5039 24.4435 47.5039C22.5105 47.5039 20.9436 45.9368 20.9436 44.0039C20.9436 42.071 22.5105 40.5039 24.4435 40.5039C26.3765 40.5039 27.9436 42.071 27.9436 44.0039Z" fill="#FFB81C" />
      <path fill-rule="evenodd" clip-rule="evenodd" d="M16.5 59.4324C16.5 59.4324 21.8014 51.4084 31.3193 53.2842C40.8372 55.16 43.6083 58.703 48.5482 57.9735C53.4879 57.2443 56.5 54.5347 56.5 54.5347V68.6902C56.5 71 56.5 71 53.8296 71H19.2668C17.8016 71 16.6099 69.9782 16.5966 68.7109L16.5 59.4324Z" fill="#007F3B" />
      <path fill-rule="evenodd" clip-rule="evenodd" d="M44.3723 46.3324C43.7854 45.7542 42.8666 45.6561 42.1562 46.0068C41.7738 44.9425 41.0724 43.907 39.8093 44.0067C38.5593 44.1051 37.9912 45.2347 37.7066 46.3332C37.0984 45.9636 36.3343 45.8688 35.7133 46.3014C35.259 46.6179 34.9995 47.1587 35.0161 47.6919C34.8973 48.4582 35.451 49.2582 36.1424 49.6258C36.9356 50.0474 37.8397 49.943 38.6085 49.5514C39.0621 50.1267 39.3043 50.4546 40.3717 50.4582C40.8565 50.4597 41.3211 50.2251 41.5876 49.818C41.5895 49.8151 41.5914 49.8121 41.5934 49.8092C41.6787 49.6772 41.7651 49.5214 41.7651 49.5214C41.7651 49.5214 43.1101 50.462 44.4329 49.2643C45.235 48.5383 45.1604 47.1088 44.3723 46.3324Z" fill="#37A9DD" />
    </g>
    <rect x="54" y="42" width="26.6667" height="3" fill="#768692" />
    <rect x="54" y="48.5713" width="17.7778" height="3" fill="#768692" />
    <rect x="54" y="55" width="22" height="3" fill="#768692" />
  </g>
  <defs>
    <filter id="filter0_d" x="1" y="30" width="91.5" height="53.5" filterUnits="userSpaceOnUse" color-interpolation-filters="sRGB">
      <feFlood flood-opacity="0" result="BackgroundImageFix" />
      <feColorMatrix in="SourceAlpha" type="matrix" values="0 0 0 0 0 0 0 0 0 0 0 0 0 0 0 0 0 0 127 0" />
      <feOffset dy="4" />
      <feGaussianBlur stdDeviation="2" />
      <feColorMatrix type="matrix" values="0 0 0 0 0 0 0 0 0 0 0 0 0 0 0 0 0 0 0.25 0" />
      <feBlend mode="normal" in2="BackgroundImageFix" result="effect1_dropShadow" />
      <feBlend mode="normal" in="SourceGraphic" in2="effect1_dropShadow" result="shape" />
    </filter>
  </defs>
</svg>