<?xml version="1.0" encoding="UTF-8"?>
<svg width="170" height="140" viewBox="0 0 170 140" fill="none" xmlns="http://www.w3.org/2000/svg">
  <path d="M0 10C0 4.47716 4.47715 0 10 0H160C165.523 0 170 4.47715 170 10V130C170 135.523 165.523 140 160 140H10C4.47715 140 0 135.523 0 130V10Z" fill="#F0F4F5"/>
  <rect x="23" y="34" width="125" height="45" stroke="#212B32" stroke-width="2"/>
  <path d="M33.0449 109V99.24H36.5169V97.832H27.9729V99.24H31.4449V109H33.0449ZM43.036 107.16C42.524 107.56 41.388 107.976 40.524 107.976C39.1 107.976 37.852 106.888 37.836 105.256H43.66C43.66 102.152 42.428 100.648 40.06 100.648C37.788 100.648 36.236 102.312 36.236 104.776C36.236 107.592 37.708 109.192 40.476 109.192C41.148 109.192 41.852 109.144 43.036 108.664V107.16ZM37.836 104.136C37.996 102.728 38.812 101.864 40.012 101.864C41.292 101.864 42.044 102.824 42.06 104.136H37.836ZM52.2306 109L49.3506 104.728L51.9746 100.84H50.2946L48.4866 103.752L46.7106 100.84H44.8386L47.4946 104.728L44.5506 109H46.3426L48.3586 105.8L50.3746 109H52.2306ZM58.1346 107.688C57.9266 107.816 57.6066 107.976 57.1106 107.976C56.2946 107.976 55.8466 107.304 55.8466 106.552V102.056H58.0066V100.84H55.8466V98.472L54.3426 98.952V100.84H52.5026V102.056H54.3426V106.84C54.3426 108.312 55.1586 109.192 56.8386 109.192C57.3186 109.192 57.7346 109.08 58.1346 108.968V107.688ZM67.9425 109.192C70.4545 109.192 72.1025 107.208 72.1025 104.92C72.1025 102.344 70.3425 100.648 67.9585 100.648C65.4625 100.648 63.7985 102.424 63.7985 104.92C63.7985 107.288 65.5425 109.192 67.9425 109.192ZM67.9585 107.976C66.2625 107.976 65.3985 106.488 65.3985 104.92C65.3985 103.352 66.3745 101.864 67.9425 101.864C69.5265 101.864 70.5025 103.304 70.5025 104.92C70.5025 106.504 69.6385 107.976 67.9585 107.976ZM81.3398 109V104.12C81.3398 101.896 80.3318 100.648 78.2838 100.648C77.1478 100.648 76.1078 101.176 75.6118 102.136H75.5798V100.84H74.1238V109H75.6278V105.208C75.6278 103.16 76.4758 101.864 78.0438 101.864C79.0518 101.864 79.8358 102.44 79.8358 104.584V109H81.3398ZM92.8221 107.688C92.6141 107.816 92.2941 107.976 91.7981 107.976C90.9821 107.976 90.5341 107.304 90.5341 106.552V102.056H92.6941V100.84H90.5341V98.472L89.0301 98.952V100.84H87.1901V102.056H89.0301V106.84C89.0301 108.312 89.8461 109.192 91.5261 109.192C92.0061 109.192 92.4221 109.08 92.8221 108.968V107.688ZM101.793 109V104.152C101.793 101.912 100.801 100.648 98.7369 100.648C97.6009 100.648 96.6729 101.128 96.1129 102.008H96.0809V97H94.5769V109H96.0809V105.176C96.0809 103.96 96.4489 101.864 98.5129 101.864C99.9049 101.864 100.289 103 100.289 104.712V109H101.793ZM110.614 107.16C110.102 107.56 108.966 107.976 108.102 107.976C106.678 107.976 105.43 106.888 105.414 105.256H111.238C111.238 102.152 110.006 100.648 107.638 100.648C105.366 100.648 103.814 102.312 103.814 104.776C103.814 107.592 105.286 109.192 108.054 109.192C108.726 109.192 109.43 109.144 110.614 108.664V107.16ZM105.414 104.136C105.574 102.728 106.39 101.864 107.59 101.864C108.87 101.864 109.622 102.824 109.638 104.136H105.414ZM119.398 109V97H117.894V109H119.398ZM128.411 107.16C127.899 107.56 126.763 107.976 125.899 107.976C124.475 107.976 123.227 106.888 123.211 105.256H129.035C129.035 102.152 127.803 100.648 125.435 100.648C123.163 100.648 121.611 102.312 121.611 104.776C121.611 107.592 123.083 109.192 125.851 109.192C126.523 109.192 127.227 109.144 128.411 108.664V107.16ZM123.211 104.136C123.371 102.728 124.187 101.864 125.387 101.864C126.667 101.864 127.419 102.824 127.435 104.136H123.211ZM133.526 109V102.056H135.686V100.84H133.526V99.832C133.526 98.584 133.894 98.024 134.982 98.024C135.222 98.024 135.526 98.056 135.702 98.12L135.766 96.904C135.382 96.84 135.078 96.808 134.758 96.808C132.71 96.808 132.022 97.896 132.022 100.04V100.84H130.102V102.056H132.022V109H133.526ZM141.728 107.688C141.52 107.816 141.2 107.976 140.704 107.976C139.888 107.976 139.44 107.304 139.44 106.552V102.056H141.6V100.84H139.44V98.472L137.936 98.952V100.84H136.096V102.056H137.936V106.84C137.936 108.312 138.752 109.192 140.432 109.192C140.912 109.192 141.328 109.08 141.728 108.968V107.688Z" fill="black"/>
  <rect x="33" y="42" width="45" height="3.85714" fill="#212B32"/>
  <rect x="33" y="49.7139" width="30" height="3.85714" fill="#212B32"/>
  <rect x="33" y="57.4287" width="39.75" height="3.85714" fill="#212B32"/>
  <rect x="33" y="65.1426" width="24.75" height="3.85714" fill="#212B32"/>
  <rect x="99" y="42" width="39" height="28" stroke="#212B32" stroke-width="2"/>
  <circle cx="109" cy="49" r="3" stroke="#212B32" stroke-width="2"/>
  <path d="M99 59.5001C100.667 58.3334 105.237 56.4048 110 57.0001C122 58.4999 127 66.5 128.5 69.5001" stroke="#212B32" stroke-width="2"/>
  <path d="M120 59.5003C121.5 58.3336 125.5 55.8003 129.5 55.0003C133.5 54.2003 136.833 54.667 138 55.0003" stroke="#212B32" stroke-width="2"/>
</svg>