<?xml version="1.0" encoding="UTF-8"?>
<svg width="170" height="140" viewBox="0 0 170 140" fill="none" xmlns="http://www.w3.org/2000/svg">
  <path d="M0 10C0 4.47716 4.47715 0 10 0H160C165.523 0 170 4.47715 170 10V130C170 135.523 165.523 140 160 140H10C4.47715 140 0 135.523 0 130V10Z" fill="#F0F4F5"/>
  <rect x="23" y="34" width="125" height="45" stroke="#212B32" stroke-width="2"/>
  <path d="M27.7089 109V99.24H31.1809V97.832H22.6369V99.24H26.1089V109H27.7089ZM37.7001 107.16C37.1881 107.56 36.0521 107.976 35.1881 107.976C33.7641 107.976 32.5161 106.888 32.5001 105.256H38.3241C38.3241 102.152 37.0921 100.648 34.7241 100.648C32.4521 100.648 30.9001 102.312 30.9001 104.776C30.9001 107.592 32.3721 109.192 35.1401 109.192C35.8121 109.192 36.5161 109.144 37.7001 108.664V107.16ZM32.5001 104.136C32.6601 102.728 33.4761 101.864 34.6761 101.864C35.9561 101.864 36.7081 102.824 36.7241 104.136H32.5001ZM46.8947 109L44.0147 104.728L46.6387 100.84H44.9587L43.1507 103.752L41.3747 100.84H39.5027L42.1587 104.728L39.2147 109H41.0067L43.0227 105.8L45.0387 109H46.8947ZM52.7987 107.688C52.5907 107.816 52.2707 107.976 51.7747 107.976C50.9587 107.976 50.5107 107.304 50.5107 106.552V102.056H52.6707V100.84H50.5107V98.472L49.0067 98.952V100.84H47.1667V102.056H49.0067V106.84C49.0067 108.312 49.8227 109.192 51.5027 109.192C51.9827 109.192 52.3987 109.08 52.7987 108.968V107.688ZM62.6066 109.192C65.1186 109.192 66.7666 107.208 66.7666 104.92C66.7666 102.344 65.0066 100.648 62.6226 100.648C60.1266 100.648 58.4626 102.424 58.4626 104.92C58.4626 107.288 60.2066 109.192 62.6066 109.192ZM62.6226 107.976C60.9266 107.976 60.0626 106.488 60.0626 104.92C60.0626 103.352 61.0386 101.864 62.6066 101.864C64.1906 101.864 65.1666 103.304 65.1666 104.92C65.1666 106.504 64.3026 107.976 62.6226 107.976ZM76.0038 109V104.12C76.0038 101.896 74.9958 100.648 72.9478 100.648C71.8118 100.648 70.7718 101.176 70.2758 102.136H70.2438V100.84H68.7878V109H70.2918V105.208C70.2918 103.16 71.1398 101.864 72.7078 101.864C73.7158 101.864 74.4998 102.44 74.4998 104.584V109H76.0038ZM87.4862 107.688C87.2782 107.816 86.9582 107.976 86.4622 107.976C85.6462 107.976 85.1982 107.304 85.1982 106.552V102.056H87.3582V100.84H85.1982V98.472L83.6942 98.952V100.84H81.8542V102.056H83.6942V106.84C83.6942 108.312 84.5102 109.192 86.1902 109.192C86.6702 109.192 87.0862 109.08 87.4862 108.968V107.688ZM96.4569 109V104.152C96.4569 101.912 95.4649 100.648 93.4009 100.648C92.2649 100.648 91.3369 101.128 90.7769 102.008H90.7449V97H89.2409V109H90.7449V105.176C90.7449 103.96 91.1129 101.864 93.1769 101.864C94.5689 101.864 94.9529 103 94.9529 104.712V109H96.4569ZM105.278 107.16C104.766 107.56 103.63 107.976 102.766 107.976C101.342 107.976 100.094 106.888 100.078 105.256H105.902C105.902 102.152 104.67 100.648 102.302 100.648C100.03 100.648 98.4782 102.312 98.4782 104.776C98.4782 107.592 99.9502 109.192 102.718 109.192C103.39 109.192 104.094 109.144 105.278 108.664V107.16ZM100.078 104.136C100.238 102.728 101.054 101.864 102.254 101.864C103.534 101.864 104.286 102.824 104.302 104.136H100.078ZM113.87 109V105.288C113.87 103.288 114.718 101.96 116.094 101.96C116.35 101.96 116.654 101.992 116.926 102.104V100.76C116.558 100.68 116.27 100.648 115.95 100.648C115.086 100.648 114.222 101.224 113.806 102.104H113.774V100.84H112.366V109H113.87ZM120.377 99.016V97.32H118.681V99.016H120.377ZM120.281 109V100.84H118.777V109H120.281ZM128.75 108.536C128.75 110.264 127.806 111.336 126.206 111.336C125.214 111.336 124.51 111.176 123.278 110.6L123.118 111.992C124.27 112.376 125.006 112.552 126.046 112.552C128.926 112.552 130.254 111.16 130.254 108.664V100.84H128.862V102.056H128.83C128.334 101.064 127.422 100.648 126.142 100.648C123.774 100.648 122.494 102.76 122.494 104.984C122.494 107.096 123.646 109 125.982 109C127.054 109 128.078 108.568 128.718 107.736H128.75V108.536ZM126.366 107.784C125.006 107.784 124.094 106.504 124.094 104.904C124.094 103.416 124.894 101.864 126.366 101.864C127.95 101.864 128.75 103.304 128.75 105C128.75 106.632 127.694 107.784 126.366 107.784ZM140.035 109V104.152C140.035 101.912 139.043 100.648 136.979 100.648C135.843 100.648 134.915 101.128 134.355 102.008H134.323V97H132.819V109H134.323V105.176C134.323 103.96 134.691 101.864 136.755 101.864C138.147 101.864 138.531 103 138.531 104.712V109H140.035ZM147.064 107.688C146.856 107.816 146.536 107.976 146.04 107.976C145.224 107.976 144.776 107.304 144.776 106.552V102.056H146.936V100.84H144.776V98.472L143.272 98.952V100.84H141.432V102.056H143.272V106.84C143.272 108.312 144.088 109.192 145.768 109.192C146.248 109.192 146.664 109.08 147.064 108.968V107.688Z" fill="#212B32"/>
  <rect x="91" y="42" width="45" height="3.85714" fill="#212B32"/>
  <rect x="91" y="49.7139" width="30" height="3.85714" fill="#212B32"/>
  <rect x="91" y="57.4287" width="39.75" height="3.85714" fill="#212B32"/>
  <rect x="91" y="65.1426" width="24.75" height="3.85714" fill="#212B32"/>
  <path d="M81.8932 44.1714C81.4402 43.1898 80.3075 42.8122 79.4014 43.2653L69.5097 47.7958V47.1918V42.8877C69.5097 41.8306 68.6791 41 67.622 41H32.8877C31.8306 41 31 41.8306 31 42.8877V67.0507C31 68.1078 31.8306 68.9384 32.8877 68.9384H67.5465C68.5281 68.9384 69.3587 68.1833 69.4342 67.1262V64.2568V62.2936L79.3259 66.8241C79.5524 66.8997 79.8545 66.9752 80.081 66.9752C81.1381 66.9752 81.9687 66.1446 81.9687 65.0874V44.9265C82.0442 44.7 81.9687 44.3979 81.8932 44.1714ZM67.924 67.0507C67.924 67.2772 67.773 67.4282 67.5465 67.4282H32.8877C32.6612 67.4282 32.5102 67.2772 32.5102 67.0507V42.8877C32.5102 42.6612 32.6612 42.5102 32.8877 42.5102H67.5465C67.773 42.5102 67.924 42.6612 67.924 42.8877V47.1162V59.8018V64.2568V67.0507ZM80.5341 65.0874C80.5341 65.2385 80.4585 65.314 80.383 65.3895C80.3075 65.465 80.1565 65.465 80.0055 65.3895L69.4342 60.5569V49.457L80.0055 44.6244C80.081 44.5489 80.232 44.5489 80.383 44.6244C80.4585 44.7 80.5341 44.7755 80.5341 44.9265V65.0874Z" fill="#212B32"/>
</svg>

