<?xml version="1.0" encoding="UTF-8"?>
<svg width="180" height="153" viewBox="0 0 180 153" fill="none" xmlns="http://www.w3.org/2000/svg">
  <path d="M0.5 23C0.5 17.7533 4.7533 13.5 10 13.5H160C165.247 13.5 169.5 17.7533 169.5 23V143C169.5 148.247 165.247 152.5 160 152.5H10C4.75329 152.5 0.5 148.247 0.5 143V23Z" fill="#F0F4F5" stroke="#007F3B"/>
  <rect x="23" y="47" width="125" height="45" stroke="#007F3B" stroke-width="2"/>
  <path d="M27.7089 122V112.24H31.1809V110.832H22.6369V112.24H26.1089V122H27.7089ZM37.7001 120.16C37.1881 120.56 36.0521 120.976 35.1881 120.976C33.7641 120.976 32.5161 119.888 32.5001 118.256H38.3241C38.3241 115.152 37.0921 113.648 34.7241 113.648C32.4521 113.648 30.9001 115.312 30.9001 117.776C30.9001 120.592 32.3721 122.192 35.1401 122.192C35.8121 122.192 36.5161 122.144 37.7001 121.664V120.16ZM32.5001 117.136C32.6601 115.728 33.4761 114.864 34.6761 114.864C35.9561 114.864 36.7081 115.824 36.7241 117.136H32.5001ZM46.8947 122L44.0147 117.728L46.6387 113.84H44.9587L43.1507 116.752L41.3747 113.84H39.5027L42.1587 117.728L39.2147 122H41.0067L43.0227 118.8L45.0387 122H46.8947ZM52.7987 120.688C52.5907 120.816 52.2707 120.976 51.7747 120.976C50.9587 120.976 50.5107 120.304 50.5107 119.552V115.056H52.6707V113.84H50.5107V111.472L49.0067 111.952V113.84H47.1667V115.056H49.0067V119.84C49.0067 121.312 49.8227 122.192 51.5027 122.192C51.9827 122.192 52.3987 122.08 52.7987 121.968V120.688ZM62.6066 122.192C65.1186 122.192 66.7666 120.208 66.7666 117.92C66.7666 115.344 65.0066 113.648 62.6226 113.648C60.1266 113.648 58.4626 115.424 58.4626 117.92C58.4626 120.288 60.2066 122.192 62.6066 122.192ZM62.6226 120.976C60.9266 120.976 60.0626 119.488 60.0626 117.92C60.0626 116.352 61.0386 114.864 62.6066 114.864C64.1906 114.864 65.1666 116.304 65.1666 117.92C65.1666 119.504 64.3026 120.976 62.6226 120.976ZM76.0038 122V117.12C76.0038 114.896 74.9958 113.648 72.9478 113.648C71.8118 113.648 70.7718 114.176 70.2758 115.136H70.2438V113.84H68.7878V122H70.2918V118.208C70.2918 116.16 71.1398 114.864 72.7078 114.864C73.7158 114.864 74.4998 115.44 74.4998 117.584V122H76.0038ZM87.4862 120.688C87.2782 120.816 86.9582 120.976 86.4622 120.976C85.6462 120.976 85.1982 120.304 85.1982 119.552V115.056H87.3582V113.84H85.1982V111.472L83.6942 111.952V113.84H81.8542V115.056H83.6942V119.84C83.6942 121.312 84.5102 122.192 86.1902 122.192C86.6702 122.192 87.0862 122.08 87.4862 121.968V120.688ZM96.4569 122V117.152C96.4569 114.912 95.4649 113.648 93.4009 113.648C92.2649 113.648 91.3369 114.128 90.7769 115.008H90.7449V110H89.2409V122H90.7449V118.176C90.7449 116.96 91.1129 114.864 93.1769 114.864C94.5689 114.864 94.9529 116 94.9529 117.712V122H96.4569ZM105.278 120.16C104.766 120.56 103.63 120.976 102.766 120.976C101.342 120.976 100.094 119.888 100.078 118.256H105.902C105.902 115.152 104.67 113.648 102.302 113.648C100.03 113.648 98.4782 115.312 98.4782 117.776C98.4782 120.592 99.9502 122.192 102.718 122.192C103.39 122.192 104.094 122.144 105.278 121.664V120.16ZM100.078 117.136C100.238 115.728 101.054 114.864 102.254 114.864C103.534 114.864 104.286 115.824 104.302 117.136H100.078ZM113.87 122V118.288C113.87 116.288 114.718 114.96 116.094 114.96C116.35 114.96 116.654 114.992 116.926 115.104V113.76C116.558 113.68 116.27 113.648 115.95 113.648C115.086 113.648 114.222 114.224 113.806 115.104H113.774V113.84H112.366V122H113.87ZM120.377 112.016V110.32H118.681V112.016H120.377ZM120.281 122V113.84H118.777V122H120.281ZM128.75 121.536C128.75 123.264 127.806 124.336 126.206 124.336C125.214 124.336 124.51 124.176 123.278 123.6L123.118 124.992C124.27 125.376 125.006 125.552 126.046 125.552C128.926 125.552 130.254 124.16 130.254 121.664V113.84H128.862V115.056H128.83C128.334 114.064 127.422 113.648 126.142 113.648C123.774 113.648 122.494 115.76 122.494 117.984C122.494 120.096 123.646 122 125.982 122C127.054 122 128.078 121.568 128.718 120.736H128.75V121.536ZM126.366 120.784C125.006 120.784 124.094 119.504 124.094 117.904C124.094 116.416 124.894 114.864 126.366 114.864C127.95 114.864 128.75 116.304 128.75 118C128.75 119.632 127.694 120.784 126.366 120.784ZM140.035 122V117.152C140.035 114.912 139.043 113.648 136.979 113.648C135.843 113.648 134.915 114.128 134.355 115.008H134.323V110H132.819V122H134.323V118.176C134.323 116.96 134.691 114.864 136.755 114.864C138.147 114.864 138.531 116 138.531 117.712V122H140.035ZM147.064 120.688C146.856 120.816 146.536 120.976 146.04 120.976C145.224 120.976 144.776 120.304 144.776 119.552V115.056H146.936V113.84H144.776V111.472L143.272 111.952V113.84H141.432V115.056H143.272V119.84C143.272 121.312 144.088 122.192 145.768 122.192C146.248 122.192 146.664 122.08 147.064 121.968V120.688Z" fill="#007F3B"/>
  <rect x="91" y="55" width="45" height="3.85714" fill="#007F3B"/>
  <rect x="91" y="62.7139" width="30" height="3.85714" fill="#007F3B"/>
  <rect x="91" y="70.4287" width="39.75" height="3.85714" fill="#007F3B"/>
  <rect x="91" y="78.1426" width="24.75" height="3.85714" fill="#007F3B"/>
  <path d="M81.8932 57.1714C81.4402 56.1898 80.3075 55.8122 79.4014 56.2653L69.5097 60.7958V60.1918V55.8877C69.5097 54.8306 68.6791 54 67.622 54H32.8877C31.8306 54 31 54.8306 31 55.8877V80.0507C31 81.1078 31.8306 81.9384 32.8877 81.9384H67.5465C68.5281 81.9384 69.3587 81.1833 69.4342 80.1262V77.2568V75.2936L79.3259 79.8241C79.5524 79.8997 79.8545 79.9752 80.081 79.9752C81.1381 79.9752 81.9687 79.1446 81.9687 78.0874V57.9265C82.0442 57.7 81.9687 57.3979 81.8932 57.1714ZM67.924 80.0507C67.924 80.2772 67.773 80.4282 67.5465 80.4282H32.8877C32.6612 80.4282 32.5102 80.2772 32.5102 80.0507V55.8877C32.5102 55.6612 32.6612 55.5102 32.8877 55.5102H67.5465C67.773 55.5102 67.924 55.6612 67.924 55.8877V60.1162V72.8018V77.2568V80.0507ZM80.5341 78.0874C80.5341 78.2385 80.4585 78.314 80.383 78.3895C80.3075 78.465 80.1565 78.465 80.0055 78.3895L69.4342 73.5569V62.457L80.0055 57.6244C80.081 57.5489 80.232 57.5489 80.383 57.6244C80.4585 57.7 80.5341 57.7755 80.5341 57.9265V78.0874Z" fill="#007F3B"/>
  <path d="M170.679 2.98719C168.019 1.42412 165.126 0.642578 162 0.642578C158.874 0.642578 155.981 1.42412 153.321 2.98719C150.662 4.55027 148.551 6.66159 146.987 9.32115C145.424 11.9807 144.643 14.8736 144.643 17.9997C144.643 21.1259 145.424 24.0187 146.987 26.6783C148.551 29.3379 150.662 31.4492 153.321 33.0123C155.981 34.5753 158.874 35.3569 162 35.3569C165.126 35.3569 168.019 34.5753 170.679 33.0123C173.338 31.4492 175.449 29.3379 177.013 26.6783C178.576 24.0187 179.357 21.1259 179.357 17.9997C179.357 14.8736 178.576 11.9807 177.013 9.32115C175.449 6.66159 173.338 4.55027 170.679 2.98719Z" fill="#007F3B"/>
  <path d="M158.711 25.3922C158.944 25.3922 159.131 25.2989 159.271 25.1123L171.938 12.5844C172.078 12.4444 172.148 12.2577 172.148 12.0244C172.148 11.7912 172.078 11.5812 171.938 11.3945L171.309 10.8346C171.169 10.648 170.982 10.5547 170.749 10.5547C170.515 10.5547 170.305 10.6247 170.119 10.7647L158.711 22.1728L153.881 17.2736C153.695 17.1336 153.485 17.0636 153.252 17.0636C153.018 17.0636 152.832 17.1336 152.692 17.2736L152.062 17.8335C151.922 18.0201 151.852 18.2301 151.852 18.4634C151.852 18.6967 151.922 18.8833 152.062 19.0233L158.081 25.1123C158.267 25.2989 158.477 25.3922 158.711 25.3922Z" fill="white"/>
</svg>

