<?xml version="1.0" encoding="UTF-8"?>
<svg width="185" height="153" viewBox="0 0 185 153" fill="none" xmlns="http://www.w3.org/2000/svg">
  <path d="M0.5 23C0.5 17.7533 4.7533 13.5 10 13.5H160C165.247 13.5 169.5 17.7533 169.5 23V143C169.5 148.247 165.247 152.5 160 152.5H10C4.75329 152.5 0.5 148.247 0.5 143V23Z" fill="#F0F4F5" stroke="#007F3B"/>
  <rect x="23" y="47" width="125" height="45" stroke="#007F3B" stroke-width="2"/>
  <path d="M33.0449 122V112.24H36.5169V110.832H27.9729V112.24H31.4449V122H33.0449ZM43.036 120.16C42.524 120.56 41.388 120.976 40.524 120.976C39.1 120.976 37.852 119.888 37.836 118.256H43.66C43.66 115.152 42.428 113.648 40.06 113.648C37.788 113.648 36.236 115.312 36.236 117.776C36.236 120.592 37.708 122.192 40.476 122.192C41.148 122.192 41.852 122.144 43.036 121.664V120.16ZM37.836 117.136C37.996 115.728 38.812 114.864 40.012 114.864C41.292 114.864 42.044 115.824 42.06 117.136H37.836ZM52.2306 122L49.3506 117.728L51.9746 113.84H50.2946L48.4866 116.752L46.7106 113.84H44.8386L47.4946 117.728L44.5506 122H46.3426L48.3586 118.8L50.3746 122H52.2306ZM58.1346 120.688C57.9266 120.816 57.6066 120.976 57.1106 120.976C56.2946 120.976 55.8466 120.304 55.8466 119.552V115.056H58.0066V113.84H55.8466V111.472L54.3426 111.952V113.84H52.5026V115.056H54.3426V119.84C54.3426 121.312 55.1586 122.192 56.8386 122.192C57.3186 122.192 57.7346 122.08 58.1346 121.968V120.688ZM67.9425 122.192C70.4545 122.192 72.1025 120.208 72.1025 117.92C72.1025 115.344 70.3425 113.648 67.9585 113.648C65.4625 113.648 63.7985 115.424 63.7985 117.92C63.7985 120.288 65.5425 122.192 67.9425 122.192ZM67.9585 120.976C66.2625 120.976 65.3985 119.488 65.3985 117.92C65.3985 116.352 66.3745 114.864 67.9425 114.864C69.5265 114.864 70.5025 116.304 70.5025 117.92C70.5025 119.504 69.6385 120.976 67.9585 120.976ZM81.3398 122V117.12C81.3398 114.896 80.3318 113.648 78.2838 113.648C77.1478 113.648 76.1078 114.176 75.6118 115.136H75.5798V113.84H74.1238V122H75.6278V118.208C75.6278 116.16 76.4758 114.864 78.0438 114.864C79.0518 114.864 79.8358 115.44 79.8358 117.584V122H81.3398ZM92.8221 120.688C92.6141 120.816 92.2941 120.976 91.7981 120.976C90.9821 120.976 90.5341 120.304 90.5341 119.552V115.056H92.6941V113.84H90.5341V111.472L89.0301 111.952V113.84H87.1901V115.056H89.0301V119.84C89.0301 121.312 89.8461 122.192 91.5261 122.192C92.0061 122.192 92.4221 122.08 92.8221 121.968V120.688ZM101.793 122V117.152C101.793 114.912 100.801 113.648 98.7369 113.648C97.6009 113.648 96.6729 114.128 96.1129 115.008H96.0809V110H94.5769V122H96.0809V118.176C96.0809 116.96 96.4489 114.864 98.5129 114.864C99.9049 114.864 100.289 116 100.289 117.712V122H101.793ZM110.614 120.16C110.102 120.56 108.966 120.976 108.102 120.976C106.678 120.976 105.43 119.888 105.414 118.256H111.238C111.238 115.152 110.006 113.648 107.638 113.648C105.366 113.648 103.814 115.312 103.814 117.776C103.814 120.592 105.286 122.192 108.054 122.192C108.726 122.192 109.43 122.144 110.614 121.664V120.16ZM105.414 117.136C105.574 115.728 106.39 114.864 107.59 114.864C108.87 114.864 109.622 115.824 109.638 117.136H105.414ZM119.398 122V110H117.894V122H119.398ZM128.411 120.16C127.899 120.56 126.763 120.976 125.899 120.976C124.475 120.976 123.227 119.888 123.211 118.256H129.035C129.035 115.152 127.803 113.648 125.435 113.648C123.163 113.648 121.611 115.312 121.611 117.776C121.611 120.592 123.083 122.192 125.851 122.192C126.523 122.192 127.227 122.144 128.411 121.664V120.16ZM123.211 117.136C123.371 115.728 124.187 114.864 125.387 114.864C126.667 114.864 127.419 115.824 127.435 117.136H123.211ZM133.526 122V115.056H135.686V113.84H133.526V112.832C133.526 111.584 133.894 111.024 134.982 111.024C135.222 111.024 135.526 111.056 135.702 111.12L135.766 109.904C135.382 109.84 135.078 109.808 134.758 109.808C132.71 109.808 132.022 110.896 132.022 113.04V113.84H130.102V115.056H132.022V122H133.526ZM141.728 120.688C141.52 120.816 141.2 120.976 140.704 120.976C139.888 120.976 139.44 120.304 139.44 119.552V115.056H141.6V113.84H139.44V111.472L137.936 111.952V113.84H136.096V115.056H137.936V119.84C137.936 121.312 138.752 122.192 140.432 122.192C140.912 122.192 141.328 122.08 141.728 121.968V120.688Z" fill="#007F3B"/>
  <rect x="34" y="55" width="45" height="3.85714" fill="#007F3B"/>
  <rect x="34" y="62.7139" width="30" height="3.85714" fill="#007F3B"/>
  <rect x="34" y="70.4287" width="39.75" height="3.85714" fill="#007F3B"/>
  <rect x="34" y="78.1426" width="24.75" height="3.85714" fill="#007F3B"/>
  <path d="M140.893 57.1714C140.44 56.1898 139.308 55.8122 138.401 56.2653L128.51 60.7958V60.1918V55.8877C128.51 54.8306 127.679 54 126.622 54H91.8877C90.8306 54 90 54.8306 90 55.8877V80.0507C90 81.1078 90.8306 81.9384 91.8877 81.9384H126.546C127.528 81.9384 128.359 81.1833 128.434 80.1262V77.2568V75.2936L138.326 79.8241C138.552 79.8997 138.854 79.9752 139.081 79.9752C140.138 79.9752 140.969 79.1446 140.969 78.0874V57.9265C141.044 57.7 140.969 57.3979 140.893 57.1714ZM126.924 80.0507C126.924 80.2772 126.773 80.4282 126.546 80.4282H91.8877C91.6612 80.4282 91.5102 80.2772 91.5102 80.0507V55.8877C91.5102 55.6612 91.6612 55.5102 91.8877 55.5102H126.546C126.773 55.5102 126.924 55.6612 126.924 55.8877V60.1162V72.8018V77.2568V80.0507ZM139.534 78.0874C139.534 78.2385 139.459 78.314 139.383 78.3895C139.308 78.465 139.156 78.465 139.005 78.3895L128.434 73.5569V62.457L139.005 57.6244C139.081 57.5489 139.232 57.5489 139.383 57.6244C139.459 57.7 139.534 57.7755 139.534 57.9265V78.0874Z" fill="#007F3B"/>
  <path d="M175.679 2.98719C173.019 1.42412 170.126 0.642578 167 0.642578C163.874 0.642578 160.981 1.42412 158.321 2.98719C155.662 4.55027 153.551 6.66159 151.987 9.32115C150.424 11.9807 149.643 14.8736 149.643 17.9997C149.643 21.1259 150.424 24.0187 151.987 26.6783C153.551 29.3379 155.662 31.4492 158.321 33.0123C160.981 34.5753 163.874 35.3569 167 35.3569C170.126 35.3569 173.019 34.5753 175.679 33.0123C178.338 31.4492 180.449 29.3379 182.013 26.6783C183.576 24.0187 184.357 21.1259 184.357 17.9997C184.357 14.8736 183.576 11.9807 182.013 9.32115C180.449 6.66159 178.338 4.55027 175.679 2.98719Z" fill="#007F3B"/>
  <path d="M163.711 25.3922C163.944 25.3922 164.131 25.2989 164.271 25.1123L176.938 12.5844C177.078 12.4444 177.148 12.2577 177.148 12.0244C177.148 11.7912 177.078 11.5812 176.938 11.3945L176.309 10.8346C176.169 10.648 175.982 10.5547 175.749 10.5547C175.515 10.5547 175.305 10.6247 175.119 10.7647L163.711 22.1728L158.881 17.2736C158.695 17.1336 158.485 17.0636 158.252 17.0636C158.018 17.0636 157.832 17.1336 157.692 17.2736L157.062 17.8335C156.922 18.0201 156.852 18.2301 156.852 18.4634C156.852 18.6967 156.922 18.8833 157.062 19.0233L163.081 25.1123C163.267 25.2989 163.477 25.3922 163.711 25.3922Z" fill="white"/>
</svg>


