<svg width="100" height="100" viewBox="0 0 100 100" fill="none" xmlns="http://www.w3.org/2000/svg">
<mask id="mask0_220_4941" style="mask-type:alpha" maskUnits="userSpaceOnUse" x="0" y="0" width="100" height="100">
<path d="M50 100C77.6142 100 100 77.6142 100 50C100 22.3858 77.6142 0 50 0C22.3858 0 0 22.3858 0 50C0 77.6142 22.3858 100 50 100Z" fill="#C4C4C4"/>
</mask>
<g mask="url(#mask0_220_4941)">
<mask id="mask1_220_4941" style="mask-type:alpha" maskUnits="userSpaceOnUse" x="-4" y="-4" width="109" height="109">
<path d="M104.333 -4H-4V104.333H104.333V-4Z" fill="#005EB8"/>
</mask>
<g mask="url(#mask1_220_4941)">
<path d="M104.333 -4H-4V104.333H104.333V-4Z" fill="#330072"/>
<path d="M12.8333 11.1667L-26.5 50.5L49.4998 126.5L88.8331 87.1665L12.8333 11.1667Z" fill="#5E03CE"/>
<path d="M73.769 105L50 82L66.5 60L112 74.1682V101.314L73.769 105Z" fill="#9137FF"/>
<path d="M103 71L109.333 109.333L45.1665 47.0416L59.4998 25.5L103 71Z" fill="#260154"/>
</g>
<path d="M53.2108 77.3636C52.3376 78.4357 51.5778 79.3477 50.9754 80.0619C50.3726 79.3476 49.6122 78.4354 48.7383 77.3632C46.4843 74.5975 43.4833 70.7768 40.4864 66.5481C37.4844 62.3121 34.5147 57.7059 32.3034 53.3646C30.0591 48.9586 28.7341 45.0855 28.7334 42.2366C28.7473 36.3383 31.0922 30.669 35.2562 26.5064C39.4217 22.3422 45.0788 20 50.9759 20C56.8726 20 62.5285 22.3419 66.6933 26.5186L66.6956 26.5209C70.8611 30.685 73.2039 36.3399 73.2039 42.2344C73.2039 45.0839 71.8794 48.9579 69.6359 53.3651C67.4259 57.7064 64.4579 62.3126 61.4578 66.5485C58.4627 70.7773 55.4635 74.598 53.2108 77.3636Z" fill="white" stroke="#0483FD" stroke-width="4"/>
<path d="M50.3776 55.3278C57.9347 55.3278 64.0609 49.2016 64.0609 41.6445C64.0609 34.0874 57.9347 27.9612 50.3776 27.9612C42.8206 27.9612 36.6943 34.0874 36.6943 41.6445C36.6943 49.2016 42.8206 55.3278 50.3776 55.3278Z" fill="white" stroke="#0483FD" stroke-width="2.5"/>
<path d="M48.5111 47.8084C48.725 47.8084 48.9 47.7306 49.0361 47.5751L57.6403 39.0001C57.7764 38.864 57.8445 38.6891 57.8445 38.4752C57.8445 38.2613 57.7764 38.0862 57.6403 37.9501L56.5611 36.9002C56.425 36.7446 56.2549 36.6667 56.0507 36.6667C55.8465 36.6667 55.6667 36.7446 55.5111 36.9002L48.5111 43.9002L45.2445 40.6334C45.0889 40.4779 44.909 40.4002 44.7049 40.4002C44.5007 40.4002 44.3306 40.4779 44.1945 40.6334L43.1153 41.6834C42.9792 41.8195 42.9111 41.9946 42.9111 42.2085C42.9111 42.4224 42.9792 42.5973 43.1153 42.7334L47.9861 47.5751C48.1222 47.7306 48.2972 47.8084 48.5111 47.8084Z" fill="#0483FD"/>
</g>
</svg>
