<svg width="58" height="58" viewBox="0 0 58 58" fill="none" xmlns="http://www.w3.org/2000/svg">
<rect x="1" y="1.42822" width="56" height="56" fill="white"/>
<path d="M18.5257 36.1334C17.5064 36.4935 16.3428 37.0459 13.971 37.0459C8.85193 37.0459 6.5 33.9994 6.5 29.4005C6.5 25.2152 9.18508 22.2539 13.2649 22.2539C18.0782 22.2539 19.6296 25.6873 19.6296 30.2327H9.3268C9.3268 33.0285 11.5644 34.9435 14.0779 34.9435C15.8331 34.9435 17.8718 34.0578 18.5182 33.5322L18.5257 36.1334ZM16.7978 28.2958C16.7978 26.1326 15.5 24.3636 13.2003 24.3636C10.5972 24.3636 9.5232 26.4659 9.32431 28.2958H16.7953H16.7978Z" fill="black"/>
<path d="M21.8348 15.9441H24.4925V36.7195H21.8348V15.9441Z" fill="black"/>
<path d="M29.9522 24.6943H26.5585V22.5919H29.9572V21.2877C29.9572 17.8543 30.8621 15.6108 34.7978 15.6108C35.4765 15.6108 36.0409 15.6911 36.5779 15.7763L36.4635 17.8787C36.1502 17.7667 35.6406 17.7132 35.1931 17.7132C32.9008 17.7132 32.6174 19.1513 32.6174 21.0663V22.5895H36.4386V24.6919H32.6174V36.7099H29.9596L29.9522 24.6919V24.6943Z" fill="black"/>
<path d="M38.6688 15.9441H41.3265V24.6139H41.3812C42.3458 23.1174 44.0116 22.2585 46.0254 22.2585C49.7572 22.2585 51.4304 24.5263 51.4304 28.3198V36.7098H48.7726V29.4026C48.7726 26.1079 48.0392 24.4995 45.7121 24.3584C42.6864 24.3584 41.3265 26.7406 41.3265 30.174V36.7074H38.6688V15.9441Z" fill="black"/>
<path d="M19.9043 40.569H6.5V43.4413H19.9043V40.569Z" fill="#C10071"/>
<path d="M31.3936 40.569H19.9042V43.4413H31.3936V40.569Z" fill="#003087"/>
<path d="M38.0957 40.569H31.3936V43.4413H38.0957V40.569Z" fill="#0069B3"/>
<path d="M44.7979 40.569H38.0957V43.4413H44.7979V40.569Z" fill="#00A7D6"/>
<path d="M49.5851 40.569H44.7979V43.4413H49.5851V40.569Z" fill="#35BBED"/>
<path d="M51.5 40.569H49.5851V43.4413H51.5V40.569Z" fill="#5DC9F1"/>
<rect x="1" y="1.42822" width="56" height="56" stroke="#D8DDE0"/>
</svg>
